M48
;DRILL file {KiCad 5.0.0+dfsg1-2} date Wed Oct 17 02:30:37 2018
;FORMAT={-:-/ absolute / inch / decimal}
FMAT,2
INCH,TZ
T1C0.0157
T2C0.0315
T3C0.0315
T4C0.0394
%
G90
G05
M72
T1
X6.3583Y-3.4252
X6.6929Y-3.9567
X6.6929Y-4.2323
X6.6929Y-4.3307
X6.6929Y-4.5866
X6.6929Y-4.7638
X6.7323Y-3.4252
X6.7717Y-3.7205
X6.8307Y-3.6614
X6.8701Y-3.4252
X6.8898Y-3.7598
X6.8898Y-4.0354
X6.8898Y-4.3504
X6.8898Y-4.4488
X6.9094Y-4.1535
X6.9094Y-4.2323
X6.9488Y-3.7008
X6.9488Y-3.937
X7.0276Y-4.0551
X7.0866Y-3.4646
X7.126Y-4.4291
X7.185Y-3.3268
X7.2047Y-2.8346
X7.2441Y-3.7008
X7.2441Y-3.7598
X7.2835Y-2.9331
X7.2835Y-2.9724
X7.2835Y-3.0906
X7.2835Y-3.2283
X7.2835Y-3.3268
X7.2835Y-4.5079
X7.3031Y-3.5433
X7.3031Y-4.2913
X7.3228Y-4.3307
X7.4016Y-3.5039
X7.4016Y-4.1339
X7.4409Y-3.6811
X7.4409Y-3.7598
X7.4803Y-4.1339
X7.5Y-2.8937
X7.5197Y-4.4291
X7.5394Y-3.6811
X7.5394Y-3.7598
X7.5591Y-4.252
X7.5784Y-3.4981
X7.5787Y-3.0118
X7.5787Y-4.5079
X7.5984Y-3.0906
X7.5984Y-3.189
X7.5984Y-3.2677
X7.6378Y-3.0118
X7.6378Y-3.5039
X7.6772Y-2.815
X7.6969Y-3.6417
X7.6969Y-4.252
X7.699Y-3.681
X7.7165Y-3.2677
X7.7165Y-4.4882
X7.7362Y-3.9567
X7.7756Y-3.3858
X7.7953Y-3.5039
X7.7953Y-3.6811
X7.7953Y-4.1142
X7.7953Y-4.3307
X7.8346Y-3.9567
X7.8543Y-3.6811
X7.8543Y-4.0157
X7.8937Y-3.6614
X7.9134Y-4.1142
X7.9528Y-3.563
X7.9724Y-3.937
X7.9724Y-4.0157
X7.9724Y-4.1339
X8.0118Y-3.248
X8.0118Y-3.4449
X8.0118Y-3.6811
X8.0315Y-4.1142
X8.0512Y-3.5236
X8.0512Y-3.9961
X8.0709Y-3.4055
X8.0709Y-3.622
X8.0709Y-3.7205
X8.248Y-3.189
X8.248Y-3.5039
X8.2677Y-3.3268
X8.2677Y-4.1339
X8.2874Y-3.8189
T2
X6.9291Y-3.3118
X6.9291Y-3.5039
T3
X7.312Y-2.685
X7.3258Y-2.8043
X7.5168Y-2.8043
X7.5305Y-2.685
T4
X8.1693Y-3.2732
X8.1693Y-3.3732
X8.1693Y-3.4732
X8.1693Y-3.5732
X8.1693Y-3.6732
X8.1693Y-3.7732
X8.1693Y-3.8732
X8.1693Y-3.9732
X8.1693Y-4.0732
X8.1693Y-4.1732
X7.8937Y-2.815
X7.8937Y-2.915
X7.8937Y-3.015
X7.8937Y-3.115
X7.8937Y-3.215
X7.8937Y-3.315
X7.8937Y-3.415
X6.7913Y-3.8976
X6.7913Y-3.9976
X6.7913Y-4.0976
X6.7913Y-4.1976
X6.7913Y-4.2976
X6.7913Y-4.3976
X6.7913Y-4.4976
X6.7913Y-4.5976
X6.7913Y-4.6976
X6.7913Y-4.7976
T0
M30
