G04 #@! TF.GenerationSoftware,KiCad,Pcbnew,5.0.2+dfsg1-1*
G04 #@! TF.CreationDate,2019-05-23T19:58:40+03:00*
G04 #@! TF.ProjectId,avrUsb,61767255-7362-42e6-9b69-6361645f7063,rev?*
G04 #@! TF.SameCoordinates,Original*
G04 #@! TF.FileFunction,Legend,Top*
G04 #@! TF.FilePolarity,Positive*
%FSLAX46Y46*%
G04 Gerber Fmt 4.6, Leading zero omitted, Abs format (unit mm)*
G04 Created by KiCad (PCBNEW 5.0.2+dfsg1-1) date Thu 23 May 2019 07:58:40 PM EEST*
%MOMM*%
%LPD*%
G01*
G04 APERTURE LIST*
%ADD10C,0.120000*%
%ADD11C,0.150000*%
%ADD12C,0.127000*%
%ADD13C,0.138988*%
G04 APERTURE END LIST*
D10*
G04 #@! TO.C,C1*
X166897936Y-89910000D02*
X168102064Y-89910000D01*
X166897936Y-88090000D02*
X168102064Y-88090000D01*
G04 #@! TO.C,C2*
X166897936Y-83590000D02*
X168102064Y-83590000D01*
X166897936Y-85410000D02*
X168102064Y-85410000D01*
G04 #@! TO.C,C3*
X193397936Y-84590000D02*
X194602064Y-84590000D01*
X193397936Y-86410000D02*
X194602064Y-86410000D01*
G04 #@! TO.C,C4*
X193397936Y-74410000D02*
X194602064Y-74410000D01*
X193397936Y-72590000D02*
X194602064Y-72590000D01*
G04 #@! TO.C,C5*
X184602064Y-88410000D02*
X183397936Y-88410000D01*
X184602064Y-86590000D02*
X183397936Y-86590000D01*
G04 #@! TO.C,C6*
X181102064Y-93090000D02*
X179897936Y-93090000D01*
X181102064Y-94910000D02*
X179897936Y-94910000D01*
G04 #@! TO.C,J1*
X199170000Y-72770000D02*
X201830000Y-72770000D01*
X199170000Y-72770000D02*
X199170000Y-88070000D01*
X199170000Y-88070000D02*
X201830000Y-88070000D01*
X201830000Y-72770000D02*
X201830000Y-88070000D01*
X201830000Y-70170000D02*
X201830000Y-71500000D01*
X200500000Y-70170000D02*
X201830000Y-70170000D01*
G04 #@! TO.C,J2*
X208830000Y-104730000D02*
X206170000Y-104730000D01*
X208830000Y-104730000D02*
X208830000Y-81810000D01*
X208830000Y-81810000D02*
X206170000Y-81810000D01*
X206170000Y-104730000D02*
X206170000Y-81810000D01*
X206170000Y-107330000D02*
X206170000Y-106000000D01*
X207500000Y-107330000D02*
X206170000Y-107330000D01*
G04 #@! TO.C,J3*
X172500000Y-97670000D02*
X173830000Y-97670000D01*
X173830000Y-97670000D02*
X173830000Y-99000000D01*
X173830000Y-100270000D02*
X173830000Y-123190000D01*
X171170000Y-123190000D02*
X173830000Y-123190000D01*
X171170000Y-100270000D02*
X171170000Y-123190000D01*
X171170000Y-100270000D02*
X173830000Y-100270000D01*
G04 #@! TO.C,R1*
X186590000Y-80602064D02*
X186590000Y-79397936D01*
X188410000Y-80602064D02*
X188410000Y-79397936D01*
G04 #@! TO.C,R2*
X191910000Y-80602064D02*
X191910000Y-79397936D01*
X190090000Y-80602064D02*
X190090000Y-79397936D01*
G04 #@! TO.C,R3*
X200102064Y-91410000D02*
X198897936Y-91410000D01*
X200102064Y-89590000D02*
X198897936Y-89590000D01*
D11*
G04 #@! TO.C,U1*
X186375000Y-90875000D02*
X186375000Y-91100000D01*
X193625000Y-90875000D02*
X193625000Y-91200000D01*
X193625000Y-98125000D02*
X193625000Y-97800000D01*
X186375000Y-98125000D02*
X186375000Y-97800000D01*
X186375000Y-90875000D02*
X186700000Y-90875000D01*
X186375000Y-98125000D02*
X186700000Y-98125000D01*
X193625000Y-98125000D02*
X193300000Y-98125000D01*
X193625000Y-90875000D02*
X193300000Y-90875000D01*
X186375000Y-91100000D02*
X184950000Y-91100000D01*
D12*
G04 #@! TO.C,X1*
X192257300Y-72146600D02*
X191457300Y-72146600D01*
X185542700Y-72146600D02*
X184742700Y-72146600D01*
X192250000Y-67770000D02*
X192250000Y-66500000D01*
X192250000Y-66500000D02*
X184750000Y-66500000D01*
X184750000Y-66500000D02*
X184750000Y-67770000D01*
D10*
G04 #@! TO.C,Y1*
X173475000Y-89685000D02*
X173475000Y-83435000D01*
X178525000Y-89685000D02*
X178525000Y-83435000D01*
X178525000Y-89685000D02*
G75*
G02X173475000Y-89685000I-2525000J0D01*
G01*
X178525000Y-83435000D02*
G75*
G03X173475000Y-83435000I-2525000J0D01*
G01*
G04 #@! TO.C,J4*
X204410000Y-72100000D02*
X204410000Y-72870000D01*
X204410000Y-74450000D02*
X204410000Y-75410000D01*
X204410000Y-76990000D02*
X204410000Y-77950000D01*
X204410000Y-79530000D02*
X204410000Y-80300000D01*
X209710000Y-72100000D02*
X209710000Y-80300000D01*
X210170000Y-72100000D02*
X210170000Y-80300000D01*
X203850000Y-72100000D02*
X203850000Y-72870000D01*
X203850000Y-74450000D02*
X203850000Y-75410000D01*
X203850000Y-76990000D02*
X203850000Y-77950000D01*
X203850000Y-79530000D02*
X203850000Y-80300000D01*
X210170000Y-72100000D02*
X203850000Y-72100000D01*
X210170000Y-80300000D02*
X203850000Y-80300000D01*
X204350000Y-71860000D02*
X203610000Y-71860000D01*
X203610000Y-71860000D02*
X203610000Y-72360000D01*
G04 #@! TO.C,C1*
D11*
X167333333Y-87537142D02*
X167285714Y-87584761D01*
X167142857Y-87632380D01*
X167047619Y-87632380D01*
X166904761Y-87584761D01*
X166809523Y-87489523D01*
X166761904Y-87394285D01*
X166714285Y-87203809D01*
X166714285Y-87060952D01*
X166761904Y-86870476D01*
X166809523Y-86775238D01*
X166904761Y-86680000D01*
X167047619Y-86632380D01*
X167142857Y-86632380D01*
X167285714Y-86680000D01*
X167333333Y-86727619D01*
X168285714Y-87632380D02*
X167714285Y-87632380D01*
X168000000Y-87632380D02*
X168000000Y-86632380D01*
X167904761Y-86775238D01*
X167809523Y-86870476D01*
X167714285Y-86918095D01*
G04 #@! TO.C,C2*
X167333333Y-83037142D02*
X167285714Y-83084761D01*
X167142857Y-83132380D01*
X167047619Y-83132380D01*
X166904761Y-83084761D01*
X166809523Y-82989523D01*
X166761904Y-82894285D01*
X166714285Y-82703809D01*
X166714285Y-82560952D01*
X166761904Y-82370476D01*
X166809523Y-82275238D01*
X166904761Y-82180000D01*
X167047619Y-82132380D01*
X167142857Y-82132380D01*
X167285714Y-82180000D01*
X167333333Y-82227619D01*
X167714285Y-82227619D02*
X167761904Y-82180000D01*
X167857142Y-82132380D01*
X168095238Y-82132380D01*
X168190476Y-82180000D01*
X168238095Y-82227619D01*
X168285714Y-82322857D01*
X168285714Y-82418095D01*
X168238095Y-82560952D01*
X167666666Y-83132380D01*
X168285714Y-83132380D01*
G04 #@! TO.C,C3*
X193833333Y-84037142D02*
X193785714Y-84084761D01*
X193642857Y-84132380D01*
X193547619Y-84132380D01*
X193404761Y-84084761D01*
X193309523Y-83989523D01*
X193261904Y-83894285D01*
X193214285Y-83703809D01*
X193214285Y-83560952D01*
X193261904Y-83370476D01*
X193309523Y-83275238D01*
X193404761Y-83180000D01*
X193547619Y-83132380D01*
X193642857Y-83132380D01*
X193785714Y-83180000D01*
X193833333Y-83227619D01*
X194166666Y-83132380D02*
X194785714Y-83132380D01*
X194452380Y-83513333D01*
X194595238Y-83513333D01*
X194690476Y-83560952D01*
X194738095Y-83608571D01*
X194785714Y-83703809D01*
X194785714Y-83941904D01*
X194738095Y-84037142D01*
X194690476Y-84084761D01*
X194595238Y-84132380D01*
X194309523Y-84132380D01*
X194214285Y-84084761D01*
X194166666Y-84037142D01*
G04 #@! TO.C,C4*
X193833333Y-72037142D02*
X193785714Y-72084761D01*
X193642857Y-72132380D01*
X193547619Y-72132380D01*
X193404761Y-72084761D01*
X193309523Y-71989523D01*
X193261904Y-71894285D01*
X193214285Y-71703809D01*
X193214285Y-71560952D01*
X193261904Y-71370476D01*
X193309523Y-71275238D01*
X193404761Y-71180000D01*
X193547619Y-71132380D01*
X193642857Y-71132380D01*
X193785714Y-71180000D01*
X193833333Y-71227619D01*
X194690476Y-71465714D02*
X194690476Y-72132380D01*
X194452380Y-71084761D02*
X194214285Y-71799047D01*
X194833333Y-71799047D01*
G04 #@! TO.C,C5*
X183833333Y-89677142D02*
X183785714Y-89724761D01*
X183642857Y-89772380D01*
X183547619Y-89772380D01*
X183404761Y-89724761D01*
X183309523Y-89629523D01*
X183261904Y-89534285D01*
X183214285Y-89343809D01*
X183214285Y-89200952D01*
X183261904Y-89010476D01*
X183309523Y-88915238D01*
X183404761Y-88820000D01*
X183547619Y-88772380D01*
X183642857Y-88772380D01*
X183785714Y-88820000D01*
X183833333Y-88867619D01*
X184738095Y-88772380D02*
X184261904Y-88772380D01*
X184214285Y-89248571D01*
X184261904Y-89200952D01*
X184357142Y-89153333D01*
X184595238Y-89153333D01*
X184690476Y-89200952D01*
X184738095Y-89248571D01*
X184785714Y-89343809D01*
X184785714Y-89581904D01*
X184738095Y-89677142D01*
X184690476Y-89724761D01*
X184595238Y-89772380D01*
X184357142Y-89772380D01*
X184261904Y-89724761D01*
X184214285Y-89677142D01*
G04 #@! TO.C,C6*
X180333333Y-96177142D02*
X180285714Y-96224761D01*
X180142857Y-96272380D01*
X180047619Y-96272380D01*
X179904761Y-96224761D01*
X179809523Y-96129523D01*
X179761904Y-96034285D01*
X179714285Y-95843809D01*
X179714285Y-95700952D01*
X179761904Y-95510476D01*
X179809523Y-95415238D01*
X179904761Y-95320000D01*
X180047619Y-95272380D01*
X180142857Y-95272380D01*
X180285714Y-95320000D01*
X180333333Y-95367619D01*
X181190476Y-95272380D02*
X181000000Y-95272380D01*
X180904761Y-95320000D01*
X180857142Y-95367619D01*
X180761904Y-95510476D01*
X180714285Y-95700952D01*
X180714285Y-96081904D01*
X180761904Y-96177142D01*
X180809523Y-96224761D01*
X180904761Y-96272380D01*
X181095238Y-96272380D01*
X181190476Y-96224761D01*
X181238095Y-96177142D01*
X181285714Y-96081904D01*
X181285714Y-95843809D01*
X181238095Y-95748571D01*
X181190476Y-95700952D01*
X181095238Y-95653333D01*
X180904761Y-95653333D01*
X180809523Y-95700952D01*
X180761904Y-95748571D01*
X180714285Y-95843809D01*
G04 #@! TO.C,J1*
X200166666Y-68182380D02*
X200166666Y-68896666D01*
X200119047Y-69039523D01*
X200023809Y-69134761D01*
X199880952Y-69182380D01*
X199785714Y-69182380D01*
X201166666Y-69182380D02*
X200595238Y-69182380D01*
X200880952Y-69182380D02*
X200880952Y-68182380D01*
X200785714Y-68325238D01*
X200690476Y-68420476D01*
X200595238Y-68468095D01*
G04 #@! TO.C,J2*
X207166666Y-108222380D02*
X207166666Y-108936666D01*
X207119047Y-109079523D01*
X207023809Y-109174761D01*
X206880952Y-109222380D01*
X206785714Y-109222380D01*
X207595238Y-108317619D02*
X207642857Y-108270000D01*
X207738095Y-108222380D01*
X207976190Y-108222380D01*
X208071428Y-108270000D01*
X208119047Y-108317619D01*
X208166666Y-108412857D01*
X208166666Y-108508095D01*
X208119047Y-108650952D01*
X207547619Y-109222380D01*
X208166666Y-109222380D01*
G04 #@! TO.C,J3*
X172166666Y-95682380D02*
X172166666Y-96396666D01*
X172119047Y-96539523D01*
X172023809Y-96634761D01*
X171880952Y-96682380D01*
X171785714Y-96682380D01*
X172547619Y-95682380D02*
X173166666Y-95682380D01*
X172833333Y-96063333D01*
X172976190Y-96063333D01*
X173071428Y-96110952D01*
X173119047Y-96158571D01*
X173166666Y-96253809D01*
X173166666Y-96491904D01*
X173119047Y-96587142D01*
X173071428Y-96634761D01*
X172976190Y-96682380D01*
X172690476Y-96682380D01*
X172595238Y-96634761D01*
X172547619Y-96587142D01*
G04 #@! TO.C,R1*
X186132380Y-80166666D02*
X185656190Y-80500000D01*
X186132380Y-80738095D02*
X185132380Y-80738095D01*
X185132380Y-80357142D01*
X185180000Y-80261904D01*
X185227619Y-80214285D01*
X185322857Y-80166666D01*
X185465714Y-80166666D01*
X185560952Y-80214285D01*
X185608571Y-80261904D01*
X185656190Y-80357142D01*
X185656190Y-80738095D01*
X186132380Y-79214285D02*
X186132380Y-79785714D01*
X186132380Y-79500000D02*
X185132380Y-79500000D01*
X185275238Y-79595238D01*
X185370476Y-79690476D01*
X185418095Y-79785714D01*
G04 #@! TO.C,R2*
X189632380Y-80166666D02*
X189156190Y-80500000D01*
X189632380Y-80738095D02*
X188632380Y-80738095D01*
X188632380Y-80357142D01*
X188680000Y-80261904D01*
X188727619Y-80214285D01*
X188822857Y-80166666D01*
X188965714Y-80166666D01*
X189060952Y-80214285D01*
X189108571Y-80261904D01*
X189156190Y-80357142D01*
X189156190Y-80738095D01*
X188727619Y-79785714D02*
X188680000Y-79738095D01*
X188632380Y-79642857D01*
X188632380Y-79404761D01*
X188680000Y-79309523D01*
X188727619Y-79261904D01*
X188822857Y-79214285D01*
X188918095Y-79214285D01*
X189060952Y-79261904D01*
X189632380Y-79833333D01*
X189632380Y-79214285D01*
G04 #@! TO.C,R3*
X199333333Y-92772380D02*
X199000000Y-92296190D01*
X198761904Y-92772380D02*
X198761904Y-91772380D01*
X199142857Y-91772380D01*
X199238095Y-91820000D01*
X199285714Y-91867619D01*
X199333333Y-91962857D01*
X199333333Y-92105714D01*
X199285714Y-92200952D01*
X199238095Y-92248571D01*
X199142857Y-92296190D01*
X198761904Y-92296190D01*
X199666666Y-91772380D02*
X200285714Y-91772380D01*
X199952380Y-92153333D01*
X200095238Y-92153333D01*
X200190476Y-92200952D01*
X200238095Y-92248571D01*
X200285714Y-92343809D01*
X200285714Y-92581904D01*
X200238095Y-92677142D01*
X200190476Y-92724761D01*
X200095238Y-92772380D01*
X199809523Y-92772380D01*
X199714285Y-92724761D01*
X199666666Y-92677142D01*
G04 #@! TO.C,U1*
X189238095Y-87902380D02*
X189238095Y-88711904D01*
X189285714Y-88807142D01*
X189333333Y-88854761D01*
X189428571Y-88902380D01*
X189619047Y-88902380D01*
X189714285Y-88854761D01*
X189761904Y-88807142D01*
X189809523Y-88711904D01*
X189809523Y-87902380D01*
X190809523Y-88902380D02*
X190238095Y-88902380D01*
X190523809Y-88902380D02*
X190523809Y-87902380D01*
X190428571Y-88045238D01*
X190333333Y-88140476D01*
X190238095Y-88188095D01*
G04 #@! TO.C,X1*
D13*
X190843185Y-65221330D02*
X191357958Y-65993490D01*
X191357958Y-65221330D02*
X190843185Y-65993490D01*
X192056579Y-65993490D02*
X191615345Y-65993490D01*
X191835962Y-65993490D02*
X191835962Y-65221330D01*
X191762423Y-65331639D01*
X191688884Y-65405178D01*
X191615345Y-65441947D01*
G04 #@! TO.C,Y1*
D11*
X172451190Y-87036190D02*
X172927380Y-87036190D01*
X171927380Y-87369523D02*
X172451190Y-87036190D01*
X171927380Y-86702857D01*
X172927380Y-85845714D02*
X172927380Y-86417142D01*
X172927380Y-86131428D02*
X171927380Y-86131428D01*
X172070238Y-86226666D01*
X172165476Y-86321904D01*
X172213095Y-86417142D01*
G04 #@! TO.C,J4*
X210622380Y-76533333D02*
X211336666Y-76533333D01*
X211479523Y-76580952D01*
X211574761Y-76676190D01*
X211622380Y-76819047D01*
X211622380Y-76914285D01*
X210955714Y-75628571D02*
X211622380Y-75628571D01*
X210574761Y-75866666D02*
X211289047Y-76104761D01*
X211289047Y-75485714D01*
G04 #@! TD*
M02*
