G04 #@! TF.GenerationSoftware,KiCad,Pcbnew,5.0.2+dfsg1-1*
G04 #@! TF.CreationDate,2019-07-18T08:03:33+03:00*
G04 #@! TF.ProjectId,avrUsb,61767255-7362-42e6-9b69-6361645f7063,rev?*
G04 #@! TF.SameCoordinates,Original*
G04 #@! TF.FileFunction,Copper,L2,Inr*
G04 #@! TF.FilePolarity,Positive*
%FSLAX46Y46*%
G04 Gerber Fmt 4.6, Leading zero omitted, Abs format (unit mm)*
G04 Created by KiCad (PCBNEW 5.0.2+dfsg1-1) date Thu 18 Jul 2019 08:03:33 AM EEST*
%MOMM*%
%LPD*%
G01*
G04 APERTURE LIST*
G04 #@! TA.AperFunction,ViaPad*
%ADD10R,1.700000X1.700000*%
G04 #@! TD*
G04 #@! TA.AperFunction,ViaPad*
%ADD11O,1.700000X1.700000*%
G04 #@! TD*
G04 #@! TA.AperFunction,ViaPad*
%ADD12R,1.016000X1.016000*%
G04 #@! TD*
G04 #@! TA.AperFunction,ViaPad*
%ADD13C,1.500000*%
G04 #@! TD*
G04 #@! TA.AperFunction,ViaPad*
%ADD14R,2.200000X2.200000*%
G04 #@! TD*
G04 #@! TA.AperFunction,ViaPad*
%ADD15C,2.200000*%
G04 #@! TD*
G04 #@! TA.AperFunction,ViaPad*
%ADD16C,0.800000*%
G04 #@! TD*
G04 #@! TA.AperFunction,Conductor*
%ADD17C,0.254000*%
G04 #@! TD*
G04 APERTURE END LIST*
D10*
G04 #@! TO.N,Net-(J1-Pad1)*
G04 #@! TO.C,J1*
X200500000Y-71500000D03*
D11*
G04 #@! TO.N,Net-(J1-Pad2)*
X200500000Y-74040000D03*
G04 #@! TO.N,Net-(J1-Pad3)*
X200500000Y-76580000D03*
G04 #@! TO.N,Net-(J1-Pad4)*
X200500000Y-79120000D03*
G04 #@! TO.N,Net-(J1-Pad5)*
X200500000Y-81660000D03*
G04 #@! TO.N,VCC*
X200500000Y-84200000D03*
G04 #@! TO.N,GND*
X200500000Y-86740000D03*
G04 #@! TD*
D10*
G04 #@! TO.N,Net-(J2-Pad1)*
G04 #@! TO.C,J2*
X207500000Y-106000000D03*
D11*
G04 #@! TO.N,Net-(J2-Pad2)*
X207500000Y-103460000D03*
G04 #@! TO.N,Net-(J2-Pad3)*
X207500000Y-100920000D03*
G04 #@! TO.N,Net-(J2-Pad4)*
X207500000Y-98380000D03*
G04 #@! TO.N,Net-(J2-Pad5)*
X207500000Y-95840000D03*
G04 #@! TO.N,Net-(J2-Pad6)*
X207500000Y-93300000D03*
G04 #@! TO.N,Net-(J2-Pad7)*
X207500000Y-90760000D03*
G04 #@! TO.N,Net-(J2-Pad8)*
X207500000Y-88220000D03*
G04 #@! TO.N,VCC*
X207500000Y-85680000D03*
G04 #@! TO.N,GND*
X207500000Y-83140000D03*
G04 #@! TD*
G04 #@! TO.N,GND*
G04 #@! TO.C,J3*
X172500000Y-121860000D03*
G04 #@! TO.N,VCC*
X172500000Y-119320000D03*
G04 #@! TO.N,Net-(J3-Pad8)*
X172500000Y-116780000D03*
G04 #@! TO.N,Net-(J3-Pad7)*
X172500000Y-114240000D03*
G04 #@! TO.N,Net-(J3-Pad6)*
X172500000Y-111700000D03*
G04 #@! TO.N,Net-(J3-Pad5)*
X172500000Y-109160000D03*
G04 #@! TO.N,Net-(J3-Pad4)*
X172500000Y-106620000D03*
G04 #@! TO.N,Net-(J3-Pad3)*
X172500000Y-104080000D03*
G04 #@! TO.N,Net-(J3-Pad2)*
X172500000Y-101540000D03*
D10*
G04 #@! TO.N,Net-(J3-Pad1)*
X172500000Y-99000000D03*
G04 #@! TD*
D12*
G04 #@! TO.N,GND*
G04 #@! TO.C,X1*
X191274950Y-68200021D03*
X185725050Y-68200021D03*
X190925700Y-71229987D03*
X186074300Y-71229987D03*
G04 #@! TD*
D13*
G04 #@! TO.N,Net-(C1-Pad2)*
G04 #@! TO.C,Y1*
X176000000Y-89000000D03*
G04 #@! TO.N,Net-(C2-Pad2)*
X176000000Y-84120000D03*
G04 #@! TD*
D14*
G04 #@! TO.N,GND*
G04 #@! TO.C,J4*
X207010000Y-73660000D03*
D15*
G04 #@! TO.N,Net-(J4-Pad2)*
X207010000Y-76200000D03*
G04 #@! TO.N,VCC*
X207010000Y-78740000D03*
G04 #@! TD*
D16*
G04 #@! TO.N,GND*
X189000000Y-93500000D03*
X189000000Y-95500000D03*
X191500000Y-95500000D03*
X191500000Y-93500000D03*
X174500000Y-87000000D03*
X171000000Y-87000000D03*
X161500000Y-87000000D03*
X185500000Y-90000000D03*
X180000000Y-88000000D03*
X170000000Y-100500000D03*
X170000000Y-107500000D03*
X170000000Y-116500000D03*
X170000000Y-110000000D03*
X170000000Y-121000000D03*
X210000000Y-105000000D03*
X210500000Y-97000000D03*
X209500000Y-89000000D03*
X210000000Y-84500000D03*
X209500000Y-81000000D03*
X195000000Y-71500000D03*
X183000000Y-72000000D03*
X182500000Y-84500000D03*
X176500000Y-94000000D03*
X173500000Y-93000000D03*
X172000000Y-94500000D03*
X175000000Y-95500000D03*
X185000000Y-84500000D03*
X185000000Y-82000000D03*
X185000000Y-78500000D03*
X185000000Y-75500000D03*
X185000000Y-74500000D03*
X194000000Y-76500000D03*
X192500000Y-76500000D03*
X193000000Y-78500000D03*
X193000000Y-81000000D03*
X193000000Y-83000000D03*
X196000000Y-83000000D03*
X192000000Y-108000000D03*
X195500000Y-108000000D03*
X198000000Y-110000000D03*
X196000000Y-114000000D03*
X192500000Y-114500000D03*
X191000000Y-112500000D03*
X198000000Y-89000000D03*
X203500000Y-93500000D03*
X205000000Y-92000000D03*
X205000000Y-94500000D03*
X196500000Y-100500000D03*
X199000000Y-100500000D03*
X202500000Y-100000000D03*
X204500000Y-101500000D03*
X202500000Y-102000000D03*
X199500000Y-102000000D03*
X198000000Y-104500000D03*
X202500000Y-105000000D03*
X201000000Y-104500000D03*
X204000000Y-104500000D03*
X176500000Y-100000000D03*
X175000000Y-102500000D03*
X175500000Y-105500000D03*
X178500000Y-103000000D03*
X175500000Y-107500000D03*
X175000000Y-110500000D03*
X175000000Y-113000000D03*
X181000000Y-112500000D03*
X185500000Y-109000000D03*
X188000000Y-105000000D03*
X190000000Y-105000000D03*
X186000000Y-110000000D03*
X185000000Y-114500000D03*
X205000000Y-86500000D03*
X203500000Y-82500000D03*
X203500000Y-87500000D03*
X204500000Y-89500000D03*
X203200000Y-83820000D03*
X204470000Y-87630000D03*
X210820000Y-92710000D03*
X203200000Y-80010000D03*
X203200000Y-74930000D03*
X196850000Y-78740000D03*
X209550000Y-76200000D03*
X204470000Y-71120000D03*
X196850000Y-69850000D03*
X203200000Y-77470000D03*
X184150000Y-100330000D03*
G04 #@! TO.N,VCC*
X190500000Y-73500000D03*
X188000000Y-89000000D03*
X184000000Y-94000000D03*
X202000000Y-90500000D03*
G04 #@! TO.N,Net-(J1-Pad1)*
X186690000Y-101600000D03*
G04 #@! TO.N,Net-(J1-Pad2)*
X187960000Y-101600000D03*
G04 #@! TO.N,Net-(J1-Pad3)*
X189230000Y-101600000D03*
G04 #@! TO.N,Net-(J1-Pad4)*
X190500000Y-101600000D03*
G04 #@! TO.N,Net-(J1-Pad5)*
X191770000Y-101600000D03*
G04 #@! TO.N,Net-(J3-Pad5)*
X201930000Y-92710000D03*
G04 #@! TO.N,Net-(J3-Pad4)*
X197910000Y-92500000D03*
G04 #@! TO.N,Net-(J3-Pad3)*
X198120000Y-69850000D03*
G04 #@! TO.N,Net-(J3-Pad2)*
X196305406Y-70688702D03*
G04 #@! TO.N,Net-(R2-Pad2)*
X187960000Y-74930000D03*
X189230000Y-76200000D03*
G04 #@! TD*
D17*
G04 #@! TO.N,GND*
G36*
X209837017Y-72027411D02*
X211785566Y-92487184D01*
X209349610Y-111000458D01*
X186777179Y-120323855D01*
X171296775Y-124193956D01*
X169884586Y-122216890D01*
X171058524Y-122216890D01*
X171228355Y-122626924D01*
X171618642Y-123055183D01*
X172143108Y-123301486D01*
X172373000Y-123180819D01*
X172373000Y-121987000D01*
X172627000Y-121987000D01*
X172627000Y-123180819D01*
X172856892Y-123301486D01*
X173381358Y-123055183D01*
X173771645Y-122626924D01*
X173941476Y-122216890D01*
X173820155Y-121987000D01*
X172627000Y-121987000D01*
X172373000Y-121987000D01*
X171179845Y-121987000D01*
X171058524Y-122216890D01*
X169884586Y-122216890D01*
X164178380Y-114228202D01*
X162365780Y-101540000D01*
X170985908Y-101540000D01*
X171101161Y-102119418D01*
X171429375Y-102610625D01*
X171727761Y-102810000D01*
X171429375Y-103009375D01*
X171101161Y-103500582D01*
X170985908Y-104080000D01*
X171101161Y-104659418D01*
X171429375Y-105150625D01*
X171727761Y-105350000D01*
X171429375Y-105549375D01*
X171101161Y-106040582D01*
X170985908Y-106620000D01*
X171101161Y-107199418D01*
X171429375Y-107690625D01*
X171727761Y-107890000D01*
X171429375Y-108089375D01*
X171101161Y-108580582D01*
X170985908Y-109160000D01*
X171101161Y-109739418D01*
X171429375Y-110230625D01*
X171727761Y-110430000D01*
X171429375Y-110629375D01*
X171101161Y-111120582D01*
X170985908Y-111700000D01*
X171101161Y-112279418D01*
X171429375Y-112770625D01*
X171727761Y-112970000D01*
X171429375Y-113169375D01*
X171101161Y-113660582D01*
X170985908Y-114240000D01*
X171101161Y-114819418D01*
X171429375Y-115310625D01*
X171727761Y-115510000D01*
X171429375Y-115709375D01*
X171101161Y-116200582D01*
X170985908Y-116780000D01*
X171101161Y-117359418D01*
X171429375Y-117850625D01*
X171727761Y-118050000D01*
X171429375Y-118249375D01*
X171101161Y-118740582D01*
X170985908Y-119320000D01*
X171101161Y-119899418D01*
X171429375Y-120390625D01*
X171748478Y-120603843D01*
X171618642Y-120664817D01*
X171228355Y-121093076D01*
X171058524Y-121503110D01*
X171179845Y-121733000D01*
X172373000Y-121733000D01*
X172373000Y-121713000D01*
X172627000Y-121713000D01*
X172627000Y-121733000D01*
X173820155Y-121733000D01*
X173941476Y-121503110D01*
X173771645Y-121093076D01*
X173381358Y-120664817D01*
X173251522Y-120603843D01*
X173570625Y-120390625D01*
X173898839Y-119899418D01*
X174014092Y-119320000D01*
X173898839Y-118740582D01*
X173570625Y-118249375D01*
X173272239Y-118050000D01*
X173570625Y-117850625D01*
X173898839Y-117359418D01*
X174014092Y-116780000D01*
X173898839Y-116200582D01*
X173570625Y-115709375D01*
X173272239Y-115510000D01*
X173570625Y-115310625D01*
X173898839Y-114819418D01*
X174014092Y-114240000D01*
X173898839Y-113660582D01*
X173570625Y-113169375D01*
X173272239Y-112970000D01*
X173570625Y-112770625D01*
X173898839Y-112279418D01*
X174014092Y-111700000D01*
X173898839Y-111120582D01*
X173570625Y-110629375D01*
X173272239Y-110430000D01*
X173570625Y-110230625D01*
X173898839Y-109739418D01*
X174014092Y-109160000D01*
X173898839Y-108580582D01*
X173570625Y-108089375D01*
X173272239Y-107890000D01*
X173570625Y-107690625D01*
X173898839Y-107199418D01*
X174014092Y-106620000D01*
X173898839Y-106040582D01*
X173570625Y-105549375D01*
X173272239Y-105350000D01*
X173570625Y-105150625D01*
X173898839Y-104659418D01*
X174014092Y-104080000D01*
X173898839Y-103500582D01*
X173570625Y-103009375D01*
X173272239Y-102810000D01*
X173570625Y-102610625D01*
X173898839Y-102119418D01*
X174014092Y-101540000D01*
X173985076Y-101394126D01*
X185655000Y-101394126D01*
X185655000Y-101805874D01*
X185812569Y-102186280D01*
X186103720Y-102477431D01*
X186484126Y-102635000D01*
X186895874Y-102635000D01*
X187276280Y-102477431D01*
X187325000Y-102428711D01*
X187373720Y-102477431D01*
X187754126Y-102635000D01*
X188165874Y-102635000D01*
X188546280Y-102477431D01*
X188595000Y-102428711D01*
X188643720Y-102477431D01*
X189024126Y-102635000D01*
X189435874Y-102635000D01*
X189816280Y-102477431D01*
X189865000Y-102428711D01*
X189913720Y-102477431D01*
X190294126Y-102635000D01*
X190705874Y-102635000D01*
X191086280Y-102477431D01*
X191135000Y-102428711D01*
X191183720Y-102477431D01*
X191564126Y-102635000D01*
X191975874Y-102635000D01*
X192356280Y-102477431D01*
X192647431Y-102186280D01*
X192805000Y-101805874D01*
X192805000Y-101394126D01*
X192647431Y-101013720D01*
X192356280Y-100722569D01*
X191975874Y-100565000D01*
X191564126Y-100565000D01*
X191183720Y-100722569D01*
X191135000Y-100771289D01*
X191086280Y-100722569D01*
X190705874Y-100565000D01*
X190294126Y-100565000D01*
X189913720Y-100722569D01*
X189865000Y-100771289D01*
X189816280Y-100722569D01*
X189435874Y-100565000D01*
X189024126Y-100565000D01*
X188643720Y-100722569D01*
X188595000Y-100771289D01*
X188546280Y-100722569D01*
X188165874Y-100565000D01*
X187754126Y-100565000D01*
X187373720Y-100722569D01*
X187325000Y-100771289D01*
X187276280Y-100722569D01*
X186895874Y-100565000D01*
X186484126Y-100565000D01*
X186103720Y-100722569D01*
X185812569Y-101013720D01*
X185655000Y-101394126D01*
X173985076Y-101394126D01*
X173898839Y-100960582D01*
X173570625Y-100469375D01*
X173552381Y-100457184D01*
X173597765Y-100448157D01*
X173807809Y-100307809D01*
X173948157Y-100097765D01*
X173997440Y-99850000D01*
X173997440Y-98150000D01*
X173948157Y-97902235D01*
X173807809Y-97692191D01*
X173597765Y-97551843D01*
X173350000Y-97502560D01*
X171650000Y-97502560D01*
X171402235Y-97551843D01*
X171192191Y-97692191D01*
X171051843Y-97902235D01*
X171002560Y-98150000D01*
X171002560Y-99850000D01*
X171051843Y-100097765D01*
X171192191Y-100307809D01*
X171402235Y-100448157D01*
X171447619Y-100457184D01*
X171429375Y-100469375D01*
X171101161Y-100960582D01*
X170985908Y-101540000D01*
X162365780Y-101540000D01*
X161259227Y-93794126D01*
X182965000Y-93794126D01*
X182965000Y-94205874D01*
X183122569Y-94586280D01*
X183413720Y-94877431D01*
X183794126Y-95035000D01*
X184205874Y-95035000D01*
X184586280Y-94877431D01*
X184877431Y-94586280D01*
X185035000Y-94205874D01*
X185035000Y-93794126D01*
X184877431Y-93413720D01*
X184586280Y-93122569D01*
X184205874Y-92965000D01*
X183794126Y-92965000D01*
X183413720Y-93122569D01*
X183122569Y-93413720D01*
X182965000Y-93794126D01*
X161259227Y-93794126D01*
X161044942Y-92294126D01*
X196875000Y-92294126D01*
X196875000Y-92705874D01*
X197032569Y-93086280D01*
X197323720Y-93377431D01*
X197704126Y-93535000D01*
X198115874Y-93535000D01*
X198496280Y-93377431D01*
X198787431Y-93086280D01*
X198945000Y-92705874D01*
X198945000Y-92504126D01*
X200895000Y-92504126D01*
X200895000Y-92915874D01*
X201052569Y-93296280D01*
X201343720Y-93587431D01*
X201724126Y-93745000D01*
X202135874Y-93745000D01*
X202516280Y-93587431D01*
X202807431Y-93296280D01*
X202965000Y-92915874D01*
X202965000Y-92504126D01*
X202807431Y-92123720D01*
X202516280Y-91832569D01*
X202135874Y-91675000D01*
X201724126Y-91675000D01*
X201343720Y-91832569D01*
X201052569Y-92123720D01*
X200895000Y-92504126D01*
X198945000Y-92504126D01*
X198945000Y-92294126D01*
X198787431Y-91913720D01*
X198496280Y-91622569D01*
X198115874Y-91465000D01*
X197704126Y-91465000D01*
X197323720Y-91622569D01*
X197032569Y-91913720D01*
X196875000Y-92294126D01*
X161044942Y-92294126D01*
X160534995Y-88724506D01*
X174615000Y-88724506D01*
X174615000Y-89275494D01*
X174825853Y-89784540D01*
X175215460Y-90174147D01*
X175724506Y-90385000D01*
X176275494Y-90385000D01*
X176494884Y-90294126D01*
X200965000Y-90294126D01*
X200965000Y-90705874D01*
X201122569Y-91086280D01*
X201413720Y-91377431D01*
X201794126Y-91535000D01*
X202205874Y-91535000D01*
X202586280Y-91377431D01*
X202877431Y-91086280D01*
X203035000Y-90705874D01*
X203035000Y-90294126D01*
X202877431Y-89913720D01*
X202586280Y-89622569D01*
X202205874Y-89465000D01*
X201794126Y-89465000D01*
X201413720Y-89622569D01*
X201122569Y-89913720D01*
X200965000Y-90294126D01*
X176494884Y-90294126D01*
X176784540Y-90174147D01*
X177174147Y-89784540D01*
X177385000Y-89275494D01*
X177385000Y-88794126D01*
X186965000Y-88794126D01*
X186965000Y-89205874D01*
X187122569Y-89586280D01*
X187413720Y-89877431D01*
X187794126Y-90035000D01*
X188205874Y-90035000D01*
X188586280Y-89877431D01*
X188877431Y-89586280D01*
X189035000Y-89205874D01*
X189035000Y-88794126D01*
X188877431Y-88413720D01*
X188586280Y-88122569D01*
X188205874Y-87965000D01*
X187794126Y-87965000D01*
X187413720Y-88122569D01*
X187122569Y-88413720D01*
X186965000Y-88794126D01*
X177385000Y-88794126D01*
X177385000Y-88724506D01*
X177174147Y-88215460D01*
X176784540Y-87825853D01*
X176275494Y-87615000D01*
X175724506Y-87615000D01*
X175215460Y-87825853D01*
X174825853Y-88215460D01*
X174615000Y-88724506D01*
X160534995Y-88724506D01*
X160302478Y-87096890D01*
X199058524Y-87096890D01*
X199228355Y-87506924D01*
X199618642Y-87935183D01*
X200143108Y-88181486D01*
X200373000Y-88060819D01*
X200373000Y-86867000D01*
X200627000Y-86867000D01*
X200627000Y-88060819D01*
X200856892Y-88181486D01*
X201381358Y-87935183D01*
X201771645Y-87506924D01*
X201941476Y-87096890D01*
X201820155Y-86867000D01*
X200627000Y-86867000D01*
X200373000Y-86867000D01*
X199179845Y-86867000D01*
X199058524Y-87096890D01*
X160302478Y-87096890D01*
X160258095Y-86786211D01*
X163702042Y-83844506D01*
X174615000Y-83844506D01*
X174615000Y-84395494D01*
X174825853Y-84904540D01*
X175215460Y-85294147D01*
X175724506Y-85505000D01*
X176275494Y-85505000D01*
X176784540Y-85294147D01*
X177174147Y-84904540D01*
X177385000Y-84395494D01*
X177385000Y-83844506D01*
X177174147Y-83335460D01*
X176784540Y-82945853D01*
X176275494Y-82735000D01*
X175724506Y-82735000D01*
X175215460Y-82945853D01*
X174825853Y-83335460D01*
X174615000Y-83844506D01*
X163702042Y-83844506D01*
X174379560Y-74724126D01*
X186925000Y-74724126D01*
X186925000Y-75135874D01*
X187082569Y-75516280D01*
X187373720Y-75807431D01*
X187754126Y-75965000D01*
X188165874Y-75965000D01*
X188215595Y-75944405D01*
X188195000Y-75994126D01*
X188195000Y-76405874D01*
X188352569Y-76786280D01*
X188643720Y-77077431D01*
X189024126Y-77235000D01*
X189435874Y-77235000D01*
X189816280Y-77077431D01*
X190107431Y-76786280D01*
X190265000Y-76405874D01*
X190265000Y-75994126D01*
X190107431Y-75613720D01*
X189816280Y-75322569D01*
X189435874Y-75165000D01*
X189024126Y-75165000D01*
X188974405Y-75185595D01*
X188995000Y-75135874D01*
X188995000Y-74724126D01*
X188837431Y-74343720D01*
X188546280Y-74052569D01*
X188165874Y-73895000D01*
X187754126Y-73895000D01*
X187373720Y-74052569D01*
X187082569Y-74343720D01*
X186925000Y-74724126D01*
X174379560Y-74724126D01*
X176053706Y-73294126D01*
X189465000Y-73294126D01*
X189465000Y-73705874D01*
X189622569Y-74086280D01*
X189913720Y-74377431D01*
X190294126Y-74535000D01*
X190705874Y-74535000D01*
X191086280Y-74377431D01*
X191377431Y-74086280D01*
X191396600Y-74040000D01*
X198985908Y-74040000D01*
X199101161Y-74619418D01*
X199429375Y-75110625D01*
X199727761Y-75310000D01*
X199429375Y-75509375D01*
X199101161Y-76000582D01*
X198985908Y-76580000D01*
X199101161Y-77159418D01*
X199429375Y-77650625D01*
X199727761Y-77850000D01*
X199429375Y-78049375D01*
X199101161Y-78540582D01*
X198985908Y-79120000D01*
X199101161Y-79699418D01*
X199429375Y-80190625D01*
X199727761Y-80390000D01*
X199429375Y-80589375D01*
X199101161Y-81080582D01*
X198985908Y-81660000D01*
X199101161Y-82239418D01*
X199429375Y-82730625D01*
X199727761Y-82930000D01*
X199429375Y-83129375D01*
X199101161Y-83620582D01*
X198985908Y-84200000D01*
X199101161Y-84779418D01*
X199429375Y-85270625D01*
X199748478Y-85483843D01*
X199618642Y-85544817D01*
X199228355Y-85973076D01*
X199058524Y-86383110D01*
X199179845Y-86613000D01*
X200373000Y-86613000D01*
X200373000Y-86593000D01*
X200627000Y-86593000D01*
X200627000Y-86613000D01*
X201820155Y-86613000D01*
X201941476Y-86383110D01*
X201771645Y-85973076D01*
X201504555Y-85680000D01*
X205985908Y-85680000D01*
X206101161Y-86259418D01*
X206429375Y-86750625D01*
X206727761Y-86950000D01*
X206429375Y-87149375D01*
X206101161Y-87640582D01*
X205985908Y-88220000D01*
X206101161Y-88799418D01*
X206429375Y-89290625D01*
X206727761Y-89490000D01*
X206429375Y-89689375D01*
X206101161Y-90180582D01*
X205985908Y-90760000D01*
X206101161Y-91339418D01*
X206429375Y-91830625D01*
X206727761Y-92030000D01*
X206429375Y-92229375D01*
X206101161Y-92720582D01*
X205985908Y-93300000D01*
X206101161Y-93879418D01*
X206429375Y-94370625D01*
X206727761Y-94570000D01*
X206429375Y-94769375D01*
X206101161Y-95260582D01*
X205985908Y-95840000D01*
X206101161Y-96419418D01*
X206429375Y-96910625D01*
X206727761Y-97110000D01*
X206429375Y-97309375D01*
X206101161Y-97800582D01*
X205985908Y-98380000D01*
X206101161Y-98959418D01*
X206429375Y-99450625D01*
X206727761Y-99650000D01*
X206429375Y-99849375D01*
X206101161Y-100340582D01*
X205985908Y-100920000D01*
X206101161Y-101499418D01*
X206429375Y-101990625D01*
X206727761Y-102190000D01*
X206429375Y-102389375D01*
X206101161Y-102880582D01*
X205985908Y-103460000D01*
X206101161Y-104039418D01*
X206429375Y-104530625D01*
X206447619Y-104542816D01*
X206402235Y-104551843D01*
X206192191Y-104692191D01*
X206051843Y-104902235D01*
X206002560Y-105150000D01*
X206002560Y-106850000D01*
X206051843Y-107097765D01*
X206192191Y-107307809D01*
X206402235Y-107448157D01*
X206650000Y-107497440D01*
X208350000Y-107497440D01*
X208597765Y-107448157D01*
X208807809Y-107307809D01*
X208948157Y-107097765D01*
X208997440Y-106850000D01*
X208997440Y-105150000D01*
X208948157Y-104902235D01*
X208807809Y-104692191D01*
X208597765Y-104551843D01*
X208552381Y-104542816D01*
X208570625Y-104530625D01*
X208898839Y-104039418D01*
X209014092Y-103460000D01*
X208898839Y-102880582D01*
X208570625Y-102389375D01*
X208272239Y-102190000D01*
X208570625Y-101990625D01*
X208898839Y-101499418D01*
X209014092Y-100920000D01*
X208898839Y-100340582D01*
X208570625Y-99849375D01*
X208272239Y-99650000D01*
X208570625Y-99450625D01*
X208898839Y-98959418D01*
X209014092Y-98380000D01*
X208898839Y-97800582D01*
X208570625Y-97309375D01*
X208272239Y-97110000D01*
X208570625Y-96910625D01*
X208898839Y-96419418D01*
X209014092Y-95840000D01*
X208898839Y-95260582D01*
X208570625Y-94769375D01*
X208272239Y-94570000D01*
X208570625Y-94370625D01*
X208898839Y-93879418D01*
X209014092Y-93300000D01*
X208898839Y-92720582D01*
X208570625Y-92229375D01*
X208272239Y-92030000D01*
X208570625Y-91830625D01*
X208898839Y-91339418D01*
X209014092Y-90760000D01*
X208898839Y-90180582D01*
X208570625Y-89689375D01*
X208272239Y-89490000D01*
X208570625Y-89290625D01*
X208898839Y-88799418D01*
X209014092Y-88220000D01*
X208898839Y-87640582D01*
X208570625Y-87149375D01*
X208272239Y-86950000D01*
X208570625Y-86750625D01*
X208898839Y-86259418D01*
X209014092Y-85680000D01*
X208898839Y-85100582D01*
X208570625Y-84609375D01*
X208251522Y-84396157D01*
X208381358Y-84335183D01*
X208771645Y-83906924D01*
X208941476Y-83496890D01*
X208820155Y-83267000D01*
X207627000Y-83267000D01*
X207627000Y-83287000D01*
X207373000Y-83287000D01*
X207373000Y-83267000D01*
X206179845Y-83267000D01*
X206058524Y-83496890D01*
X206228355Y-83906924D01*
X206618642Y-84335183D01*
X206748478Y-84396157D01*
X206429375Y-84609375D01*
X206101161Y-85100582D01*
X205985908Y-85680000D01*
X201504555Y-85680000D01*
X201381358Y-85544817D01*
X201251522Y-85483843D01*
X201570625Y-85270625D01*
X201898839Y-84779418D01*
X202014092Y-84200000D01*
X201898839Y-83620582D01*
X201570625Y-83129375D01*
X201272239Y-82930000D01*
X201492075Y-82783110D01*
X206058524Y-82783110D01*
X206179845Y-83013000D01*
X207373000Y-83013000D01*
X207373000Y-81819181D01*
X207627000Y-81819181D01*
X207627000Y-83013000D01*
X208820155Y-83013000D01*
X208941476Y-82783110D01*
X208771645Y-82373076D01*
X208381358Y-81944817D01*
X207856892Y-81698514D01*
X207627000Y-81819181D01*
X207373000Y-81819181D01*
X207143108Y-81698514D01*
X206618642Y-81944817D01*
X206228355Y-82373076D01*
X206058524Y-82783110D01*
X201492075Y-82783110D01*
X201570625Y-82730625D01*
X201898839Y-82239418D01*
X202014092Y-81660000D01*
X201898839Y-81080582D01*
X201570625Y-80589375D01*
X201272239Y-80390000D01*
X201570625Y-80190625D01*
X201898839Y-79699418D01*
X202014092Y-79120000D01*
X201898839Y-78540582D01*
X201570625Y-78049375D01*
X201272239Y-77850000D01*
X201570625Y-77650625D01*
X201898839Y-77159418D01*
X202014092Y-76580000D01*
X201898839Y-76000582D01*
X201570625Y-75509375D01*
X201272239Y-75310000D01*
X201570625Y-75110625D01*
X201898839Y-74619418D01*
X202014092Y-74040000D01*
X201898839Y-73460582D01*
X201874589Y-73424289D01*
X203285000Y-73424289D01*
X203285000Y-73895711D01*
X203465405Y-74331249D01*
X203798751Y-74664595D01*
X204234289Y-74845000D01*
X204705711Y-74845000D01*
X205141249Y-74664595D01*
X205275000Y-74530844D01*
X205275000Y-74886309D01*
X205371673Y-75119698D01*
X205518646Y-75266672D01*
X205428983Y-75483139D01*
X205141249Y-75195405D01*
X204705711Y-75015000D01*
X204234289Y-75015000D01*
X203798751Y-75195405D01*
X203465405Y-75528751D01*
X203285000Y-75964289D01*
X203285000Y-76435711D01*
X203465405Y-76871249D01*
X203798751Y-77204595D01*
X204234289Y-77385000D01*
X204705711Y-77385000D01*
X205141249Y-77204595D01*
X205428983Y-76916861D01*
X205539138Y-77182799D01*
X205826339Y-77470000D01*
X205539138Y-77757201D01*
X205428983Y-78023139D01*
X205141249Y-77735405D01*
X204705711Y-77555000D01*
X204234289Y-77555000D01*
X203798751Y-77735405D01*
X203465405Y-78068751D01*
X203285000Y-78504289D01*
X203285000Y-78975711D01*
X203465405Y-79411249D01*
X203798751Y-79744595D01*
X204234289Y-79925000D01*
X204705711Y-79925000D01*
X205141249Y-79744595D01*
X205428983Y-79456861D01*
X205539138Y-79722799D01*
X206027201Y-80210862D01*
X206664887Y-80475000D01*
X207355113Y-80475000D01*
X207992799Y-80210862D01*
X208480862Y-79722799D01*
X208745000Y-79085113D01*
X208745000Y-78394887D01*
X208480862Y-77757201D01*
X208193661Y-77470000D01*
X208480862Y-77182799D01*
X208745000Y-76545113D01*
X208745000Y-75854887D01*
X208501354Y-75266672D01*
X208648327Y-75119698D01*
X208745000Y-74886309D01*
X208745000Y-73945750D01*
X208586250Y-73787000D01*
X207137000Y-73787000D01*
X207137000Y-73807000D01*
X206883000Y-73807000D01*
X206883000Y-73787000D01*
X206863000Y-73787000D01*
X206863000Y-73533000D01*
X206883000Y-73533000D01*
X206883000Y-72083750D01*
X207137000Y-72083750D01*
X207137000Y-73533000D01*
X208586250Y-73533000D01*
X208745000Y-73374250D01*
X208745000Y-72433691D01*
X208648327Y-72200302D01*
X208469699Y-72021673D01*
X208236310Y-71925000D01*
X207295750Y-71925000D01*
X207137000Y-72083750D01*
X206883000Y-72083750D01*
X206724250Y-71925000D01*
X205783690Y-71925000D01*
X205550301Y-72021673D01*
X205371673Y-72200302D01*
X205275000Y-72433691D01*
X205275000Y-72789156D01*
X205141249Y-72655405D01*
X204705711Y-72475000D01*
X204234289Y-72475000D01*
X203798751Y-72655405D01*
X203465405Y-72988751D01*
X203285000Y-73424289D01*
X201874589Y-73424289D01*
X201570625Y-72969375D01*
X201552381Y-72957184D01*
X201597765Y-72948157D01*
X201807809Y-72807809D01*
X201948157Y-72597765D01*
X201997440Y-72350000D01*
X201997440Y-70650000D01*
X201948157Y-70402235D01*
X201807809Y-70192191D01*
X201597765Y-70051843D01*
X201350000Y-70002560D01*
X199650000Y-70002560D01*
X199402235Y-70051843D01*
X199192191Y-70192191D01*
X199051843Y-70402235D01*
X199002560Y-70650000D01*
X199002560Y-72350000D01*
X199051843Y-72597765D01*
X199192191Y-72807809D01*
X199402235Y-72948157D01*
X199447619Y-72957184D01*
X199429375Y-72969375D01*
X199101161Y-73460582D01*
X198985908Y-74040000D01*
X191396600Y-74040000D01*
X191535000Y-73705874D01*
X191535000Y-73294126D01*
X191377431Y-72913720D01*
X191086280Y-72622569D01*
X190705874Y-72465000D01*
X190294126Y-72465000D01*
X189913720Y-72622569D01*
X189622569Y-72913720D01*
X189465000Y-73294126D01*
X176053706Y-73294126D01*
X178135723Y-71515737D01*
X184931300Y-71515737D01*
X184931300Y-71864297D01*
X185027973Y-72097686D01*
X185206602Y-72276314D01*
X185439991Y-72372987D01*
X185788550Y-72372987D01*
X185947300Y-72214237D01*
X185947300Y-71356987D01*
X186201300Y-71356987D01*
X186201300Y-72214237D01*
X186360050Y-72372987D01*
X186708609Y-72372987D01*
X186941998Y-72276314D01*
X187120627Y-72097686D01*
X187217300Y-71864297D01*
X187217300Y-71515737D01*
X189782700Y-71515737D01*
X189782700Y-71864297D01*
X189879373Y-72097686D01*
X190058002Y-72276314D01*
X190291391Y-72372987D01*
X190639950Y-72372987D01*
X190798700Y-72214237D01*
X190798700Y-71356987D01*
X191052700Y-71356987D01*
X191052700Y-72214237D01*
X191211450Y-72372987D01*
X191560009Y-72372987D01*
X191793398Y-72276314D01*
X191972027Y-72097686D01*
X192068700Y-71864297D01*
X192068700Y-71515737D01*
X191909950Y-71356987D01*
X191052700Y-71356987D01*
X190798700Y-71356987D01*
X189941450Y-71356987D01*
X189782700Y-71515737D01*
X187217300Y-71515737D01*
X187058550Y-71356987D01*
X186201300Y-71356987D01*
X185947300Y-71356987D01*
X185090050Y-71356987D01*
X184931300Y-71515737D01*
X178135723Y-71515737D01*
X179212866Y-70595677D01*
X184931300Y-70595677D01*
X184931300Y-70944237D01*
X185090050Y-71102987D01*
X185947300Y-71102987D01*
X185947300Y-70245737D01*
X186201300Y-70245737D01*
X186201300Y-71102987D01*
X187058550Y-71102987D01*
X187217300Y-70944237D01*
X187217300Y-70595677D01*
X189782700Y-70595677D01*
X189782700Y-70944237D01*
X189941450Y-71102987D01*
X190798700Y-71102987D01*
X190798700Y-70245737D01*
X191052700Y-70245737D01*
X191052700Y-71102987D01*
X191909950Y-71102987D01*
X192068700Y-70944237D01*
X192068700Y-70595677D01*
X192021957Y-70482828D01*
X195270406Y-70482828D01*
X195270406Y-70894576D01*
X195427975Y-71274982D01*
X195719126Y-71566133D01*
X196099532Y-71723702D01*
X196511280Y-71723702D01*
X196891686Y-71566133D01*
X197182837Y-71274982D01*
X197340406Y-70894576D01*
X197340406Y-70534117D01*
X197533720Y-70727431D01*
X197914126Y-70885000D01*
X198325874Y-70885000D01*
X198706280Y-70727431D01*
X198997431Y-70436280D01*
X199155000Y-70055874D01*
X199155000Y-69644126D01*
X198997431Y-69263720D01*
X198706280Y-68972569D01*
X198325874Y-68815000D01*
X197914126Y-68815000D01*
X197533720Y-68972569D01*
X197242569Y-69263720D01*
X197085000Y-69644126D01*
X197085000Y-70004585D01*
X196891686Y-69811271D01*
X196511280Y-69653702D01*
X196099532Y-69653702D01*
X195719126Y-69811271D01*
X195427975Y-70102422D01*
X195270406Y-70482828D01*
X192021957Y-70482828D01*
X191972027Y-70362288D01*
X191793398Y-70183660D01*
X191560009Y-70086987D01*
X191211450Y-70086987D01*
X191052700Y-70245737D01*
X190798700Y-70245737D01*
X190639950Y-70086987D01*
X190291391Y-70086987D01*
X190058002Y-70183660D01*
X189879373Y-70362288D01*
X189782700Y-70595677D01*
X187217300Y-70595677D01*
X187120627Y-70362288D01*
X186941998Y-70183660D01*
X186708609Y-70086987D01*
X186360050Y-70086987D01*
X186201300Y-70245737D01*
X185947300Y-70245737D01*
X185788550Y-70086987D01*
X185439991Y-70086987D01*
X185206602Y-70183660D01*
X185027973Y-70362288D01*
X184931300Y-70595677D01*
X179212866Y-70595677D01*
X181683001Y-68485771D01*
X184582050Y-68485771D01*
X184582050Y-68834331D01*
X184678723Y-69067720D01*
X184857352Y-69246348D01*
X185090741Y-69343021D01*
X185439300Y-69343021D01*
X185598050Y-69184271D01*
X185598050Y-68327021D01*
X185852050Y-68327021D01*
X185852050Y-69184271D01*
X186010800Y-69343021D01*
X186359359Y-69343021D01*
X186592748Y-69246348D01*
X186771377Y-69067720D01*
X186868050Y-68834331D01*
X186868050Y-68485771D01*
X190131950Y-68485771D01*
X190131950Y-68834331D01*
X190228623Y-69067720D01*
X190407252Y-69246348D01*
X190640641Y-69343021D01*
X190989200Y-69343021D01*
X191147950Y-69184271D01*
X191147950Y-68327021D01*
X191401950Y-68327021D01*
X191401950Y-69184271D01*
X191560700Y-69343021D01*
X191909259Y-69343021D01*
X192142648Y-69246348D01*
X192321277Y-69067720D01*
X192417950Y-68834331D01*
X192417950Y-68485771D01*
X192259200Y-68327021D01*
X191401950Y-68327021D01*
X191147950Y-68327021D01*
X190290700Y-68327021D01*
X190131950Y-68485771D01*
X186868050Y-68485771D01*
X186709300Y-68327021D01*
X185852050Y-68327021D01*
X185598050Y-68327021D01*
X184740800Y-68327021D01*
X184582050Y-68485771D01*
X181683001Y-68485771D01*
X182760144Y-67565711D01*
X184582050Y-67565711D01*
X184582050Y-67914271D01*
X184740800Y-68073021D01*
X185598050Y-68073021D01*
X185598050Y-67215771D01*
X185852050Y-67215771D01*
X185852050Y-68073021D01*
X186709300Y-68073021D01*
X186868050Y-67914271D01*
X186868050Y-67565711D01*
X190131950Y-67565711D01*
X190131950Y-67914271D01*
X190290700Y-68073021D01*
X191147950Y-68073021D01*
X191147950Y-67215771D01*
X191401950Y-67215771D01*
X191401950Y-68073021D01*
X192259200Y-68073021D01*
X192417950Y-67914271D01*
X192417950Y-67565711D01*
X192321277Y-67332322D01*
X192142648Y-67153694D01*
X191909259Y-67057021D01*
X191560700Y-67057021D01*
X191401950Y-67215771D01*
X191147950Y-67215771D01*
X190989200Y-67057021D01*
X190640641Y-67057021D01*
X190407252Y-67153694D01*
X190228623Y-67332322D01*
X190131950Y-67565711D01*
X186868050Y-67565711D01*
X186771377Y-67332322D01*
X186592748Y-67153694D01*
X186359359Y-67057021D01*
X186010800Y-67057021D01*
X185852050Y-67215771D01*
X185598050Y-67215771D01*
X185439300Y-67057021D01*
X185090741Y-67057021D01*
X184857352Y-67153694D01*
X184678723Y-67332322D01*
X184582050Y-67565711D01*
X182760144Y-67565711D01*
X183761953Y-66710000D01*
X193884785Y-66710000D01*
X209837017Y-72027411D01*
X209837017Y-72027411D01*
G37*
X209837017Y-72027411D02*
X211785566Y-92487184D01*
X209349610Y-111000458D01*
X186777179Y-120323855D01*
X171296775Y-124193956D01*
X169884586Y-122216890D01*
X171058524Y-122216890D01*
X171228355Y-122626924D01*
X171618642Y-123055183D01*
X172143108Y-123301486D01*
X172373000Y-123180819D01*
X172373000Y-121987000D01*
X172627000Y-121987000D01*
X172627000Y-123180819D01*
X172856892Y-123301486D01*
X173381358Y-123055183D01*
X173771645Y-122626924D01*
X173941476Y-122216890D01*
X173820155Y-121987000D01*
X172627000Y-121987000D01*
X172373000Y-121987000D01*
X171179845Y-121987000D01*
X171058524Y-122216890D01*
X169884586Y-122216890D01*
X164178380Y-114228202D01*
X162365780Y-101540000D01*
X170985908Y-101540000D01*
X171101161Y-102119418D01*
X171429375Y-102610625D01*
X171727761Y-102810000D01*
X171429375Y-103009375D01*
X171101161Y-103500582D01*
X170985908Y-104080000D01*
X171101161Y-104659418D01*
X171429375Y-105150625D01*
X171727761Y-105350000D01*
X171429375Y-105549375D01*
X171101161Y-106040582D01*
X170985908Y-106620000D01*
X171101161Y-107199418D01*
X171429375Y-107690625D01*
X171727761Y-107890000D01*
X171429375Y-108089375D01*
X171101161Y-108580582D01*
X170985908Y-109160000D01*
X171101161Y-109739418D01*
X171429375Y-110230625D01*
X171727761Y-110430000D01*
X171429375Y-110629375D01*
X171101161Y-111120582D01*
X170985908Y-111700000D01*
X171101161Y-112279418D01*
X171429375Y-112770625D01*
X171727761Y-112970000D01*
X171429375Y-113169375D01*
X171101161Y-113660582D01*
X170985908Y-114240000D01*
X171101161Y-114819418D01*
X171429375Y-115310625D01*
X171727761Y-115510000D01*
X171429375Y-115709375D01*
X171101161Y-116200582D01*
X170985908Y-116780000D01*
X171101161Y-117359418D01*
X171429375Y-117850625D01*
X171727761Y-118050000D01*
X171429375Y-118249375D01*
X171101161Y-118740582D01*
X170985908Y-119320000D01*
X171101161Y-119899418D01*
X171429375Y-120390625D01*
X171748478Y-120603843D01*
X171618642Y-120664817D01*
X171228355Y-121093076D01*
X171058524Y-121503110D01*
X171179845Y-121733000D01*
X172373000Y-121733000D01*
X172373000Y-121713000D01*
X172627000Y-121713000D01*
X172627000Y-121733000D01*
X173820155Y-121733000D01*
X173941476Y-121503110D01*
X173771645Y-121093076D01*
X173381358Y-120664817D01*
X173251522Y-120603843D01*
X173570625Y-120390625D01*
X173898839Y-119899418D01*
X174014092Y-119320000D01*
X173898839Y-118740582D01*
X173570625Y-118249375D01*
X173272239Y-118050000D01*
X173570625Y-117850625D01*
X173898839Y-117359418D01*
X174014092Y-116780000D01*
X173898839Y-116200582D01*
X173570625Y-115709375D01*
X173272239Y-115510000D01*
X173570625Y-115310625D01*
X173898839Y-114819418D01*
X174014092Y-114240000D01*
X173898839Y-113660582D01*
X173570625Y-113169375D01*
X173272239Y-112970000D01*
X173570625Y-112770625D01*
X173898839Y-112279418D01*
X174014092Y-111700000D01*
X173898839Y-111120582D01*
X173570625Y-110629375D01*
X173272239Y-110430000D01*
X173570625Y-110230625D01*
X173898839Y-109739418D01*
X174014092Y-109160000D01*
X173898839Y-108580582D01*
X173570625Y-108089375D01*
X173272239Y-107890000D01*
X173570625Y-107690625D01*
X173898839Y-107199418D01*
X174014092Y-106620000D01*
X173898839Y-106040582D01*
X173570625Y-105549375D01*
X173272239Y-105350000D01*
X173570625Y-105150625D01*
X173898839Y-104659418D01*
X174014092Y-104080000D01*
X173898839Y-103500582D01*
X173570625Y-103009375D01*
X173272239Y-102810000D01*
X173570625Y-102610625D01*
X173898839Y-102119418D01*
X174014092Y-101540000D01*
X173985076Y-101394126D01*
X185655000Y-101394126D01*
X185655000Y-101805874D01*
X185812569Y-102186280D01*
X186103720Y-102477431D01*
X186484126Y-102635000D01*
X186895874Y-102635000D01*
X187276280Y-102477431D01*
X187325000Y-102428711D01*
X187373720Y-102477431D01*
X187754126Y-102635000D01*
X188165874Y-102635000D01*
X188546280Y-102477431D01*
X188595000Y-102428711D01*
X188643720Y-102477431D01*
X189024126Y-102635000D01*
X189435874Y-102635000D01*
X189816280Y-102477431D01*
X189865000Y-102428711D01*
X189913720Y-102477431D01*
X190294126Y-102635000D01*
X190705874Y-102635000D01*
X191086280Y-102477431D01*
X191135000Y-102428711D01*
X191183720Y-102477431D01*
X191564126Y-102635000D01*
X191975874Y-102635000D01*
X192356280Y-102477431D01*
X192647431Y-102186280D01*
X192805000Y-101805874D01*
X192805000Y-101394126D01*
X192647431Y-101013720D01*
X192356280Y-100722569D01*
X191975874Y-100565000D01*
X191564126Y-100565000D01*
X191183720Y-100722569D01*
X191135000Y-100771289D01*
X191086280Y-100722569D01*
X190705874Y-100565000D01*
X190294126Y-100565000D01*
X189913720Y-100722569D01*
X189865000Y-100771289D01*
X189816280Y-100722569D01*
X189435874Y-100565000D01*
X189024126Y-100565000D01*
X188643720Y-100722569D01*
X188595000Y-100771289D01*
X188546280Y-100722569D01*
X188165874Y-100565000D01*
X187754126Y-100565000D01*
X187373720Y-100722569D01*
X187325000Y-100771289D01*
X187276280Y-100722569D01*
X186895874Y-100565000D01*
X186484126Y-100565000D01*
X186103720Y-100722569D01*
X185812569Y-101013720D01*
X185655000Y-101394126D01*
X173985076Y-101394126D01*
X173898839Y-100960582D01*
X173570625Y-100469375D01*
X173552381Y-100457184D01*
X173597765Y-100448157D01*
X173807809Y-100307809D01*
X173948157Y-100097765D01*
X173997440Y-99850000D01*
X173997440Y-98150000D01*
X173948157Y-97902235D01*
X173807809Y-97692191D01*
X173597765Y-97551843D01*
X173350000Y-97502560D01*
X171650000Y-97502560D01*
X171402235Y-97551843D01*
X171192191Y-97692191D01*
X171051843Y-97902235D01*
X171002560Y-98150000D01*
X171002560Y-99850000D01*
X171051843Y-100097765D01*
X171192191Y-100307809D01*
X171402235Y-100448157D01*
X171447619Y-100457184D01*
X171429375Y-100469375D01*
X171101161Y-100960582D01*
X170985908Y-101540000D01*
X162365780Y-101540000D01*
X161259227Y-93794126D01*
X182965000Y-93794126D01*
X182965000Y-94205874D01*
X183122569Y-94586280D01*
X183413720Y-94877431D01*
X183794126Y-95035000D01*
X184205874Y-95035000D01*
X184586280Y-94877431D01*
X184877431Y-94586280D01*
X185035000Y-94205874D01*
X185035000Y-93794126D01*
X184877431Y-93413720D01*
X184586280Y-93122569D01*
X184205874Y-92965000D01*
X183794126Y-92965000D01*
X183413720Y-93122569D01*
X183122569Y-93413720D01*
X182965000Y-93794126D01*
X161259227Y-93794126D01*
X161044942Y-92294126D01*
X196875000Y-92294126D01*
X196875000Y-92705874D01*
X197032569Y-93086280D01*
X197323720Y-93377431D01*
X197704126Y-93535000D01*
X198115874Y-93535000D01*
X198496280Y-93377431D01*
X198787431Y-93086280D01*
X198945000Y-92705874D01*
X198945000Y-92504126D01*
X200895000Y-92504126D01*
X200895000Y-92915874D01*
X201052569Y-93296280D01*
X201343720Y-93587431D01*
X201724126Y-93745000D01*
X202135874Y-93745000D01*
X202516280Y-93587431D01*
X202807431Y-93296280D01*
X202965000Y-92915874D01*
X202965000Y-92504126D01*
X202807431Y-92123720D01*
X202516280Y-91832569D01*
X202135874Y-91675000D01*
X201724126Y-91675000D01*
X201343720Y-91832569D01*
X201052569Y-92123720D01*
X200895000Y-92504126D01*
X198945000Y-92504126D01*
X198945000Y-92294126D01*
X198787431Y-91913720D01*
X198496280Y-91622569D01*
X198115874Y-91465000D01*
X197704126Y-91465000D01*
X197323720Y-91622569D01*
X197032569Y-91913720D01*
X196875000Y-92294126D01*
X161044942Y-92294126D01*
X160534995Y-88724506D01*
X174615000Y-88724506D01*
X174615000Y-89275494D01*
X174825853Y-89784540D01*
X175215460Y-90174147D01*
X175724506Y-90385000D01*
X176275494Y-90385000D01*
X176494884Y-90294126D01*
X200965000Y-90294126D01*
X200965000Y-90705874D01*
X201122569Y-91086280D01*
X201413720Y-91377431D01*
X201794126Y-91535000D01*
X202205874Y-91535000D01*
X202586280Y-91377431D01*
X202877431Y-91086280D01*
X203035000Y-90705874D01*
X203035000Y-90294126D01*
X202877431Y-89913720D01*
X202586280Y-89622569D01*
X202205874Y-89465000D01*
X201794126Y-89465000D01*
X201413720Y-89622569D01*
X201122569Y-89913720D01*
X200965000Y-90294126D01*
X176494884Y-90294126D01*
X176784540Y-90174147D01*
X177174147Y-89784540D01*
X177385000Y-89275494D01*
X177385000Y-88794126D01*
X186965000Y-88794126D01*
X186965000Y-89205874D01*
X187122569Y-89586280D01*
X187413720Y-89877431D01*
X187794126Y-90035000D01*
X188205874Y-90035000D01*
X188586280Y-89877431D01*
X188877431Y-89586280D01*
X189035000Y-89205874D01*
X189035000Y-88794126D01*
X188877431Y-88413720D01*
X188586280Y-88122569D01*
X188205874Y-87965000D01*
X187794126Y-87965000D01*
X187413720Y-88122569D01*
X187122569Y-88413720D01*
X186965000Y-88794126D01*
X177385000Y-88794126D01*
X177385000Y-88724506D01*
X177174147Y-88215460D01*
X176784540Y-87825853D01*
X176275494Y-87615000D01*
X175724506Y-87615000D01*
X175215460Y-87825853D01*
X174825853Y-88215460D01*
X174615000Y-88724506D01*
X160534995Y-88724506D01*
X160302478Y-87096890D01*
X199058524Y-87096890D01*
X199228355Y-87506924D01*
X199618642Y-87935183D01*
X200143108Y-88181486D01*
X200373000Y-88060819D01*
X200373000Y-86867000D01*
X200627000Y-86867000D01*
X200627000Y-88060819D01*
X200856892Y-88181486D01*
X201381358Y-87935183D01*
X201771645Y-87506924D01*
X201941476Y-87096890D01*
X201820155Y-86867000D01*
X200627000Y-86867000D01*
X200373000Y-86867000D01*
X199179845Y-86867000D01*
X199058524Y-87096890D01*
X160302478Y-87096890D01*
X160258095Y-86786211D01*
X163702042Y-83844506D01*
X174615000Y-83844506D01*
X174615000Y-84395494D01*
X174825853Y-84904540D01*
X175215460Y-85294147D01*
X175724506Y-85505000D01*
X176275494Y-85505000D01*
X176784540Y-85294147D01*
X177174147Y-84904540D01*
X177385000Y-84395494D01*
X177385000Y-83844506D01*
X177174147Y-83335460D01*
X176784540Y-82945853D01*
X176275494Y-82735000D01*
X175724506Y-82735000D01*
X175215460Y-82945853D01*
X174825853Y-83335460D01*
X174615000Y-83844506D01*
X163702042Y-83844506D01*
X174379560Y-74724126D01*
X186925000Y-74724126D01*
X186925000Y-75135874D01*
X187082569Y-75516280D01*
X187373720Y-75807431D01*
X187754126Y-75965000D01*
X188165874Y-75965000D01*
X188215595Y-75944405D01*
X188195000Y-75994126D01*
X188195000Y-76405874D01*
X188352569Y-76786280D01*
X188643720Y-77077431D01*
X189024126Y-77235000D01*
X189435874Y-77235000D01*
X189816280Y-77077431D01*
X190107431Y-76786280D01*
X190265000Y-76405874D01*
X190265000Y-75994126D01*
X190107431Y-75613720D01*
X189816280Y-75322569D01*
X189435874Y-75165000D01*
X189024126Y-75165000D01*
X188974405Y-75185595D01*
X188995000Y-75135874D01*
X188995000Y-74724126D01*
X188837431Y-74343720D01*
X188546280Y-74052569D01*
X188165874Y-73895000D01*
X187754126Y-73895000D01*
X187373720Y-74052569D01*
X187082569Y-74343720D01*
X186925000Y-74724126D01*
X174379560Y-74724126D01*
X176053706Y-73294126D01*
X189465000Y-73294126D01*
X189465000Y-73705874D01*
X189622569Y-74086280D01*
X189913720Y-74377431D01*
X190294126Y-74535000D01*
X190705874Y-74535000D01*
X191086280Y-74377431D01*
X191377431Y-74086280D01*
X191396600Y-74040000D01*
X198985908Y-74040000D01*
X199101161Y-74619418D01*
X199429375Y-75110625D01*
X199727761Y-75310000D01*
X199429375Y-75509375D01*
X199101161Y-76000582D01*
X198985908Y-76580000D01*
X199101161Y-77159418D01*
X199429375Y-77650625D01*
X199727761Y-77850000D01*
X199429375Y-78049375D01*
X199101161Y-78540582D01*
X198985908Y-79120000D01*
X199101161Y-79699418D01*
X199429375Y-80190625D01*
X199727761Y-80390000D01*
X199429375Y-80589375D01*
X199101161Y-81080582D01*
X198985908Y-81660000D01*
X199101161Y-82239418D01*
X199429375Y-82730625D01*
X199727761Y-82930000D01*
X199429375Y-83129375D01*
X199101161Y-83620582D01*
X198985908Y-84200000D01*
X199101161Y-84779418D01*
X199429375Y-85270625D01*
X199748478Y-85483843D01*
X199618642Y-85544817D01*
X199228355Y-85973076D01*
X199058524Y-86383110D01*
X199179845Y-86613000D01*
X200373000Y-86613000D01*
X200373000Y-86593000D01*
X200627000Y-86593000D01*
X200627000Y-86613000D01*
X201820155Y-86613000D01*
X201941476Y-86383110D01*
X201771645Y-85973076D01*
X201504555Y-85680000D01*
X205985908Y-85680000D01*
X206101161Y-86259418D01*
X206429375Y-86750625D01*
X206727761Y-86950000D01*
X206429375Y-87149375D01*
X206101161Y-87640582D01*
X205985908Y-88220000D01*
X206101161Y-88799418D01*
X206429375Y-89290625D01*
X206727761Y-89490000D01*
X206429375Y-89689375D01*
X206101161Y-90180582D01*
X205985908Y-90760000D01*
X206101161Y-91339418D01*
X206429375Y-91830625D01*
X206727761Y-92030000D01*
X206429375Y-92229375D01*
X206101161Y-92720582D01*
X205985908Y-93300000D01*
X206101161Y-93879418D01*
X206429375Y-94370625D01*
X206727761Y-94570000D01*
X206429375Y-94769375D01*
X206101161Y-95260582D01*
X205985908Y-95840000D01*
X206101161Y-96419418D01*
X206429375Y-96910625D01*
X206727761Y-97110000D01*
X206429375Y-97309375D01*
X206101161Y-97800582D01*
X205985908Y-98380000D01*
X206101161Y-98959418D01*
X206429375Y-99450625D01*
X206727761Y-99650000D01*
X206429375Y-99849375D01*
X206101161Y-100340582D01*
X205985908Y-100920000D01*
X206101161Y-101499418D01*
X206429375Y-101990625D01*
X206727761Y-102190000D01*
X206429375Y-102389375D01*
X206101161Y-102880582D01*
X205985908Y-103460000D01*
X206101161Y-104039418D01*
X206429375Y-104530625D01*
X206447619Y-104542816D01*
X206402235Y-104551843D01*
X206192191Y-104692191D01*
X206051843Y-104902235D01*
X206002560Y-105150000D01*
X206002560Y-106850000D01*
X206051843Y-107097765D01*
X206192191Y-107307809D01*
X206402235Y-107448157D01*
X206650000Y-107497440D01*
X208350000Y-107497440D01*
X208597765Y-107448157D01*
X208807809Y-107307809D01*
X208948157Y-107097765D01*
X208997440Y-106850000D01*
X208997440Y-105150000D01*
X208948157Y-104902235D01*
X208807809Y-104692191D01*
X208597765Y-104551843D01*
X208552381Y-104542816D01*
X208570625Y-104530625D01*
X208898839Y-104039418D01*
X209014092Y-103460000D01*
X208898839Y-102880582D01*
X208570625Y-102389375D01*
X208272239Y-102190000D01*
X208570625Y-101990625D01*
X208898839Y-101499418D01*
X209014092Y-100920000D01*
X208898839Y-100340582D01*
X208570625Y-99849375D01*
X208272239Y-99650000D01*
X208570625Y-99450625D01*
X208898839Y-98959418D01*
X209014092Y-98380000D01*
X208898839Y-97800582D01*
X208570625Y-97309375D01*
X208272239Y-97110000D01*
X208570625Y-96910625D01*
X208898839Y-96419418D01*
X209014092Y-95840000D01*
X208898839Y-95260582D01*
X208570625Y-94769375D01*
X208272239Y-94570000D01*
X208570625Y-94370625D01*
X208898839Y-93879418D01*
X209014092Y-93300000D01*
X208898839Y-92720582D01*
X208570625Y-92229375D01*
X208272239Y-92030000D01*
X208570625Y-91830625D01*
X208898839Y-91339418D01*
X209014092Y-90760000D01*
X208898839Y-90180582D01*
X208570625Y-89689375D01*
X208272239Y-89490000D01*
X208570625Y-89290625D01*
X208898839Y-88799418D01*
X209014092Y-88220000D01*
X208898839Y-87640582D01*
X208570625Y-87149375D01*
X208272239Y-86950000D01*
X208570625Y-86750625D01*
X208898839Y-86259418D01*
X209014092Y-85680000D01*
X208898839Y-85100582D01*
X208570625Y-84609375D01*
X208251522Y-84396157D01*
X208381358Y-84335183D01*
X208771645Y-83906924D01*
X208941476Y-83496890D01*
X208820155Y-83267000D01*
X207627000Y-83267000D01*
X207627000Y-83287000D01*
X207373000Y-83287000D01*
X207373000Y-83267000D01*
X206179845Y-83267000D01*
X206058524Y-83496890D01*
X206228355Y-83906924D01*
X206618642Y-84335183D01*
X206748478Y-84396157D01*
X206429375Y-84609375D01*
X206101161Y-85100582D01*
X205985908Y-85680000D01*
X201504555Y-85680000D01*
X201381358Y-85544817D01*
X201251522Y-85483843D01*
X201570625Y-85270625D01*
X201898839Y-84779418D01*
X202014092Y-84200000D01*
X201898839Y-83620582D01*
X201570625Y-83129375D01*
X201272239Y-82930000D01*
X201492075Y-82783110D01*
X206058524Y-82783110D01*
X206179845Y-83013000D01*
X207373000Y-83013000D01*
X207373000Y-81819181D01*
X207627000Y-81819181D01*
X207627000Y-83013000D01*
X208820155Y-83013000D01*
X208941476Y-82783110D01*
X208771645Y-82373076D01*
X208381358Y-81944817D01*
X207856892Y-81698514D01*
X207627000Y-81819181D01*
X207373000Y-81819181D01*
X207143108Y-81698514D01*
X206618642Y-81944817D01*
X206228355Y-82373076D01*
X206058524Y-82783110D01*
X201492075Y-82783110D01*
X201570625Y-82730625D01*
X201898839Y-82239418D01*
X202014092Y-81660000D01*
X201898839Y-81080582D01*
X201570625Y-80589375D01*
X201272239Y-80390000D01*
X201570625Y-80190625D01*
X201898839Y-79699418D01*
X202014092Y-79120000D01*
X201898839Y-78540582D01*
X201570625Y-78049375D01*
X201272239Y-77850000D01*
X201570625Y-77650625D01*
X201898839Y-77159418D01*
X202014092Y-76580000D01*
X201898839Y-76000582D01*
X201570625Y-75509375D01*
X201272239Y-75310000D01*
X201570625Y-75110625D01*
X201898839Y-74619418D01*
X202014092Y-74040000D01*
X201898839Y-73460582D01*
X201874589Y-73424289D01*
X203285000Y-73424289D01*
X203285000Y-73895711D01*
X203465405Y-74331249D01*
X203798751Y-74664595D01*
X204234289Y-74845000D01*
X204705711Y-74845000D01*
X205141249Y-74664595D01*
X205275000Y-74530844D01*
X205275000Y-74886309D01*
X205371673Y-75119698D01*
X205518646Y-75266672D01*
X205428983Y-75483139D01*
X205141249Y-75195405D01*
X204705711Y-75015000D01*
X204234289Y-75015000D01*
X203798751Y-75195405D01*
X203465405Y-75528751D01*
X203285000Y-75964289D01*
X203285000Y-76435711D01*
X203465405Y-76871249D01*
X203798751Y-77204595D01*
X204234289Y-77385000D01*
X204705711Y-77385000D01*
X205141249Y-77204595D01*
X205428983Y-76916861D01*
X205539138Y-77182799D01*
X205826339Y-77470000D01*
X205539138Y-77757201D01*
X205428983Y-78023139D01*
X205141249Y-77735405D01*
X204705711Y-77555000D01*
X204234289Y-77555000D01*
X203798751Y-77735405D01*
X203465405Y-78068751D01*
X203285000Y-78504289D01*
X203285000Y-78975711D01*
X203465405Y-79411249D01*
X203798751Y-79744595D01*
X204234289Y-79925000D01*
X204705711Y-79925000D01*
X205141249Y-79744595D01*
X205428983Y-79456861D01*
X205539138Y-79722799D01*
X206027201Y-80210862D01*
X206664887Y-80475000D01*
X207355113Y-80475000D01*
X207992799Y-80210862D01*
X208480862Y-79722799D01*
X208745000Y-79085113D01*
X208745000Y-78394887D01*
X208480862Y-77757201D01*
X208193661Y-77470000D01*
X208480862Y-77182799D01*
X208745000Y-76545113D01*
X208745000Y-75854887D01*
X208501354Y-75266672D01*
X208648327Y-75119698D01*
X208745000Y-74886309D01*
X208745000Y-73945750D01*
X208586250Y-73787000D01*
X207137000Y-73787000D01*
X207137000Y-73807000D01*
X206883000Y-73807000D01*
X206883000Y-73787000D01*
X206863000Y-73787000D01*
X206863000Y-73533000D01*
X206883000Y-73533000D01*
X206883000Y-72083750D01*
X207137000Y-72083750D01*
X207137000Y-73533000D01*
X208586250Y-73533000D01*
X208745000Y-73374250D01*
X208745000Y-72433691D01*
X208648327Y-72200302D01*
X208469699Y-72021673D01*
X208236310Y-71925000D01*
X207295750Y-71925000D01*
X207137000Y-72083750D01*
X206883000Y-72083750D01*
X206724250Y-71925000D01*
X205783690Y-71925000D01*
X205550301Y-72021673D01*
X205371673Y-72200302D01*
X205275000Y-72433691D01*
X205275000Y-72789156D01*
X205141249Y-72655405D01*
X204705711Y-72475000D01*
X204234289Y-72475000D01*
X203798751Y-72655405D01*
X203465405Y-72988751D01*
X203285000Y-73424289D01*
X201874589Y-73424289D01*
X201570625Y-72969375D01*
X201552381Y-72957184D01*
X201597765Y-72948157D01*
X201807809Y-72807809D01*
X201948157Y-72597765D01*
X201997440Y-72350000D01*
X201997440Y-70650000D01*
X201948157Y-70402235D01*
X201807809Y-70192191D01*
X201597765Y-70051843D01*
X201350000Y-70002560D01*
X199650000Y-70002560D01*
X199402235Y-70051843D01*
X199192191Y-70192191D01*
X199051843Y-70402235D01*
X199002560Y-70650000D01*
X199002560Y-72350000D01*
X199051843Y-72597765D01*
X199192191Y-72807809D01*
X199402235Y-72948157D01*
X199447619Y-72957184D01*
X199429375Y-72969375D01*
X199101161Y-73460582D01*
X198985908Y-74040000D01*
X191396600Y-74040000D01*
X191535000Y-73705874D01*
X191535000Y-73294126D01*
X191377431Y-72913720D01*
X191086280Y-72622569D01*
X190705874Y-72465000D01*
X190294126Y-72465000D01*
X189913720Y-72622569D01*
X189622569Y-72913720D01*
X189465000Y-73294126D01*
X176053706Y-73294126D01*
X178135723Y-71515737D01*
X184931300Y-71515737D01*
X184931300Y-71864297D01*
X185027973Y-72097686D01*
X185206602Y-72276314D01*
X185439991Y-72372987D01*
X185788550Y-72372987D01*
X185947300Y-72214237D01*
X185947300Y-71356987D01*
X186201300Y-71356987D01*
X186201300Y-72214237D01*
X186360050Y-72372987D01*
X186708609Y-72372987D01*
X186941998Y-72276314D01*
X187120627Y-72097686D01*
X187217300Y-71864297D01*
X187217300Y-71515737D01*
X189782700Y-71515737D01*
X189782700Y-71864297D01*
X189879373Y-72097686D01*
X190058002Y-72276314D01*
X190291391Y-72372987D01*
X190639950Y-72372987D01*
X190798700Y-72214237D01*
X190798700Y-71356987D01*
X191052700Y-71356987D01*
X191052700Y-72214237D01*
X191211450Y-72372987D01*
X191560009Y-72372987D01*
X191793398Y-72276314D01*
X191972027Y-72097686D01*
X192068700Y-71864297D01*
X192068700Y-71515737D01*
X191909950Y-71356987D01*
X191052700Y-71356987D01*
X190798700Y-71356987D01*
X189941450Y-71356987D01*
X189782700Y-71515737D01*
X187217300Y-71515737D01*
X187058550Y-71356987D01*
X186201300Y-71356987D01*
X185947300Y-71356987D01*
X185090050Y-71356987D01*
X184931300Y-71515737D01*
X178135723Y-71515737D01*
X179212866Y-70595677D01*
X184931300Y-70595677D01*
X184931300Y-70944237D01*
X185090050Y-71102987D01*
X185947300Y-71102987D01*
X185947300Y-70245737D01*
X186201300Y-70245737D01*
X186201300Y-71102987D01*
X187058550Y-71102987D01*
X187217300Y-70944237D01*
X187217300Y-70595677D01*
X189782700Y-70595677D01*
X189782700Y-70944237D01*
X189941450Y-71102987D01*
X190798700Y-71102987D01*
X190798700Y-70245737D01*
X191052700Y-70245737D01*
X191052700Y-71102987D01*
X191909950Y-71102987D01*
X192068700Y-70944237D01*
X192068700Y-70595677D01*
X192021957Y-70482828D01*
X195270406Y-70482828D01*
X195270406Y-70894576D01*
X195427975Y-71274982D01*
X195719126Y-71566133D01*
X196099532Y-71723702D01*
X196511280Y-71723702D01*
X196891686Y-71566133D01*
X197182837Y-71274982D01*
X197340406Y-70894576D01*
X197340406Y-70534117D01*
X197533720Y-70727431D01*
X197914126Y-70885000D01*
X198325874Y-70885000D01*
X198706280Y-70727431D01*
X198997431Y-70436280D01*
X199155000Y-70055874D01*
X199155000Y-69644126D01*
X198997431Y-69263720D01*
X198706280Y-68972569D01*
X198325874Y-68815000D01*
X197914126Y-68815000D01*
X197533720Y-68972569D01*
X197242569Y-69263720D01*
X197085000Y-69644126D01*
X197085000Y-70004585D01*
X196891686Y-69811271D01*
X196511280Y-69653702D01*
X196099532Y-69653702D01*
X195719126Y-69811271D01*
X195427975Y-70102422D01*
X195270406Y-70482828D01*
X192021957Y-70482828D01*
X191972027Y-70362288D01*
X191793398Y-70183660D01*
X191560009Y-70086987D01*
X191211450Y-70086987D01*
X191052700Y-70245737D01*
X190798700Y-70245737D01*
X190639950Y-70086987D01*
X190291391Y-70086987D01*
X190058002Y-70183660D01*
X189879373Y-70362288D01*
X189782700Y-70595677D01*
X187217300Y-70595677D01*
X187120627Y-70362288D01*
X186941998Y-70183660D01*
X186708609Y-70086987D01*
X186360050Y-70086987D01*
X186201300Y-70245737D01*
X185947300Y-70245737D01*
X185788550Y-70086987D01*
X185439991Y-70086987D01*
X185206602Y-70183660D01*
X185027973Y-70362288D01*
X184931300Y-70595677D01*
X179212866Y-70595677D01*
X181683001Y-68485771D01*
X184582050Y-68485771D01*
X184582050Y-68834331D01*
X184678723Y-69067720D01*
X184857352Y-69246348D01*
X185090741Y-69343021D01*
X185439300Y-69343021D01*
X185598050Y-69184271D01*
X185598050Y-68327021D01*
X185852050Y-68327021D01*
X185852050Y-69184271D01*
X186010800Y-69343021D01*
X186359359Y-69343021D01*
X186592748Y-69246348D01*
X186771377Y-69067720D01*
X186868050Y-68834331D01*
X186868050Y-68485771D01*
X190131950Y-68485771D01*
X190131950Y-68834331D01*
X190228623Y-69067720D01*
X190407252Y-69246348D01*
X190640641Y-69343021D01*
X190989200Y-69343021D01*
X191147950Y-69184271D01*
X191147950Y-68327021D01*
X191401950Y-68327021D01*
X191401950Y-69184271D01*
X191560700Y-69343021D01*
X191909259Y-69343021D01*
X192142648Y-69246348D01*
X192321277Y-69067720D01*
X192417950Y-68834331D01*
X192417950Y-68485771D01*
X192259200Y-68327021D01*
X191401950Y-68327021D01*
X191147950Y-68327021D01*
X190290700Y-68327021D01*
X190131950Y-68485771D01*
X186868050Y-68485771D01*
X186709300Y-68327021D01*
X185852050Y-68327021D01*
X185598050Y-68327021D01*
X184740800Y-68327021D01*
X184582050Y-68485771D01*
X181683001Y-68485771D01*
X182760144Y-67565711D01*
X184582050Y-67565711D01*
X184582050Y-67914271D01*
X184740800Y-68073021D01*
X185598050Y-68073021D01*
X185598050Y-67215771D01*
X185852050Y-67215771D01*
X185852050Y-68073021D01*
X186709300Y-68073021D01*
X186868050Y-67914271D01*
X186868050Y-67565711D01*
X190131950Y-67565711D01*
X190131950Y-67914271D01*
X190290700Y-68073021D01*
X191147950Y-68073021D01*
X191147950Y-67215771D01*
X191401950Y-67215771D01*
X191401950Y-68073021D01*
X192259200Y-68073021D01*
X192417950Y-67914271D01*
X192417950Y-67565711D01*
X192321277Y-67332322D01*
X192142648Y-67153694D01*
X191909259Y-67057021D01*
X191560700Y-67057021D01*
X191401950Y-67215771D01*
X191147950Y-67215771D01*
X190989200Y-67057021D01*
X190640641Y-67057021D01*
X190407252Y-67153694D01*
X190228623Y-67332322D01*
X190131950Y-67565711D01*
X186868050Y-67565711D01*
X186771377Y-67332322D01*
X186592748Y-67153694D01*
X186359359Y-67057021D01*
X186010800Y-67057021D01*
X185852050Y-67215771D01*
X185598050Y-67215771D01*
X185439300Y-67057021D01*
X185090741Y-67057021D01*
X184857352Y-67153694D01*
X184678723Y-67332322D01*
X184582050Y-67565711D01*
X182760144Y-67565711D01*
X183761953Y-66710000D01*
X193884785Y-66710000D01*
X209837017Y-72027411D01*
G04 #@! TD*
M02*
