G04 #@! TF.GenerationSoftware,KiCad,Pcbnew,5.0.2+dfsg1-1*
G04 #@! TF.CreationDate,2019-05-23T19:58:40+03:00*
G04 #@! TF.ProjectId,avrUsb,61767255-7362-42e6-9b69-6361645f7063,rev?*
G04 #@! TF.SameCoordinates,Original*
G04 #@! TF.FileFunction,Soldermask,Top*
G04 #@! TF.FilePolarity,Negative*
%FSLAX46Y46*%
G04 Gerber Fmt 4.6, Leading zero omitted, Abs format (unit mm)*
G04 Created by KiCad (PCBNEW 5.0.2+dfsg1-1) date Thu 23 May 2019 07:58:40 PM EEST*
%MOMM*%
%LPD*%
G01*
G04 APERTURE LIST*
%ADD10C,0.100000*%
G04 APERTURE END LIST*
D10*
G04 #@! TO.C,X1*
G36*
X192500500Y-70398900D02*
X190303400Y-70398900D01*
X190303400Y-72062600D01*
X192500500Y-72062600D01*
X192500500Y-70398900D01*
G37*
G36*
X186696600Y-70398900D02*
X184499500Y-70398900D01*
X184499500Y-72062600D01*
X186696600Y-72062600D01*
X186696600Y-70398900D01*
G37*
G36*
X190455800Y-70348100D02*
X190455800Y-67376300D01*
X190482315Y-67221592D01*
X190555339Y-67082650D01*
X190667725Y-66973074D01*
X190963800Y-66881000D01*
X191471800Y-66881000D01*
X191624856Y-66905242D01*
X191762930Y-66975594D01*
X191872506Y-67085170D01*
X191967100Y-67376300D01*
X191967100Y-69446400D01*
X192500500Y-69446400D01*
X192500500Y-70348100D01*
X190455800Y-70348100D01*
G37*
G36*
X186544200Y-70348100D02*
X186544200Y-67376300D01*
X186517685Y-67221592D01*
X186444661Y-67082650D01*
X186332275Y-66973074D01*
X186036200Y-66881000D01*
X185528200Y-66881000D01*
X185375144Y-66905242D01*
X185237070Y-66975594D01*
X185127494Y-67085170D01*
X185032900Y-67376300D01*
X185032900Y-69446400D01*
X184499500Y-69446400D01*
X184499500Y-70348100D01*
X186544200Y-70348100D01*
G37*
G36*
X172628707Y-120817596D02*
X172705836Y-120825193D01*
X172837787Y-120865220D01*
X172903763Y-120885233D01*
X173086172Y-120982733D01*
X173246054Y-121113946D01*
X173377267Y-121273828D01*
X173474767Y-121456237D01*
X173474767Y-121456238D01*
X173534807Y-121654164D01*
X173555080Y-121860000D01*
X173534807Y-122065836D01*
X173494780Y-122197787D01*
X173474767Y-122263763D01*
X173377267Y-122446172D01*
X173246054Y-122606054D01*
X173086172Y-122737267D01*
X172903763Y-122834767D01*
X172837787Y-122854780D01*
X172705836Y-122894807D01*
X172628707Y-122902404D01*
X172551580Y-122910000D01*
X172448420Y-122910000D01*
X172371293Y-122902404D01*
X172294164Y-122894807D01*
X172162213Y-122854780D01*
X172096237Y-122834767D01*
X171913828Y-122737267D01*
X171753946Y-122606054D01*
X171622733Y-122446172D01*
X171525233Y-122263763D01*
X171505220Y-122197787D01*
X171465193Y-122065836D01*
X171444920Y-121860000D01*
X171465193Y-121654164D01*
X171525233Y-121456238D01*
X171525233Y-121456237D01*
X171622733Y-121273828D01*
X171753946Y-121113946D01*
X171913828Y-120982733D01*
X172096237Y-120885233D01*
X172162213Y-120865220D01*
X172294164Y-120825193D01*
X172371293Y-120817596D01*
X172448420Y-120810000D01*
X172551580Y-120810000D01*
X172628707Y-120817596D01*
X172628707Y-120817596D01*
G37*
G36*
X172628707Y-118277596D02*
X172705836Y-118285193D01*
X172837787Y-118325220D01*
X172903763Y-118345233D01*
X173086172Y-118442733D01*
X173246054Y-118573946D01*
X173377267Y-118733828D01*
X173474767Y-118916237D01*
X173474767Y-118916238D01*
X173534807Y-119114164D01*
X173555080Y-119320000D01*
X173534807Y-119525836D01*
X173494780Y-119657787D01*
X173474767Y-119723763D01*
X173377267Y-119906172D01*
X173246054Y-120066054D01*
X173086172Y-120197267D01*
X172903763Y-120294767D01*
X172837787Y-120314780D01*
X172705836Y-120354807D01*
X172628707Y-120362404D01*
X172551580Y-120370000D01*
X172448420Y-120370000D01*
X172371293Y-120362404D01*
X172294164Y-120354807D01*
X172162213Y-120314780D01*
X172096237Y-120294767D01*
X171913828Y-120197267D01*
X171753946Y-120066054D01*
X171622733Y-119906172D01*
X171525233Y-119723763D01*
X171505220Y-119657787D01*
X171465193Y-119525836D01*
X171444920Y-119320000D01*
X171465193Y-119114164D01*
X171525233Y-118916238D01*
X171525233Y-118916237D01*
X171622733Y-118733828D01*
X171753946Y-118573946D01*
X171913828Y-118442733D01*
X172096237Y-118345233D01*
X172162213Y-118325220D01*
X172294164Y-118285193D01*
X172371293Y-118277596D01*
X172448420Y-118270000D01*
X172551580Y-118270000D01*
X172628707Y-118277596D01*
X172628707Y-118277596D01*
G37*
G36*
X172628707Y-115737596D02*
X172705836Y-115745193D01*
X172837787Y-115785220D01*
X172903763Y-115805233D01*
X173086172Y-115902733D01*
X173246054Y-116033946D01*
X173377267Y-116193828D01*
X173474767Y-116376237D01*
X173474767Y-116376238D01*
X173534807Y-116574164D01*
X173555080Y-116780000D01*
X173534807Y-116985836D01*
X173494780Y-117117787D01*
X173474767Y-117183763D01*
X173377267Y-117366172D01*
X173246054Y-117526054D01*
X173086172Y-117657267D01*
X172903763Y-117754767D01*
X172837787Y-117774780D01*
X172705836Y-117814807D01*
X172628707Y-117822403D01*
X172551580Y-117830000D01*
X172448420Y-117830000D01*
X172371293Y-117822403D01*
X172294164Y-117814807D01*
X172162213Y-117774780D01*
X172096237Y-117754767D01*
X171913828Y-117657267D01*
X171753946Y-117526054D01*
X171622733Y-117366172D01*
X171525233Y-117183763D01*
X171505220Y-117117787D01*
X171465193Y-116985836D01*
X171444920Y-116780000D01*
X171465193Y-116574164D01*
X171525233Y-116376238D01*
X171525233Y-116376237D01*
X171622733Y-116193828D01*
X171753946Y-116033946D01*
X171913828Y-115902733D01*
X172096237Y-115805233D01*
X172162213Y-115785220D01*
X172294164Y-115745193D01*
X172371293Y-115737596D01*
X172448420Y-115730000D01*
X172551580Y-115730000D01*
X172628707Y-115737596D01*
X172628707Y-115737596D01*
G37*
G36*
X172628707Y-113197597D02*
X172705836Y-113205193D01*
X172837787Y-113245220D01*
X172903763Y-113265233D01*
X173086172Y-113362733D01*
X173246054Y-113493946D01*
X173377267Y-113653828D01*
X173474767Y-113836237D01*
X173474767Y-113836238D01*
X173534807Y-114034164D01*
X173555080Y-114240000D01*
X173534807Y-114445836D01*
X173494780Y-114577787D01*
X173474767Y-114643763D01*
X173377267Y-114826172D01*
X173246054Y-114986054D01*
X173086172Y-115117267D01*
X172903763Y-115214767D01*
X172837787Y-115234780D01*
X172705836Y-115274807D01*
X172628707Y-115282403D01*
X172551580Y-115290000D01*
X172448420Y-115290000D01*
X172371293Y-115282403D01*
X172294164Y-115274807D01*
X172162213Y-115234780D01*
X172096237Y-115214767D01*
X171913828Y-115117267D01*
X171753946Y-114986054D01*
X171622733Y-114826172D01*
X171525233Y-114643763D01*
X171505220Y-114577787D01*
X171465193Y-114445836D01*
X171444920Y-114240000D01*
X171465193Y-114034164D01*
X171525233Y-113836238D01*
X171525233Y-113836237D01*
X171622733Y-113653828D01*
X171753946Y-113493946D01*
X171913828Y-113362733D01*
X172096237Y-113265233D01*
X172162213Y-113245220D01*
X172294164Y-113205193D01*
X172371293Y-113197597D01*
X172448420Y-113190000D01*
X172551580Y-113190000D01*
X172628707Y-113197597D01*
X172628707Y-113197597D01*
G37*
G36*
X172628707Y-110657596D02*
X172705836Y-110665193D01*
X172837787Y-110705220D01*
X172903763Y-110725233D01*
X173086172Y-110822733D01*
X173246054Y-110953946D01*
X173377267Y-111113828D01*
X173474767Y-111296237D01*
X173474767Y-111296238D01*
X173534807Y-111494164D01*
X173555080Y-111700000D01*
X173534807Y-111905836D01*
X173494780Y-112037787D01*
X173474767Y-112103763D01*
X173377267Y-112286172D01*
X173246054Y-112446054D01*
X173086172Y-112577267D01*
X172903763Y-112674767D01*
X172837787Y-112694780D01*
X172705836Y-112734807D01*
X172628707Y-112742404D01*
X172551580Y-112750000D01*
X172448420Y-112750000D01*
X172371293Y-112742404D01*
X172294164Y-112734807D01*
X172162213Y-112694780D01*
X172096237Y-112674767D01*
X171913828Y-112577267D01*
X171753946Y-112446054D01*
X171622733Y-112286172D01*
X171525233Y-112103763D01*
X171505220Y-112037787D01*
X171465193Y-111905836D01*
X171444920Y-111700000D01*
X171465193Y-111494164D01*
X171525233Y-111296238D01*
X171525233Y-111296237D01*
X171622733Y-111113828D01*
X171753946Y-110953946D01*
X171913828Y-110822733D01*
X172096237Y-110725233D01*
X172162213Y-110705220D01*
X172294164Y-110665193D01*
X172371293Y-110657596D01*
X172448420Y-110650000D01*
X172551580Y-110650000D01*
X172628707Y-110657596D01*
X172628707Y-110657596D01*
G37*
G36*
X172628707Y-108117596D02*
X172705836Y-108125193D01*
X172837787Y-108165220D01*
X172903763Y-108185233D01*
X173086172Y-108282733D01*
X173246054Y-108413946D01*
X173377267Y-108573828D01*
X173474767Y-108756237D01*
X173474767Y-108756238D01*
X173534807Y-108954164D01*
X173555080Y-109160000D01*
X173534807Y-109365836D01*
X173494780Y-109497787D01*
X173474767Y-109563763D01*
X173377267Y-109746172D01*
X173246054Y-109906054D01*
X173086172Y-110037267D01*
X172903763Y-110134767D01*
X172837787Y-110154780D01*
X172705836Y-110194807D01*
X172628707Y-110202404D01*
X172551580Y-110210000D01*
X172448420Y-110210000D01*
X172371293Y-110202404D01*
X172294164Y-110194807D01*
X172162213Y-110154780D01*
X172096237Y-110134767D01*
X171913828Y-110037267D01*
X171753946Y-109906054D01*
X171622733Y-109746172D01*
X171525233Y-109563763D01*
X171505220Y-109497787D01*
X171465193Y-109365836D01*
X171444920Y-109160000D01*
X171465193Y-108954164D01*
X171525233Y-108756238D01*
X171525233Y-108756237D01*
X171622733Y-108573828D01*
X171753946Y-108413946D01*
X171913828Y-108282733D01*
X172096237Y-108185233D01*
X172162213Y-108165220D01*
X172294164Y-108125193D01*
X172371293Y-108117596D01*
X172448420Y-108110000D01*
X172551580Y-108110000D01*
X172628707Y-108117596D01*
X172628707Y-108117596D01*
G37*
G36*
X172628707Y-105577596D02*
X172705836Y-105585193D01*
X172837787Y-105625220D01*
X172903763Y-105645233D01*
X173086172Y-105742733D01*
X173246054Y-105873946D01*
X173377267Y-106033828D01*
X173474767Y-106216237D01*
X173474767Y-106216238D01*
X173534807Y-106414164D01*
X173555080Y-106620000D01*
X173534807Y-106825836D01*
X173494780Y-106957787D01*
X173474767Y-107023763D01*
X173377267Y-107206172D01*
X173246054Y-107366054D01*
X173086172Y-107497267D01*
X172903763Y-107594767D01*
X172837787Y-107614780D01*
X172705836Y-107654807D01*
X172628707Y-107662403D01*
X172551580Y-107670000D01*
X172448420Y-107670000D01*
X172371293Y-107662403D01*
X172294164Y-107654807D01*
X172162213Y-107614780D01*
X172096237Y-107594767D01*
X171913828Y-107497267D01*
X171753946Y-107366054D01*
X171622733Y-107206172D01*
X171525233Y-107023763D01*
X171505220Y-106957787D01*
X171465193Y-106825836D01*
X171444920Y-106620000D01*
X171465193Y-106414164D01*
X171525233Y-106216238D01*
X171525233Y-106216237D01*
X171622733Y-106033828D01*
X171753946Y-105873946D01*
X171913828Y-105742733D01*
X172096237Y-105645233D01*
X172162213Y-105625220D01*
X172294164Y-105585193D01*
X172371293Y-105577596D01*
X172448420Y-105570000D01*
X172551580Y-105570000D01*
X172628707Y-105577596D01*
X172628707Y-105577596D01*
G37*
G36*
X208550000Y-107050000D02*
X206450000Y-107050000D01*
X206450000Y-104950000D01*
X208550000Y-104950000D01*
X208550000Y-107050000D01*
X208550000Y-107050000D01*
G37*
G36*
X172628707Y-103037596D02*
X172705836Y-103045193D01*
X172837787Y-103085220D01*
X172903763Y-103105233D01*
X173086172Y-103202733D01*
X173246054Y-103333946D01*
X173377267Y-103493828D01*
X173474767Y-103676237D01*
X173474767Y-103676238D01*
X173534807Y-103874164D01*
X173555080Y-104080000D01*
X173534807Y-104285836D01*
X173494780Y-104417787D01*
X173474767Y-104483763D01*
X173377267Y-104666172D01*
X173246054Y-104826054D01*
X173086172Y-104957267D01*
X172903763Y-105054767D01*
X172837787Y-105074780D01*
X172705836Y-105114807D01*
X172628707Y-105122404D01*
X172551580Y-105130000D01*
X172448420Y-105130000D01*
X172371293Y-105122403D01*
X172294164Y-105114807D01*
X172162213Y-105074780D01*
X172096237Y-105054767D01*
X171913828Y-104957267D01*
X171753946Y-104826054D01*
X171622733Y-104666172D01*
X171525233Y-104483763D01*
X171505220Y-104417787D01*
X171465193Y-104285836D01*
X171444920Y-104080000D01*
X171465193Y-103874164D01*
X171525233Y-103676238D01*
X171525233Y-103676237D01*
X171622733Y-103493828D01*
X171753946Y-103333946D01*
X171913828Y-103202733D01*
X172096237Y-103105233D01*
X172162213Y-103085220D01*
X172294164Y-103045193D01*
X172371293Y-103037596D01*
X172448420Y-103030000D01*
X172551580Y-103030000D01*
X172628707Y-103037596D01*
X172628707Y-103037596D01*
G37*
G36*
X207625362Y-102417267D02*
X207705836Y-102425193D01*
X207837787Y-102465220D01*
X207903763Y-102485233D01*
X208086172Y-102582733D01*
X208246054Y-102713946D01*
X208377267Y-102873828D01*
X208474767Y-103056237D01*
X208494780Y-103122213D01*
X208534807Y-103254164D01*
X208555080Y-103460000D01*
X208534807Y-103665836D01*
X208494780Y-103797787D01*
X208474767Y-103863763D01*
X208377267Y-104046172D01*
X208246054Y-104206054D01*
X208086172Y-104337267D01*
X207903763Y-104434767D01*
X207837787Y-104454780D01*
X207705836Y-104494807D01*
X207628707Y-104502404D01*
X207551580Y-104510000D01*
X207448420Y-104510000D01*
X207371293Y-104502404D01*
X207294164Y-104494807D01*
X207162213Y-104454780D01*
X207096237Y-104434767D01*
X206913828Y-104337267D01*
X206753946Y-104206054D01*
X206622733Y-104046172D01*
X206525233Y-103863763D01*
X206505220Y-103797787D01*
X206465193Y-103665836D01*
X206444920Y-103460000D01*
X206465193Y-103254164D01*
X206505220Y-103122213D01*
X206525233Y-103056237D01*
X206622733Y-102873828D01*
X206753946Y-102713946D01*
X206913828Y-102582733D01*
X207096237Y-102485233D01*
X207162213Y-102465220D01*
X207294164Y-102425193D01*
X207374638Y-102417267D01*
X207448420Y-102410000D01*
X207551580Y-102410000D01*
X207625362Y-102417267D01*
X207625362Y-102417267D01*
G37*
G36*
X172628707Y-100497596D02*
X172705836Y-100505193D01*
X172837787Y-100545220D01*
X172903763Y-100565233D01*
X173086172Y-100662733D01*
X173246054Y-100793946D01*
X173377267Y-100953828D01*
X173474767Y-101136237D01*
X173474767Y-101136238D01*
X173534807Y-101334164D01*
X173555080Y-101540000D01*
X173534807Y-101745836D01*
X173494780Y-101877787D01*
X173474767Y-101943763D01*
X173377267Y-102126172D01*
X173246054Y-102286054D01*
X173086172Y-102417267D01*
X172903763Y-102514767D01*
X172837787Y-102534780D01*
X172705836Y-102574807D01*
X172628707Y-102582404D01*
X172551580Y-102590000D01*
X172448420Y-102590000D01*
X172371293Y-102582403D01*
X172294164Y-102574807D01*
X172162213Y-102534780D01*
X172096237Y-102514767D01*
X171913828Y-102417267D01*
X171753946Y-102286054D01*
X171622733Y-102126172D01*
X171525233Y-101943763D01*
X171505220Y-101877787D01*
X171465193Y-101745836D01*
X171444920Y-101540000D01*
X171465193Y-101334164D01*
X171525233Y-101136238D01*
X171525233Y-101136237D01*
X171622733Y-100953828D01*
X171753946Y-100793946D01*
X171913828Y-100662733D01*
X172096237Y-100565233D01*
X172162213Y-100545220D01*
X172294164Y-100505193D01*
X172371293Y-100497597D01*
X172448420Y-100490000D01*
X172551580Y-100490000D01*
X172628707Y-100497596D01*
X172628707Y-100497596D01*
G37*
G36*
X207628707Y-99877596D02*
X207705836Y-99885193D01*
X207837787Y-99925220D01*
X207903763Y-99945233D01*
X208086172Y-100042733D01*
X208246054Y-100173946D01*
X208377267Y-100333828D01*
X208474767Y-100516237D01*
X208494780Y-100582213D01*
X208534807Y-100714164D01*
X208555080Y-100920000D01*
X208534807Y-101125836D01*
X208494780Y-101257787D01*
X208474767Y-101323763D01*
X208377267Y-101506172D01*
X208246054Y-101666054D01*
X208086172Y-101797267D01*
X207903763Y-101894767D01*
X207837787Y-101914780D01*
X207705836Y-101954807D01*
X207628707Y-101962403D01*
X207551580Y-101970000D01*
X207448420Y-101970000D01*
X207371293Y-101962403D01*
X207294164Y-101954807D01*
X207162213Y-101914780D01*
X207096237Y-101894767D01*
X206913828Y-101797267D01*
X206753946Y-101666054D01*
X206622733Y-101506172D01*
X206525233Y-101323763D01*
X206505220Y-101257787D01*
X206465193Y-101125836D01*
X206444920Y-100920000D01*
X206465193Y-100714164D01*
X206505220Y-100582213D01*
X206525233Y-100516237D01*
X206622733Y-100333828D01*
X206753946Y-100173946D01*
X206913828Y-100042733D01*
X207096237Y-99945233D01*
X207162213Y-99925220D01*
X207294164Y-99885193D01*
X207371293Y-99877596D01*
X207448420Y-99870000D01*
X207551580Y-99870000D01*
X207628707Y-99877596D01*
X207628707Y-99877596D01*
G37*
G36*
X173550000Y-100050000D02*
X171450000Y-100050000D01*
X171450000Y-97950000D01*
X173550000Y-97950000D01*
X173550000Y-100050000D01*
X173550000Y-100050000D01*
G37*
G36*
X193275000Y-91100000D02*
X193277402Y-91124386D01*
X193284515Y-91147835D01*
X193296066Y-91169446D01*
X193311612Y-91188388D01*
X193330554Y-91203934D01*
X193352165Y-91215485D01*
X193375614Y-91222598D01*
X193400000Y-91225000D01*
X195250000Y-91225000D01*
X195250000Y-97775000D01*
X193400000Y-97775000D01*
X193375614Y-97777402D01*
X193352165Y-97784515D01*
X193330554Y-97796066D01*
X193311612Y-97811612D01*
X193296066Y-97830554D01*
X193284515Y-97852165D01*
X193277402Y-97875614D01*
X193275000Y-97900000D01*
X193275000Y-99750000D01*
X186725000Y-99750000D01*
X186725000Y-97900000D01*
X186722598Y-97875614D01*
X186715485Y-97852165D01*
X186703934Y-97830554D01*
X186688388Y-97811612D01*
X186669446Y-97796066D01*
X186647835Y-97784515D01*
X186624386Y-97777402D01*
X186600000Y-97775000D01*
X184750000Y-97775000D01*
X184750000Y-91375000D01*
X186750000Y-91375000D01*
X186750000Y-97625000D01*
X186752402Y-97649386D01*
X186759515Y-97672835D01*
X186771066Y-97694446D01*
X186786612Y-97713388D01*
X186805554Y-97728934D01*
X186827165Y-97740485D01*
X186850614Y-97747598D01*
X186875000Y-97750000D01*
X193125000Y-97750000D01*
X193149386Y-97747598D01*
X193172835Y-97740485D01*
X193194446Y-97728934D01*
X193213388Y-97713388D01*
X193228934Y-97694446D01*
X193240485Y-97672835D01*
X193247598Y-97649386D01*
X193250000Y-97625000D01*
X193250000Y-91375000D01*
X193247598Y-91350614D01*
X193240485Y-91327165D01*
X193228934Y-91305554D01*
X193213388Y-91286612D01*
X193194446Y-91271066D01*
X193172835Y-91259515D01*
X193149386Y-91252402D01*
X193125000Y-91250000D01*
X186875000Y-91250000D01*
X186850614Y-91252402D01*
X186827165Y-91259515D01*
X186805554Y-91271066D01*
X186786612Y-91286612D01*
X186771066Y-91305554D01*
X186759515Y-91327165D01*
X186752402Y-91350614D01*
X186750000Y-91375000D01*
X184750000Y-91375000D01*
X184750000Y-91225000D01*
X186600000Y-91225000D01*
X186624386Y-91222598D01*
X186647835Y-91215485D01*
X186669446Y-91203934D01*
X186688388Y-91188388D01*
X186703934Y-91169446D01*
X186715485Y-91147835D01*
X186722598Y-91124386D01*
X186725000Y-91100000D01*
X186725000Y-89250000D01*
X193275000Y-89250000D01*
X193275000Y-91100000D01*
X193275000Y-91100000D01*
G37*
G36*
X207628707Y-97337597D02*
X207705836Y-97345193D01*
X207837787Y-97385220D01*
X207903763Y-97405233D01*
X208086172Y-97502733D01*
X208246054Y-97633946D01*
X208377267Y-97793828D01*
X208474767Y-97976237D01*
X208474767Y-97976238D01*
X208534807Y-98174164D01*
X208555080Y-98380000D01*
X208534807Y-98585836D01*
X208494780Y-98717787D01*
X208474767Y-98783763D01*
X208377267Y-98966172D01*
X208246054Y-99126054D01*
X208086172Y-99257267D01*
X207903763Y-99354767D01*
X207837787Y-99374780D01*
X207705836Y-99414807D01*
X207628707Y-99422404D01*
X207551580Y-99430000D01*
X207448420Y-99430000D01*
X207371293Y-99422404D01*
X207294164Y-99414807D01*
X207162213Y-99374780D01*
X207096237Y-99354767D01*
X206913828Y-99257267D01*
X206753946Y-99126054D01*
X206622733Y-98966172D01*
X206525233Y-98783763D01*
X206505220Y-98717787D01*
X206465193Y-98585836D01*
X206444920Y-98380000D01*
X206465193Y-98174164D01*
X206525233Y-97976238D01*
X206525233Y-97976237D01*
X206622733Y-97793828D01*
X206753946Y-97633946D01*
X206913828Y-97502733D01*
X207096237Y-97405233D01*
X207162213Y-97385220D01*
X207294164Y-97345193D01*
X207371293Y-97337597D01*
X207448420Y-97330000D01*
X207551580Y-97330000D01*
X207628707Y-97337597D01*
X207628707Y-97337597D01*
G37*
G36*
X207628707Y-94797597D02*
X207705836Y-94805193D01*
X207837787Y-94845220D01*
X207903763Y-94865233D01*
X208086172Y-94962733D01*
X208246054Y-95093946D01*
X208377267Y-95253828D01*
X208474767Y-95436237D01*
X208474767Y-95436238D01*
X208534807Y-95634164D01*
X208555080Y-95840000D01*
X208534807Y-96045836D01*
X208495626Y-96175000D01*
X208474767Y-96243763D01*
X208377267Y-96426172D01*
X208246054Y-96586054D01*
X208086172Y-96717267D01*
X207903763Y-96814767D01*
X207837787Y-96834780D01*
X207705836Y-96874807D01*
X207628707Y-96882404D01*
X207551580Y-96890000D01*
X207448420Y-96890000D01*
X207371293Y-96882404D01*
X207294164Y-96874807D01*
X207162213Y-96834780D01*
X207096237Y-96814767D01*
X206913828Y-96717267D01*
X206753946Y-96586054D01*
X206622733Y-96426172D01*
X206525233Y-96243763D01*
X206504374Y-96175000D01*
X206465193Y-96045836D01*
X206444920Y-95840000D01*
X206465193Y-95634164D01*
X206525233Y-95436238D01*
X206525233Y-95436237D01*
X206622733Y-95253828D01*
X206753946Y-95093946D01*
X206913828Y-94962733D01*
X207096237Y-94865233D01*
X207162213Y-94845220D01*
X207294164Y-94805193D01*
X207371293Y-94797596D01*
X207448420Y-94790000D01*
X207551580Y-94790000D01*
X207628707Y-94797597D01*
X207628707Y-94797597D01*
G37*
G36*
X182519628Y-92930493D02*
X182567354Y-92944970D01*
X182611336Y-92968479D01*
X182649885Y-93000115D01*
X182681521Y-93038664D01*
X182705030Y-93082646D01*
X182719507Y-93130372D01*
X182725000Y-93186141D01*
X182725000Y-94813859D01*
X182719507Y-94869628D01*
X182705030Y-94917354D01*
X182681521Y-94961336D01*
X182649885Y-94999885D01*
X182611336Y-95031521D01*
X182567354Y-95055030D01*
X182519628Y-95069507D01*
X182463859Y-95075000D01*
X181336141Y-95075000D01*
X181280372Y-95069507D01*
X181232646Y-95055030D01*
X181188664Y-95031521D01*
X181150115Y-94999885D01*
X181118479Y-94961336D01*
X181094970Y-94917354D01*
X181080493Y-94869628D01*
X181075000Y-94813859D01*
X181075000Y-93186141D01*
X181080493Y-93130372D01*
X181094970Y-93082646D01*
X181118479Y-93038664D01*
X181150115Y-93000115D01*
X181188664Y-92968479D01*
X181232646Y-92944970D01*
X181280372Y-92930493D01*
X181336141Y-92925000D01*
X182463859Y-92925000D01*
X182519628Y-92930493D01*
X182519628Y-92930493D01*
G37*
G36*
X179719628Y-92930493D02*
X179767354Y-92944970D01*
X179811336Y-92968479D01*
X179849885Y-93000115D01*
X179881521Y-93038664D01*
X179905030Y-93082646D01*
X179919507Y-93130372D01*
X179925000Y-93186141D01*
X179925000Y-94813859D01*
X179919507Y-94869628D01*
X179905030Y-94917354D01*
X179881521Y-94961336D01*
X179849885Y-94999885D01*
X179811336Y-95031521D01*
X179767354Y-95055030D01*
X179719628Y-95069507D01*
X179663859Y-95075000D01*
X178536141Y-95075000D01*
X178480372Y-95069507D01*
X178432646Y-95055030D01*
X178388664Y-95031521D01*
X178350115Y-94999885D01*
X178318479Y-94961336D01*
X178294970Y-94917354D01*
X178280493Y-94869628D01*
X178275000Y-94813859D01*
X178275000Y-93186141D01*
X178280493Y-93130372D01*
X178294970Y-93082646D01*
X178318479Y-93038664D01*
X178350115Y-93000115D01*
X178388664Y-92968479D01*
X178432646Y-92944970D01*
X178480372Y-92930493D01*
X178536141Y-92925000D01*
X179663859Y-92925000D01*
X179719628Y-92930493D01*
X179719628Y-92930493D01*
G37*
G36*
X207628707Y-92257596D02*
X207705836Y-92265193D01*
X207837787Y-92305220D01*
X207903763Y-92325233D01*
X208086172Y-92422733D01*
X208246054Y-92553946D01*
X208377267Y-92713828D01*
X208474767Y-92896237D01*
X208474767Y-92896238D01*
X208534807Y-93094164D01*
X208555080Y-93300000D01*
X208534807Y-93505836D01*
X208498659Y-93625000D01*
X208474767Y-93703763D01*
X208377267Y-93886172D01*
X208246054Y-94046054D01*
X208086172Y-94177267D01*
X207903763Y-94274767D01*
X207837787Y-94294780D01*
X207705836Y-94334807D01*
X207628707Y-94342403D01*
X207551580Y-94350000D01*
X207448420Y-94350000D01*
X207371293Y-94342404D01*
X207294164Y-94334807D01*
X207162213Y-94294780D01*
X207096237Y-94274767D01*
X206913828Y-94177267D01*
X206753946Y-94046054D01*
X206622733Y-93886172D01*
X206525233Y-93703763D01*
X206501341Y-93625000D01*
X206465193Y-93505836D01*
X206444920Y-93300000D01*
X206465193Y-93094164D01*
X206525233Y-92896238D01*
X206525233Y-92896237D01*
X206622733Y-92713828D01*
X206753946Y-92553946D01*
X206913828Y-92422733D01*
X207096237Y-92325233D01*
X207162213Y-92305220D01*
X207294164Y-92265193D01*
X207371293Y-92257596D01*
X207448420Y-92250000D01*
X207551580Y-92250000D01*
X207628707Y-92257596D01*
X207628707Y-92257596D01*
G37*
G36*
X207628707Y-89717597D02*
X207705836Y-89725193D01*
X207837787Y-89765220D01*
X207903763Y-89785233D01*
X208086172Y-89882733D01*
X208246054Y-90013946D01*
X208377267Y-90173828D01*
X208474767Y-90356237D01*
X208474767Y-90356238D01*
X208534807Y-90554164D01*
X208555080Y-90760000D01*
X208534807Y-90965836D01*
X208494780Y-91097787D01*
X208474767Y-91163763D01*
X208377267Y-91346172D01*
X208246054Y-91506054D01*
X208086172Y-91637267D01*
X207903763Y-91734767D01*
X207837787Y-91754780D01*
X207705836Y-91794807D01*
X207628707Y-91802404D01*
X207551580Y-91810000D01*
X207448420Y-91810000D01*
X207371293Y-91802404D01*
X207294164Y-91794807D01*
X207162213Y-91754780D01*
X207096237Y-91734767D01*
X206913828Y-91637267D01*
X206753946Y-91506054D01*
X206622733Y-91346172D01*
X206525233Y-91163763D01*
X206505220Y-91097787D01*
X206465193Y-90965836D01*
X206444920Y-90760000D01*
X206465193Y-90554164D01*
X206525233Y-90356238D01*
X206525233Y-90356237D01*
X206622733Y-90173828D01*
X206753946Y-90013946D01*
X206913828Y-89882733D01*
X207096237Y-89785233D01*
X207162213Y-89765220D01*
X207294164Y-89725193D01*
X207371293Y-89717597D01*
X207448420Y-89710000D01*
X207551580Y-89710000D01*
X207628707Y-89717597D01*
X207628707Y-89717597D01*
G37*
G36*
X201519628Y-89430493D02*
X201567354Y-89444970D01*
X201611336Y-89468479D01*
X201649885Y-89500115D01*
X201681521Y-89538664D01*
X201705030Y-89582646D01*
X201719507Y-89630372D01*
X201725000Y-89686141D01*
X201725000Y-91313859D01*
X201719507Y-91369628D01*
X201705030Y-91417354D01*
X201681521Y-91461336D01*
X201649885Y-91499885D01*
X201611336Y-91531521D01*
X201567354Y-91555030D01*
X201519628Y-91569507D01*
X201463859Y-91575000D01*
X200336141Y-91575000D01*
X200280372Y-91569507D01*
X200232646Y-91555030D01*
X200188664Y-91531521D01*
X200150115Y-91499885D01*
X200118479Y-91461336D01*
X200094970Y-91417354D01*
X200080493Y-91369628D01*
X200075000Y-91313859D01*
X200075000Y-89686141D01*
X200080493Y-89630372D01*
X200094970Y-89582646D01*
X200118479Y-89538664D01*
X200150115Y-89500115D01*
X200188664Y-89468479D01*
X200232646Y-89444970D01*
X200280372Y-89430493D01*
X200336141Y-89425000D01*
X201463859Y-89425000D01*
X201519628Y-89430493D01*
X201519628Y-89430493D01*
G37*
G36*
X198719628Y-89430493D02*
X198767354Y-89444970D01*
X198811336Y-89468479D01*
X198849885Y-89500115D01*
X198881521Y-89538664D01*
X198905030Y-89582646D01*
X198919507Y-89630372D01*
X198925000Y-89686141D01*
X198925000Y-91313859D01*
X198919507Y-91369628D01*
X198905030Y-91417354D01*
X198881521Y-91461336D01*
X198849885Y-91499885D01*
X198811336Y-91531521D01*
X198767354Y-91555030D01*
X198719628Y-91569507D01*
X198663859Y-91575000D01*
X197536141Y-91575000D01*
X197480372Y-91569507D01*
X197432646Y-91555030D01*
X197388664Y-91531521D01*
X197350115Y-91499885D01*
X197318479Y-91461336D01*
X197294970Y-91417354D01*
X197280493Y-91369628D01*
X197275000Y-91313859D01*
X197275000Y-89686141D01*
X197280493Y-89630372D01*
X197294970Y-89582646D01*
X197318479Y-89538664D01*
X197350115Y-89500115D01*
X197388664Y-89468479D01*
X197432646Y-89444970D01*
X197480372Y-89430493D01*
X197536141Y-89425000D01*
X198663859Y-89425000D01*
X198719628Y-89430493D01*
X198719628Y-89430493D01*
G37*
G36*
X166719628Y-87930493D02*
X166767354Y-87944970D01*
X166811336Y-87968479D01*
X166849885Y-88000115D01*
X166881521Y-88038664D01*
X166905030Y-88082646D01*
X166919507Y-88130372D01*
X166925000Y-88186141D01*
X166925000Y-89813859D01*
X166919507Y-89869628D01*
X166905030Y-89917354D01*
X166881521Y-89961336D01*
X166849885Y-89999885D01*
X166811336Y-90031521D01*
X166767354Y-90055030D01*
X166719628Y-90069507D01*
X166663859Y-90075000D01*
X165536141Y-90075000D01*
X165480372Y-90069507D01*
X165432646Y-90055030D01*
X165388664Y-90031521D01*
X165350115Y-89999885D01*
X165318479Y-89961336D01*
X165294970Y-89917354D01*
X165280493Y-89869628D01*
X165275000Y-89813859D01*
X165275000Y-88186141D01*
X165280493Y-88130372D01*
X165294970Y-88082646D01*
X165318479Y-88038664D01*
X165350115Y-88000115D01*
X165388664Y-87968479D01*
X165432646Y-87944970D01*
X165480372Y-87930493D01*
X165536141Y-87925000D01*
X166663859Y-87925000D01*
X166719628Y-87930493D01*
X166719628Y-87930493D01*
G37*
G36*
X169519628Y-87930493D02*
X169567354Y-87944970D01*
X169611336Y-87968479D01*
X169649885Y-88000115D01*
X169681521Y-88038664D01*
X169705030Y-88082646D01*
X169719507Y-88130372D01*
X169725000Y-88186141D01*
X169725000Y-89813859D01*
X169719507Y-89869628D01*
X169705030Y-89917354D01*
X169681521Y-89961336D01*
X169649885Y-89999885D01*
X169611336Y-90031521D01*
X169567354Y-90055030D01*
X169519628Y-90069507D01*
X169463859Y-90075000D01*
X168336141Y-90075000D01*
X168280372Y-90069507D01*
X168232646Y-90055030D01*
X168188664Y-90031521D01*
X168150115Y-89999885D01*
X168118479Y-89961336D01*
X168094970Y-89917354D01*
X168080493Y-89869628D01*
X168075000Y-89813859D01*
X168075000Y-88186141D01*
X168080493Y-88130372D01*
X168094970Y-88082646D01*
X168118479Y-88038664D01*
X168150115Y-88000115D01*
X168188664Y-87968479D01*
X168232646Y-87944970D01*
X168280372Y-87930493D01*
X168336141Y-87925000D01*
X169463859Y-87925000D01*
X169519628Y-87930493D01*
X169519628Y-87930493D01*
G37*
G36*
X176139452Y-88059127D02*
X176277105Y-88086508D01*
X176449994Y-88158121D01*
X176605590Y-88262087D01*
X176737913Y-88394410D01*
X176841879Y-88550006D01*
X176913492Y-88722895D01*
X176950000Y-88906433D01*
X176950000Y-89093567D01*
X176913492Y-89277105D01*
X176841879Y-89449994D01*
X176737913Y-89605590D01*
X176605590Y-89737913D01*
X176449994Y-89841879D01*
X176277105Y-89913492D01*
X176139451Y-89940873D01*
X176093568Y-89950000D01*
X175906432Y-89950000D01*
X175860549Y-89940873D01*
X175722895Y-89913492D01*
X175550006Y-89841879D01*
X175394410Y-89737913D01*
X175262087Y-89605590D01*
X175158121Y-89449994D01*
X175086508Y-89277105D01*
X175050000Y-89093567D01*
X175050000Y-88906433D01*
X175086508Y-88722895D01*
X175158121Y-88550006D01*
X175262087Y-88394410D01*
X175394410Y-88262087D01*
X175550006Y-88158121D01*
X175722895Y-88086508D01*
X175860548Y-88059127D01*
X175906432Y-88050000D01*
X176093568Y-88050000D01*
X176139452Y-88059127D01*
X176139452Y-88059127D01*
G37*
G36*
X207628707Y-87177596D02*
X207705836Y-87185193D01*
X207837787Y-87225220D01*
X207903763Y-87245233D01*
X208086172Y-87342733D01*
X208246054Y-87473946D01*
X208377267Y-87633828D01*
X208474767Y-87816237D01*
X208474767Y-87816238D01*
X208534807Y-88014164D01*
X208555080Y-88220000D01*
X208534807Y-88425836D01*
X208506429Y-88519385D01*
X208474767Y-88623763D01*
X208377267Y-88806172D01*
X208246054Y-88966054D01*
X208086172Y-89097267D01*
X207903763Y-89194767D01*
X207837787Y-89214780D01*
X207705836Y-89254807D01*
X207628707Y-89262404D01*
X207551580Y-89270000D01*
X207448420Y-89270000D01*
X207371293Y-89262404D01*
X207294164Y-89254807D01*
X207162213Y-89214780D01*
X207096237Y-89194767D01*
X206913828Y-89097267D01*
X206753946Y-88966054D01*
X206622733Y-88806172D01*
X206525233Y-88623763D01*
X206493571Y-88519385D01*
X206465193Y-88425836D01*
X206444920Y-88220000D01*
X206465193Y-88014164D01*
X206525233Y-87816238D01*
X206525233Y-87816237D01*
X206622733Y-87633828D01*
X206753946Y-87473946D01*
X206913828Y-87342733D01*
X207096237Y-87245233D01*
X207162213Y-87225220D01*
X207294164Y-87185193D01*
X207371293Y-87177596D01*
X207448420Y-87170000D01*
X207551580Y-87170000D01*
X207628707Y-87177596D01*
X207628707Y-87177596D01*
G37*
G36*
X183219628Y-86430493D02*
X183267354Y-86444970D01*
X183311336Y-86468479D01*
X183349885Y-86500115D01*
X183381521Y-86538664D01*
X183405030Y-86582646D01*
X183419507Y-86630372D01*
X183425000Y-86686141D01*
X183425000Y-88313859D01*
X183419507Y-88369628D01*
X183405030Y-88417354D01*
X183381521Y-88461336D01*
X183349885Y-88499885D01*
X183311336Y-88531521D01*
X183267354Y-88555030D01*
X183219628Y-88569507D01*
X183163859Y-88575000D01*
X182036141Y-88575000D01*
X181980372Y-88569507D01*
X181932646Y-88555030D01*
X181888664Y-88531521D01*
X181850115Y-88499885D01*
X181818479Y-88461336D01*
X181794970Y-88417354D01*
X181780493Y-88369628D01*
X181775000Y-88313859D01*
X181775000Y-86686141D01*
X181780493Y-86630372D01*
X181794970Y-86582646D01*
X181818479Y-86538664D01*
X181850115Y-86500115D01*
X181888664Y-86468479D01*
X181932646Y-86444970D01*
X181980372Y-86430493D01*
X182036141Y-86425000D01*
X183163859Y-86425000D01*
X183219628Y-86430493D01*
X183219628Y-86430493D01*
G37*
G36*
X186019628Y-86430493D02*
X186067354Y-86444970D01*
X186111336Y-86468479D01*
X186149885Y-86500115D01*
X186181521Y-86538664D01*
X186205030Y-86582646D01*
X186219507Y-86630372D01*
X186225000Y-86686141D01*
X186225000Y-88313859D01*
X186219507Y-88369628D01*
X186205030Y-88417354D01*
X186181521Y-88461336D01*
X186149885Y-88499885D01*
X186111336Y-88531521D01*
X186067354Y-88555030D01*
X186019628Y-88569507D01*
X185963859Y-88575000D01*
X184836141Y-88575000D01*
X184780372Y-88569507D01*
X184732646Y-88555030D01*
X184688664Y-88531521D01*
X184650115Y-88499885D01*
X184618479Y-88461336D01*
X184594970Y-88417354D01*
X184580493Y-88369628D01*
X184575000Y-88313859D01*
X184575000Y-86686141D01*
X184580493Y-86630372D01*
X184594970Y-86582646D01*
X184618479Y-86538664D01*
X184650115Y-86500115D01*
X184688664Y-86468479D01*
X184732646Y-86444970D01*
X184780372Y-86430493D01*
X184836141Y-86425000D01*
X185963859Y-86425000D01*
X186019628Y-86430493D01*
X186019628Y-86430493D01*
G37*
G36*
X200628707Y-85697597D02*
X200705836Y-85705193D01*
X200837787Y-85745220D01*
X200903763Y-85765233D01*
X201086172Y-85862733D01*
X201246054Y-85993946D01*
X201377267Y-86153828D01*
X201474767Y-86336237D01*
X201474767Y-86336238D01*
X201534807Y-86534164D01*
X201555080Y-86740000D01*
X201534807Y-86945836D01*
X201494780Y-87077787D01*
X201474767Y-87143763D01*
X201377267Y-87326172D01*
X201246054Y-87486054D01*
X201086172Y-87617267D01*
X200903763Y-87714767D01*
X200837787Y-87734780D01*
X200705836Y-87774807D01*
X200628707Y-87782404D01*
X200551580Y-87790000D01*
X200448420Y-87790000D01*
X200371293Y-87782404D01*
X200294164Y-87774807D01*
X200162213Y-87734780D01*
X200096237Y-87714767D01*
X199913828Y-87617267D01*
X199753946Y-87486054D01*
X199622733Y-87326172D01*
X199525233Y-87143763D01*
X199505220Y-87077787D01*
X199465193Y-86945836D01*
X199444920Y-86740000D01*
X199465193Y-86534164D01*
X199525233Y-86336238D01*
X199525233Y-86336237D01*
X199622733Y-86153828D01*
X199753946Y-85993946D01*
X199913828Y-85862733D01*
X200096237Y-85765233D01*
X200162213Y-85745220D01*
X200294164Y-85705193D01*
X200371293Y-85697597D01*
X200448420Y-85690000D01*
X200551580Y-85690000D01*
X200628707Y-85697597D01*
X200628707Y-85697597D01*
G37*
G36*
X207628707Y-84637597D02*
X207705836Y-84645193D01*
X207837787Y-84685220D01*
X207903763Y-84705233D01*
X208086172Y-84802733D01*
X208246054Y-84933946D01*
X208377267Y-85093828D01*
X208474767Y-85276237D01*
X208486179Y-85313859D01*
X208534807Y-85474164D01*
X208555080Y-85680000D01*
X208534807Y-85885836D01*
X208502012Y-85993946D01*
X208474767Y-86083763D01*
X208377267Y-86266172D01*
X208246054Y-86426054D01*
X208086172Y-86557267D01*
X207903763Y-86654767D01*
X207837787Y-86674780D01*
X207705836Y-86714807D01*
X207628707Y-86722403D01*
X207551580Y-86730000D01*
X207448420Y-86730000D01*
X207371293Y-86722403D01*
X207294164Y-86714807D01*
X207162213Y-86674780D01*
X207096237Y-86654767D01*
X206913828Y-86557267D01*
X206753946Y-86426054D01*
X206622733Y-86266172D01*
X206525233Y-86083763D01*
X206497988Y-85993946D01*
X206465193Y-85885836D01*
X206444920Y-85680000D01*
X206465193Y-85474164D01*
X206513821Y-85313859D01*
X206525233Y-85276237D01*
X206622733Y-85093828D01*
X206753946Y-84933946D01*
X206913828Y-84802733D01*
X207096237Y-84705233D01*
X207162213Y-84685220D01*
X207294164Y-84645193D01*
X207371293Y-84637597D01*
X207448420Y-84630000D01*
X207551580Y-84630000D01*
X207628707Y-84637597D01*
X207628707Y-84637597D01*
G37*
G36*
X193219628Y-84430493D02*
X193267354Y-84444970D01*
X193311336Y-84468479D01*
X193349885Y-84500115D01*
X193381521Y-84538664D01*
X193405030Y-84582646D01*
X193419507Y-84630372D01*
X193425000Y-84686141D01*
X193425000Y-86313859D01*
X193419507Y-86369628D01*
X193405030Y-86417354D01*
X193381521Y-86461336D01*
X193349885Y-86499885D01*
X193311336Y-86531521D01*
X193267354Y-86555030D01*
X193219628Y-86569507D01*
X193163859Y-86575000D01*
X192036141Y-86575000D01*
X191980372Y-86569507D01*
X191932646Y-86555030D01*
X191888664Y-86531521D01*
X191850115Y-86499885D01*
X191818479Y-86461336D01*
X191794970Y-86417354D01*
X191780493Y-86369628D01*
X191775000Y-86313859D01*
X191775000Y-84686141D01*
X191780493Y-84630372D01*
X191794970Y-84582646D01*
X191818479Y-84538664D01*
X191850115Y-84500115D01*
X191888664Y-84468479D01*
X191932646Y-84444970D01*
X191980372Y-84430493D01*
X192036141Y-84425000D01*
X193163859Y-84425000D01*
X193219628Y-84430493D01*
X193219628Y-84430493D01*
G37*
G36*
X196019628Y-84430493D02*
X196067354Y-84444970D01*
X196111336Y-84468479D01*
X196149885Y-84500115D01*
X196181521Y-84538664D01*
X196205030Y-84582646D01*
X196219507Y-84630372D01*
X196225000Y-84686141D01*
X196225000Y-86313859D01*
X196219507Y-86369628D01*
X196205030Y-86417354D01*
X196181521Y-86461336D01*
X196149885Y-86499885D01*
X196111336Y-86531521D01*
X196067354Y-86555030D01*
X196019628Y-86569507D01*
X195963859Y-86575000D01*
X194836141Y-86575000D01*
X194780372Y-86569507D01*
X194732646Y-86555030D01*
X194688664Y-86531521D01*
X194650115Y-86499885D01*
X194618479Y-86461336D01*
X194594970Y-86417354D01*
X194580493Y-86369628D01*
X194575000Y-86313859D01*
X194575000Y-84686141D01*
X194580493Y-84630372D01*
X194594970Y-84582646D01*
X194618479Y-84538664D01*
X194650115Y-84500115D01*
X194688664Y-84468479D01*
X194732646Y-84444970D01*
X194780372Y-84430493D01*
X194836141Y-84425000D01*
X195963859Y-84425000D01*
X196019628Y-84430493D01*
X196019628Y-84430493D01*
G37*
G36*
X166719628Y-83430493D02*
X166767354Y-83444970D01*
X166811336Y-83468479D01*
X166849885Y-83500115D01*
X166881521Y-83538664D01*
X166905030Y-83582646D01*
X166919507Y-83630372D01*
X166925000Y-83686141D01*
X166925000Y-85313859D01*
X166919507Y-85369628D01*
X166905030Y-85417354D01*
X166881521Y-85461336D01*
X166849885Y-85499885D01*
X166811336Y-85531521D01*
X166767354Y-85555030D01*
X166719628Y-85569507D01*
X166663859Y-85575000D01*
X165536141Y-85575000D01*
X165480372Y-85569507D01*
X165432646Y-85555030D01*
X165388664Y-85531521D01*
X165350115Y-85499885D01*
X165318479Y-85461336D01*
X165294970Y-85417354D01*
X165280493Y-85369628D01*
X165275000Y-85313859D01*
X165275000Y-83686141D01*
X165280493Y-83630372D01*
X165294970Y-83582646D01*
X165318479Y-83538664D01*
X165350115Y-83500115D01*
X165388664Y-83468479D01*
X165432646Y-83444970D01*
X165480372Y-83430493D01*
X165536141Y-83425000D01*
X166663859Y-83425000D01*
X166719628Y-83430493D01*
X166719628Y-83430493D01*
G37*
G36*
X169519628Y-83430493D02*
X169567354Y-83444970D01*
X169611336Y-83468479D01*
X169649885Y-83500115D01*
X169681521Y-83538664D01*
X169705030Y-83582646D01*
X169719507Y-83630372D01*
X169725000Y-83686141D01*
X169725000Y-85313859D01*
X169719507Y-85369628D01*
X169705030Y-85417354D01*
X169681521Y-85461336D01*
X169649885Y-85499885D01*
X169611336Y-85531521D01*
X169567354Y-85555030D01*
X169519628Y-85569507D01*
X169463859Y-85575000D01*
X168336141Y-85575000D01*
X168280372Y-85569507D01*
X168232646Y-85555030D01*
X168188664Y-85531521D01*
X168150115Y-85499885D01*
X168118479Y-85461336D01*
X168094970Y-85417354D01*
X168080493Y-85369628D01*
X168075000Y-85313859D01*
X168075000Y-83686141D01*
X168080493Y-83630372D01*
X168094970Y-83582646D01*
X168118479Y-83538664D01*
X168150115Y-83500115D01*
X168188664Y-83468479D01*
X168232646Y-83444970D01*
X168280372Y-83430493D01*
X168336141Y-83425000D01*
X169463859Y-83425000D01*
X169519628Y-83430493D01*
X169519628Y-83430493D01*
G37*
G36*
X200628707Y-83157596D02*
X200705836Y-83165193D01*
X200837787Y-83205220D01*
X200903763Y-83225233D01*
X201086172Y-83322733D01*
X201246054Y-83453946D01*
X201377267Y-83613828D01*
X201474767Y-83796237D01*
X201474767Y-83796238D01*
X201534807Y-83994164D01*
X201555080Y-84200000D01*
X201534807Y-84405836D01*
X201512123Y-84480615D01*
X201474767Y-84603763D01*
X201377267Y-84786172D01*
X201246054Y-84946054D01*
X201086172Y-85077267D01*
X200903763Y-85174767D01*
X200837787Y-85194780D01*
X200705836Y-85234807D01*
X200628707Y-85242404D01*
X200551580Y-85250000D01*
X200448420Y-85250000D01*
X200371293Y-85242404D01*
X200294164Y-85234807D01*
X200162213Y-85194780D01*
X200096237Y-85174767D01*
X199913828Y-85077267D01*
X199753946Y-84946054D01*
X199622733Y-84786172D01*
X199525233Y-84603763D01*
X199487877Y-84480615D01*
X199465193Y-84405836D01*
X199444920Y-84200000D01*
X199465193Y-83994164D01*
X199525233Y-83796238D01*
X199525233Y-83796237D01*
X199622733Y-83613828D01*
X199753946Y-83453946D01*
X199913828Y-83322733D01*
X200096237Y-83225233D01*
X200162213Y-83205220D01*
X200294164Y-83165193D01*
X200371293Y-83157596D01*
X200448420Y-83150000D01*
X200551580Y-83150000D01*
X200628707Y-83157596D01*
X200628707Y-83157596D01*
G37*
G36*
X176139451Y-83179127D02*
X176277105Y-83206508D01*
X176449994Y-83278121D01*
X176605590Y-83382087D01*
X176737913Y-83514410D01*
X176841879Y-83670006D01*
X176913492Y-83842895D01*
X176950000Y-84026433D01*
X176950000Y-84213567D01*
X176913492Y-84397105D01*
X176841879Y-84569994D01*
X176737913Y-84725590D01*
X176605590Y-84857913D01*
X176449994Y-84961879D01*
X176277105Y-85033492D01*
X176139452Y-85060873D01*
X176093568Y-85070000D01*
X175906432Y-85070000D01*
X175860548Y-85060873D01*
X175722895Y-85033492D01*
X175550006Y-84961879D01*
X175394410Y-84857913D01*
X175262087Y-84725590D01*
X175158121Y-84569994D01*
X175086508Y-84397105D01*
X175050000Y-84213567D01*
X175050000Y-84026433D01*
X175086508Y-83842895D01*
X175158121Y-83670006D01*
X175262087Y-83514410D01*
X175394410Y-83382087D01*
X175550006Y-83278121D01*
X175722895Y-83206508D01*
X175860549Y-83179127D01*
X175906432Y-83170000D01*
X176093568Y-83170000D01*
X176139451Y-83179127D01*
X176139451Y-83179127D01*
G37*
G36*
X207628707Y-82097596D02*
X207705836Y-82105193D01*
X207837787Y-82145220D01*
X207903763Y-82165233D01*
X208086172Y-82262733D01*
X208246054Y-82393946D01*
X208377267Y-82553828D01*
X208474767Y-82736237D01*
X208474767Y-82736238D01*
X208534807Y-82934164D01*
X208555080Y-83140000D01*
X208534807Y-83345836D01*
X208508869Y-83431341D01*
X208474767Y-83543763D01*
X208377267Y-83726172D01*
X208246054Y-83886054D01*
X208086172Y-84017267D01*
X207903763Y-84114767D01*
X207837787Y-84134780D01*
X207705836Y-84174807D01*
X207628707Y-84182403D01*
X207551580Y-84190000D01*
X207448420Y-84190000D01*
X207371293Y-84182403D01*
X207294164Y-84174807D01*
X207162213Y-84134780D01*
X207096237Y-84114767D01*
X206913828Y-84017267D01*
X206753946Y-83886054D01*
X206622733Y-83726172D01*
X206525233Y-83543763D01*
X206491131Y-83431341D01*
X206465193Y-83345836D01*
X206444920Y-83140000D01*
X206465193Y-82934164D01*
X206525233Y-82736238D01*
X206525233Y-82736237D01*
X206622733Y-82553828D01*
X206753946Y-82393946D01*
X206913828Y-82262733D01*
X207096237Y-82165233D01*
X207162213Y-82145220D01*
X207294164Y-82105193D01*
X207371293Y-82097596D01*
X207448420Y-82090000D01*
X207551580Y-82090000D01*
X207628707Y-82097596D01*
X207628707Y-82097596D01*
G37*
G36*
X200628707Y-80617597D02*
X200705836Y-80625193D01*
X200837787Y-80665220D01*
X200903763Y-80685233D01*
X201086172Y-80782733D01*
X201246054Y-80913946D01*
X201377267Y-81073828D01*
X201474767Y-81256237D01*
X201474767Y-81256238D01*
X201534807Y-81454164D01*
X201555080Y-81660000D01*
X201534807Y-81865836D01*
X201525960Y-81895000D01*
X201474767Y-82063763D01*
X201377267Y-82246172D01*
X201246054Y-82406054D01*
X201086172Y-82537267D01*
X200903763Y-82634767D01*
X200837787Y-82654780D01*
X200705836Y-82694807D01*
X200628707Y-82702404D01*
X200551580Y-82710000D01*
X200448420Y-82710000D01*
X200371293Y-82702404D01*
X200294164Y-82694807D01*
X200162213Y-82654780D01*
X200096237Y-82634767D01*
X199913828Y-82537267D01*
X199753946Y-82406054D01*
X199622733Y-82246172D01*
X199525233Y-82063763D01*
X199474040Y-81895000D01*
X199465193Y-81865836D01*
X199444920Y-81660000D01*
X199465193Y-81454164D01*
X199525233Y-81256238D01*
X199525233Y-81256237D01*
X199622733Y-81073828D01*
X199753946Y-80913946D01*
X199913828Y-80782733D01*
X200096237Y-80685233D01*
X200162213Y-80665220D01*
X200294164Y-80625193D01*
X200371293Y-80617597D01*
X200448420Y-80610000D01*
X200551580Y-80610000D01*
X200628707Y-80617597D01*
X200628707Y-80617597D01*
G37*
G36*
X191869628Y-80580493D02*
X191917354Y-80594970D01*
X191961336Y-80618479D01*
X191999885Y-80650115D01*
X192031521Y-80688664D01*
X192055030Y-80732646D01*
X192069507Y-80780372D01*
X192075000Y-80836141D01*
X192075000Y-81963859D01*
X192069507Y-82019628D01*
X192055030Y-82067354D01*
X192031521Y-82111336D01*
X191999885Y-82149885D01*
X191961336Y-82181521D01*
X191917354Y-82205030D01*
X191869628Y-82219507D01*
X191813859Y-82225000D01*
X190186141Y-82225000D01*
X190130372Y-82219507D01*
X190082646Y-82205030D01*
X190038664Y-82181521D01*
X190000115Y-82149885D01*
X189968479Y-82111336D01*
X189944970Y-82067354D01*
X189930493Y-82019628D01*
X189925000Y-81963859D01*
X189925000Y-80836141D01*
X189930493Y-80780372D01*
X189944970Y-80732646D01*
X189968479Y-80688664D01*
X190000115Y-80650115D01*
X190038664Y-80618479D01*
X190082646Y-80594970D01*
X190130372Y-80580493D01*
X190186141Y-80575000D01*
X191813859Y-80575000D01*
X191869628Y-80580493D01*
X191869628Y-80580493D01*
G37*
G36*
X188369628Y-80580493D02*
X188417354Y-80594970D01*
X188461336Y-80618479D01*
X188499885Y-80650115D01*
X188531521Y-80688664D01*
X188555030Y-80732646D01*
X188569507Y-80780372D01*
X188575000Y-80836141D01*
X188575000Y-81963859D01*
X188569507Y-82019628D01*
X188555030Y-82067354D01*
X188531521Y-82111336D01*
X188499885Y-82149885D01*
X188461336Y-82181521D01*
X188417354Y-82205030D01*
X188369628Y-82219507D01*
X188313859Y-82225000D01*
X186686141Y-82225000D01*
X186630372Y-82219507D01*
X186582646Y-82205030D01*
X186538664Y-82181521D01*
X186500115Y-82149885D01*
X186468479Y-82111336D01*
X186444970Y-82067354D01*
X186430493Y-82019628D01*
X186425000Y-81963859D01*
X186425000Y-80836141D01*
X186430493Y-80780372D01*
X186444970Y-80732646D01*
X186468479Y-80688664D01*
X186500115Y-80650115D01*
X186538664Y-80618479D01*
X186582646Y-80594970D01*
X186630372Y-80580493D01*
X186686141Y-80575000D01*
X188313859Y-80575000D01*
X188369628Y-80580493D01*
X188369628Y-80580493D01*
G37*
G36*
X200628707Y-78077596D02*
X200705836Y-78085193D01*
X200834488Y-78124219D01*
X200903763Y-78145233D01*
X201086172Y-78242733D01*
X201246054Y-78373946D01*
X201377267Y-78533828D01*
X201474767Y-78716237D01*
X201474767Y-78716238D01*
X201534807Y-78914164D01*
X201555080Y-79120000D01*
X201534807Y-79325836D01*
X201506392Y-79419507D01*
X201474767Y-79523763D01*
X201377267Y-79706172D01*
X201246054Y-79866054D01*
X201086172Y-79997267D01*
X200903763Y-80094767D01*
X200837787Y-80114780D01*
X200705836Y-80154807D01*
X200628707Y-80162404D01*
X200551580Y-80170000D01*
X200448420Y-80170000D01*
X200371293Y-80162404D01*
X200294164Y-80154807D01*
X200162213Y-80114780D01*
X200096237Y-80094767D01*
X199913828Y-79997267D01*
X199753946Y-79866054D01*
X199622733Y-79706172D01*
X199525233Y-79523763D01*
X199493608Y-79419507D01*
X199465193Y-79325836D01*
X199444920Y-79120000D01*
X199465193Y-78914164D01*
X199525233Y-78716238D01*
X199525233Y-78716237D01*
X199622733Y-78533828D01*
X199753946Y-78373946D01*
X199913828Y-78242733D01*
X200096237Y-78145233D01*
X200165512Y-78124219D01*
X200294164Y-78085193D01*
X200371293Y-78077596D01*
X200448420Y-78070000D01*
X200551580Y-78070000D01*
X200628707Y-78077596D01*
X200628707Y-78077596D01*
G37*
G36*
X208310000Y-74960000D02*
X207906218Y-74960000D01*
X207881832Y-74962402D01*
X207858383Y-74969515D01*
X207836772Y-74981066D01*
X207817830Y-74996612D01*
X207802284Y-75015554D01*
X207790733Y-75037165D01*
X207783620Y-75060614D01*
X207781218Y-75085000D01*
X207783620Y-75109386D01*
X207790733Y-75132835D01*
X207802284Y-75154446D01*
X207817830Y-75173388D01*
X207836770Y-75188933D01*
X207838705Y-75190226D01*
X208019774Y-75371295D01*
X208162046Y-75584220D01*
X208260042Y-75820804D01*
X208310000Y-76071960D01*
X208310000Y-76328040D01*
X208260042Y-76579196D01*
X208162046Y-76815780D01*
X208019774Y-77028705D01*
X207838705Y-77209774D01*
X207625779Y-77352047D01*
X207619820Y-77354515D01*
X207598209Y-77366066D01*
X207579267Y-77381611D01*
X207563721Y-77400553D01*
X207552170Y-77422163D01*
X207545056Y-77445612D01*
X207542654Y-77469999D01*
X207545056Y-77494385D01*
X207552169Y-77517834D01*
X207563720Y-77539445D01*
X207579265Y-77558387D01*
X207598207Y-77573933D01*
X207619820Y-77585485D01*
X207625779Y-77587953D01*
X207838705Y-77730226D01*
X208019774Y-77911295D01*
X208162046Y-78124220D01*
X208260042Y-78360804D01*
X208310000Y-78611960D01*
X208310000Y-78868040D01*
X208260042Y-79119196D01*
X208162046Y-79355780D01*
X208019774Y-79568705D01*
X207838705Y-79749774D01*
X207625780Y-79892046D01*
X207389196Y-79990042D01*
X207138040Y-80040000D01*
X206881960Y-80040000D01*
X206630804Y-79990042D01*
X206394220Y-79892046D01*
X206181295Y-79749774D01*
X206000226Y-79568705D01*
X205857954Y-79355780D01*
X205759958Y-79119196D01*
X205710000Y-78868040D01*
X205710000Y-78611960D01*
X205759958Y-78360804D01*
X205857954Y-78124220D01*
X206000226Y-77911295D01*
X206181295Y-77730226D01*
X206394221Y-77587953D01*
X206400180Y-77585485D01*
X206421791Y-77573934D01*
X206440733Y-77558389D01*
X206456279Y-77539447D01*
X206467830Y-77517837D01*
X206474944Y-77494388D01*
X206477346Y-77470001D01*
X206474944Y-77445615D01*
X206467831Y-77422166D01*
X206456280Y-77400555D01*
X206440735Y-77381613D01*
X206421793Y-77366067D01*
X206400180Y-77354515D01*
X206394221Y-77352047D01*
X206181295Y-77209774D01*
X206000226Y-77028705D01*
X205857954Y-76815780D01*
X205759958Y-76579196D01*
X205710000Y-76328040D01*
X205710000Y-76071960D01*
X205759958Y-75820804D01*
X205857954Y-75584220D01*
X206000226Y-75371295D01*
X206181295Y-75190226D01*
X206183230Y-75188933D01*
X206202172Y-75173387D01*
X206217717Y-75154445D01*
X206229268Y-75132834D01*
X206236381Y-75109384D01*
X206238782Y-75084998D01*
X206236380Y-75060612D01*
X206229266Y-75037163D01*
X206217715Y-75015552D01*
X206202169Y-74996610D01*
X206183227Y-74981065D01*
X206161616Y-74969514D01*
X206138166Y-74962401D01*
X206113782Y-74960000D01*
X205710000Y-74960000D01*
X205710000Y-72360000D01*
X208310000Y-72360000D01*
X208310000Y-74960000D01*
X208310000Y-74960000D01*
G37*
G36*
X204616318Y-78004411D02*
X204688767Y-78018822D01*
X204730578Y-78036141D01*
X204825257Y-78075358D01*
X204948100Y-78157439D01*
X205052561Y-78261900D01*
X205134642Y-78384743D01*
X205191178Y-78521234D01*
X205220000Y-78666130D01*
X205220000Y-78813870D01*
X205191178Y-78958766D01*
X205134642Y-79095257D01*
X205052561Y-79218100D01*
X204948100Y-79322561D01*
X204825257Y-79404642D01*
X204789369Y-79419507D01*
X204688767Y-79461178D01*
X204616318Y-79475589D01*
X204543870Y-79490000D01*
X204396130Y-79490000D01*
X204323682Y-79475589D01*
X204251233Y-79461178D01*
X204150631Y-79419507D01*
X204114743Y-79404642D01*
X203991900Y-79322561D01*
X203887439Y-79218100D01*
X203805358Y-79095257D01*
X203748822Y-78958766D01*
X203720000Y-78813870D01*
X203720000Y-78666130D01*
X203748822Y-78521234D01*
X203805358Y-78384743D01*
X203887439Y-78261900D01*
X203991900Y-78157439D01*
X204114743Y-78075358D01*
X204209422Y-78036141D01*
X204251233Y-78018822D01*
X204323682Y-78004411D01*
X204396130Y-77990000D01*
X204543870Y-77990000D01*
X204616318Y-78004411D01*
X204616318Y-78004411D01*
G37*
G36*
X191869628Y-77780493D02*
X191917354Y-77794970D01*
X191961336Y-77818479D01*
X191999885Y-77850115D01*
X192031521Y-77888664D01*
X192055030Y-77932646D01*
X192069507Y-77980372D01*
X192075000Y-78036141D01*
X192075000Y-79163859D01*
X192069507Y-79219628D01*
X192055030Y-79267354D01*
X192031521Y-79311336D01*
X191999885Y-79349885D01*
X191961336Y-79381521D01*
X191917354Y-79405030D01*
X191869628Y-79419507D01*
X191813859Y-79425000D01*
X190186141Y-79425000D01*
X190130372Y-79419507D01*
X190082646Y-79405030D01*
X190038664Y-79381521D01*
X190000115Y-79349885D01*
X189968479Y-79311336D01*
X189944970Y-79267354D01*
X189930493Y-79219628D01*
X189925000Y-79163859D01*
X189925000Y-78036141D01*
X189930493Y-77980372D01*
X189944970Y-77932646D01*
X189968479Y-77888664D01*
X190000115Y-77850115D01*
X190038664Y-77818479D01*
X190082646Y-77794970D01*
X190130372Y-77780493D01*
X190186141Y-77775000D01*
X191813859Y-77775000D01*
X191869628Y-77780493D01*
X191869628Y-77780493D01*
G37*
G36*
X188369628Y-77780493D02*
X188417354Y-77794970D01*
X188461336Y-77818479D01*
X188499885Y-77850115D01*
X188531521Y-77888664D01*
X188555030Y-77932646D01*
X188569507Y-77980372D01*
X188575000Y-78036141D01*
X188575000Y-79163859D01*
X188569507Y-79219628D01*
X188555030Y-79267354D01*
X188531521Y-79311336D01*
X188499885Y-79349885D01*
X188461336Y-79381521D01*
X188417354Y-79405030D01*
X188369628Y-79419507D01*
X188313859Y-79425000D01*
X186686141Y-79425000D01*
X186630372Y-79419507D01*
X186582646Y-79405030D01*
X186538664Y-79381521D01*
X186500115Y-79349885D01*
X186468479Y-79311336D01*
X186444970Y-79267354D01*
X186430493Y-79219628D01*
X186425000Y-79163859D01*
X186425000Y-78036141D01*
X186430493Y-77980372D01*
X186444970Y-77932646D01*
X186468479Y-77888664D01*
X186500115Y-77850115D01*
X186538664Y-77818479D01*
X186582646Y-77794970D01*
X186630372Y-77780493D01*
X186686141Y-77775000D01*
X188313859Y-77775000D01*
X188369628Y-77780493D01*
X188369628Y-77780493D01*
G37*
G36*
X200628707Y-75537597D02*
X200705836Y-75545193D01*
X200834488Y-75584219D01*
X200903763Y-75605233D01*
X201086172Y-75702733D01*
X201246054Y-75833946D01*
X201377267Y-75993828D01*
X201474767Y-76176237D01*
X201474767Y-76176238D01*
X201534807Y-76374164D01*
X201555080Y-76580000D01*
X201534807Y-76785836D01*
X201494780Y-76917787D01*
X201474767Y-76983763D01*
X201377267Y-77166172D01*
X201246054Y-77326054D01*
X201086172Y-77457267D01*
X200903763Y-77554767D01*
X200840580Y-77573933D01*
X200705836Y-77614807D01*
X200628707Y-77622403D01*
X200551580Y-77630000D01*
X200448420Y-77630000D01*
X200371293Y-77622403D01*
X200294164Y-77614807D01*
X200159420Y-77573933D01*
X200096237Y-77554767D01*
X199913828Y-77457267D01*
X199753946Y-77326054D01*
X199622733Y-77166172D01*
X199525233Y-76983763D01*
X199505220Y-76917787D01*
X199465193Y-76785836D01*
X199444920Y-76580000D01*
X199465193Y-76374164D01*
X199525233Y-76176238D01*
X199525233Y-76176237D01*
X199622733Y-75993828D01*
X199753946Y-75833946D01*
X199913828Y-75702733D01*
X200096237Y-75605233D01*
X200165512Y-75584219D01*
X200294164Y-75545193D01*
X200371293Y-75537597D01*
X200448420Y-75530000D01*
X200551580Y-75530000D01*
X200628707Y-75537597D01*
X200628707Y-75537597D01*
G37*
G36*
X204616318Y-75464411D02*
X204688767Y-75478822D01*
X204745303Y-75502240D01*
X204825257Y-75535358D01*
X204948100Y-75617439D01*
X205052561Y-75721900D01*
X205134642Y-75844743D01*
X205191178Y-75981234D01*
X205220000Y-76126130D01*
X205220000Y-76273870D01*
X205191178Y-76418766D01*
X205134642Y-76555257D01*
X205052561Y-76678100D01*
X204948100Y-76782561D01*
X204825257Y-76864642D01*
X204745303Y-76897760D01*
X204688767Y-76921178D01*
X204616318Y-76935589D01*
X204543870Y-76950000D01*
X204396130Y-76950000D01*
X204323682Y-76935589D01*
X204251233Y-76921178D01*
X204194697Y-76897760D01*
X204114743Y-76864642D01*
X203991900Y-76782561D01*
X203887439Y-76678100D01*
X203805358Y-76555257D01*
X203748822Y-76418766D01*
X203720000Y-76273870D01*
X203720000Y-76126130D01*
X203748822Y-75981234D01*
X203805358Y-75844743D01*
X203887439Y-75721900D01*
X203991900Y-75617439D01*
X204114743Y-75535358D01*
X204194697Y-75502240D01*
X204251233Y-75478822D01*
X204323682Y-75464411D01*
X204396130Y-75450000D01*
X204543870Y-75450000D01*
X204616318Y-75464411D01*
X204616318Y-75464411D01*
G37*
G36*
X200628707Y-72997596D02*
X200705836Y-73005193D01*
X200837787Y-73045220D01*
X200903763Y-73065233D01*
X201086172Y-73162733D01*
X201246054Y-73293946D01*
X201377267Y-73453828D01*
X201474767Y-73636237D01*
X201474767Y-73636238D01*
X201534807Y-73834164D01*
X201555080Y-74040000D01*
X201534807Y-74245836D01*
X201497255Y-74369628D01*
X201474767Y-74443763D01*
X201377267Y-74626172D01*
X201246054Y-74786054D01*
X201086172Y-74917267D01*
X200903763Y-75014767D01*
X200837787Y-75034780D01*
X200705836Y-75074807D01*
X200628707Y-75082403D01*
X200551580Y-75090000D01*
X200448420Y-75090000D01*
X200371293Y-75082403D01*
X200294164Y-75074807D01*
X200162213Y-75034780D01*
X200096237Y-75014767D01*
X199913828Y-74917267D01*
X199753946Y-74786054D01*
X199622733Y-74626172D01*
X199525233Y-74443763D01*
X199502745Y-74369628D01*
X199465193Y-74245836D01*
X199444920Y-74040000D01*
X199465193Y-73834164D01*
X199525233Y-73636238D01*
X199525233Y-73636237D01*
X199622733Y-73453828D01*
X199753946Y-73293946D01*
X199913828Y-73162733D01*
X200096237Y-73065233D01*
X200162213Y-73045220D01*
X200294164Y-73005193D01*
X200371293Y-72997596D01*
X200448420Y-72990000D01*
X200551580Y-72990000D01*
X200628707Y-72997596D01*
X200628707Y-72997596D01*
G37*
G36*
X196019628Y-72430493D02*
X196067354Y-72444970D01*
X196111336Y-72468479D01*
X196149885Y-72500115D01*
X196181521Y-72538664D01*
X196205030Y-72582646D01*
X196219507Y-72630372D01*
X196225000Y-72686141D01*
X196225000Y-74313859D01*
X196219507Y-74369628D01*
X196205030Y-74417354D01*
X196181521Y-74461336D01*
X196149885Y-74499885D01*
X196111336Y-74531521D01*
X196067354Y-74555030D01*
X196019628Y-74569507D01*
X195963859Y-74575000D01*
X194836141Y-74575000D01*
X194780372Y-74569507D01*
X194732646Y-74555030D01*
X194688664Y-74531521D01*
X194650115Y-74499885D01*
X194618479Y-74461336D01*
X194594970Y-74417354D01*
X194580493Y-74369628D01*
X194575000Y-74313859D01*
X194575000Y-72686141D01*
X194580493Y-72630372D01*
X194594970Y-72582646D01*
X194618479Y-72538664D01*
X194650115Y-72500115D01*
X194688664Y-72468479D01*
X194732646Y-72444970D01*
X194780372Y-72430493D01*
X194836141Y-72425000D01*
X195963859Y-72425000D01*
X196019628Y-72430493D01*
X196019628Y-72430493D01*
G37*
G36*
X193219628Y-72430493D02*
X193267354Y-72444970D01*
X193311336Y-72468479D01*
X193349885Y-72500115D01*
X193381521Y-72538664D01*
X193405030Y-72582646D01*
X193419507Y-72630372D01*
X193425000Y-72686141D01*
X193425000Y-74313859D01*
X193419507Y-74369628D01*
X193405030Y-74417354D01*
X193381521Y-74461336D01*
X193349885Y-74499885D01*
X193311336Y-74531521D01*
X193267354Y-74555030D01*
X193219628Y-74569507D01*
X193163859Y-74575000D01*
X192036141Y-74575000D01*
X191980372Y-74569507D01*
X191932646Y-74555030D01*
X191888664Y-74531521D01*
X191850115Y-74499885D01*
X191818479Y-74461336D01*
X191794970Y-74417354D01*
X191780493Y-74369628D01*
X191775000Y-74313859D01*
X191775000Y-72686141D01*
X191780493Y-72630372D01*
X191794970Y-72582646D01*
X191818479Y-72538664D01*
X191850115Y-72500115D01*
X191888664Y-72468479D01*
X191932646Y-72444970D01*
X191980372Y-72430493D01*
X192036141Y-72425000D01*
X193163859Y-72425000D01*
X193219628Y-72430493D01*
X193219628Y-72430493D01*
G37*
G36*
X204616318Y-72924411D02*
X204688767Y-72938822D01*
X204745303Y-72962240D01*
X204825257Y-72995358D01*
X204948100Y-73077439D01*
X205052561Y-73181900D01*
X205134642Y-73304743D01*
X205191178Y-73441234D01*
X205220000Y-73586130D01*
X205220000Y-73733870D01*
X205191178Y-73878766D01*
X205134642Y-74015257D01*
X205052561Y-74138100D01*
X204948100Y-74242561D01*
X204825257Y-74324642D01*
X204745303Y-74357760D01*
X204688767Y-74381178D01*
X204616318Y-74395589D01*
X204543870Y-74410000D01*
X204396130Y-74410000D01*
X204323682Y-74395589D01*
X204251233Y-74381178D01*
X204194697Y-74357760D01*
X204114743Y-74324642D01*
X203991900Y-74242561D01*
X203887439Y-74138100D01*
X203805358Y-74015257D01*
X203748822Y-73878766D01*
X203720000Y-73733870D01*
X203720000Y-73586130D01*
X203748822Y-73441234D01*
X203805358Y-73304743D01*
X203887439Y-73181900D01*
X203991900Y-73077439D01*
X204114743Y-72995358D01*
X204194697Y-72962240D01*
X204251233Y-72938822D01*
X204323682Y-72924411D01*
X204396130Y-72910000D01*
X204543870Y-72910000D01*
X204616318Y-72924411D01*
X204616318Y-72924411D01*
G37*
G36*
X201550000Y-72550000D02*
X199450000Y-72550000D01*
X199450000Y-70450000D01*
X201550000Y-70450000D01*
X201550000Y-72550000D01*
X201550000Y-72550000D01*
G37*
G36*
X190050800Y-71950800D02*
X186949200Y-71950800D01*
X186949200Y-70099200D01*
X190050800Y-70099200D01*
X190050800Y-71950800D01*
X190050800Y-71950800D01*
G37*
G36*
X191484500Y-71788787D02*
X190366900Y-71788787D01*
X190366900Y-70671187D01*
X191484500Y-70671187D01*
X191484500Y-71788787D01*
X191484500Y-71788787D01*
G37*
G36*
X186633100Y-71788787D02*
X185515500Y-71788787D01*
X185515500Y-70671187D01*
X186633100Y-70671187D01*
X186633100Y-71788787D01*
X186633100Y-71788787D01*
G37*
G36*
X190225770Y-69250796D02*
X188699230Y-69250796D01*
X188699230Y-66649204D01*
X190225770Y-66649204D01*
X190225770Y-69250796D01*
X190225770Y-69250796D01*
G37*
G36*
X188300770Y-69250796D02*
X186774230Y-69250796D01*
X186774230Y-66649204D01*
X188300770Y-66649204D01*
X188300770Y-69250796D01*
X188300770Y-69250796D01*
G37*
G36*
X191833750Y-68758821D02*
X190716150Y-68758821D01*
X190716150Y-67641221D01*
X191833750Y-67641221D01*
X191833750Y-68758821D01*
X191833750Y-68758821D01*
G37*
G36*
X186283850Y-68758821D02*
X185166250Y-68758821D01*
X185166250Y-67641221D01*
X186283850Y-67641221D01*
X186283850Y-68758821D01*
X186283850Y-68758821D01*
G37*
M02*
