G04 #@! TF.GenerationSoftware,KiCad,Pcbnew,5.0.0+dfsg1-2*
G04 #@! TF.CreationDate,2018-10-17T02:30:28+04:00*
G04 #@! TF.ProjectId,avrUsb,6176725573622E6B696361645F706362,rev?*
G04 #@! TF.SameCoordinates,Original*
G04 #@! TF.FileFunction,Soldermask,Top*
G04 #@! TF.FilePolarity,Negative*
%FSLAX46Y46*%
G04 Gerber Fmt 4.6, Leading zero omitted, Abs format (unit mm)*
G04 Created by KiCad (PCBNEW 5.0.0+dfsg1-2) date Wed Oct 17 02:30:28 2018*
%MOMM*%
%LPD*%
G01*
G04 APERTURE LIST*
%ADD10C,0.100000*%
%ADD11C,1.650000*%
%ADD12R,2.100000X2.100000*%
%ADD13O,2.100000X2.100000*%
%ADD14R,2.000000X0.950000*%
%ADD15R,0.950000X2.000000*%
%ADD16R,1.526540X2.601593*%
%ADD17R,0.501600X1.851600*%
%ADD18R,1.117600X1.117600*%
%ADD19C,1.900000*%
G04 APERTURE END LIST*
D10*
G04 #@! TO.C,X1*
G36*
X192500500Y-70398900D02*
X190303400Y-70398900D01*
X190303400Y-72062600D01*
X192500500Y-72062600D01*
X192500500Y-70398900D01*
G37*
G36*
X186696600Y-70398900D02*
X184499500Y-70398900D01*
X184499500Y-72062600D01*
X186696600Y-72062600D01*
X186696600Y-70398900D01*
G37*
G36*
X190455800Y-70348100D02*
X190455800Y-67376300D01*
X190482315Y-67221592D01*
X190555339Y-67082650D01*
X190667725Y-66973074D01*
X190963800Y-66881000D01*
X191471800Y-66881000D01*
X191624856Y-66905242D01*
X191762930Y-66975594D01*
X191872506Y-67085170D01*
X191967100Y-67376300D01*
X191967100Y-69446400D01*
X192500500Y-69446400D01*
X192500500Y-70348100D01*
X190455800Y-70348100D01*
G37*
G36*
X186544200Y-70348100D02*
X186544200Y-67376300D01*
X186517685Y-67221592D01*
X186444661Y-67082650D01*
X186332275Y-66973074D01*
X186036200Y-66881000D01*
X185528200Y-66881000D01*
X185375144Y-66905242D01*
X185237070Y-66975594D01*
X185127494Y-67085170D01*
X185032900Y-67376300D01*
X185032900Y-69446400D01*
X184499500Y-69446400D01*
X184499500Y-70348100D01*
X186544200Y-70348100D01*
G37*
G04 #@! TD*
G04 #@! TO.C,C1*
G36*
X169427346Y-87926589D02*
X169459380Y-87931341D01*
X169490794Y-87939210D01*
X169521286Y-87950120D01*
X169550561Y-87963966D01*
X169578338Y-87980615D01*
X169604350Y-87999907D01*
X169628345Y-88021655D01*
X169650093Y-88045650D01*
X169669385Y-88071662D01*
X169686034Y-88099439D01*
X169699880Y-88128714D01*
X169710790Y-88159206D01*
X169718659Y-88190620D01*
X169723411Y-88222654D01*
X169725000Y-88255000D01*
X169725000Y-89745000D01*
X169723411Y-89777346D01*
X169718659Y-89809380D01*
X169710790Y-89840794D01*
X169699880Y-89871286D01*
X169686034Y-89900561D01*
X169669385Y-89928338D01*
X169650093Y-89954350D01*
X169628345Y-89978345D01*
X169604350Y-90000093D01*
X169578338Y-90019385D01*
X169550561Y-90036034D01*
X169521286Y-90049880D01*
X169490794Y-90060790D01*
X169459380Y-90068659D01*
X169427346Y-90073411D01*
X169395000Y-90075000D01*
X168405000Y-90075000D01*
X168372654Y-90073411D01*
X168340620Y-90068659D01*
X168309206Y-90060790D01*
X168278714Y-90049880D01*
X168249439Y-90036034D01*
X168221662Y-90019385D01*
X168195650Y-90000093D01*
X168171655Y-89978345D01*
X168149907Y-89954350D01*
X168130615Y-89928338D01*
X168113966Y-89900561D01*
X168100120Y-89871286D01*
X168089210Y-89840794D01*
X168081341Y-89809380D01*
X168076589Y-89777346D01*
X168075000Y-89745000D01*
X168075000Y-88255000D01*
X168076589Y-88222654D01*
X168081341Y-88190620D01*
X168089210Y-88159206D01*
X168100120Y-88128714D01*
X168113966Y-88099439D01*
X168130615Y-88071662D01*
X168149907Y-88045650D01*
X168171655Y-88021655D01*
X168195650Y-87999907D01*
X168221662Y-87980615D01*
X168249439Y-87963966D01*
X168278714Y-87950120D01*
X168309206Y-87939210D01*
X168340620Y-87931341D01*
X168372654Y-87926589D01*
X168405000Y-87925000D01*
X169395000Y-87925000D01*
X169427346Y-87926589D01*
X169427346Y-87926589D01*
G37*
D11*
X168900000Y-89000000D03*
D10*
G36*
X166627346Y-87926589D02*
X166659380Y-87931341D01*
X166690794Y-87939210D01*
X166721286Y-87950120D01*
X166750561Y-87963966D01*
X166778338Y-87980615D01*
X166804350Y-87999907D01*
X166828345Y-88021655D01*
X166850093Y-88045650D01*
X166869385Y-88071662D01*
X166886034Y-88099439D01*
X166899880Y-88128714D01*
X166910790Y-88159206D01*
X166918659Y-88190620D01*
X166923411Y-88222654D01*
X166925000Y-88255000D01*
X166925000Y-89745000D01*
X166923411Y-89777346D01*
X166918659Y-89809380D01*
X166910790Y-89840794D01*
X166899880Y-89871286D01*
X166886034Y-89900561D01*
X166869385Y-89928338D01*
X166850093Y-89954350D01*
X166828345Y-89978345D01*
X166804350Y-90000093D01*
X166778338Y-90019385D01*
X166750561Y-90036034D01*
X166721286Y-90049880D01*
X166690794Y-90060790D01*
X166659380Y-90068659D01*
X166627346Y-90073411D01*
X166595000Y-90075000D01*
X165605000Y-90075000D01*
X165572654Y-90073411D01*
X165540620Y-90068659D01*
X165509206Y-90060790D01*
X165478714Y-90049880D01*
X165449439Y-90036034D01*
X165421662Y-90019385D01*
X165395650Y-90000093D01*
X165371655Y-89978345D01*
X165349907Y-89954350D01*
X165330615Y-89928338D01*
X165313966Y-89900561D01*
X165300120Y-89871286D01*
X165289210Y-89840794D01*
X165281341Y-89809380D01*
X165276589Y-89777346D01*
X165275000Y-89745000D01*
X165275000Y-88255000D01*
X165276589Y-88222654D01*
X165281341Y-88190620D01*
X165289210Y-88159206D01*
X165300120Y-88128714D01*
X165313966Y-88099439D01*
X165330615Y-88071662D01*
X165349907Y-88045650D01*
X165371655Y-88021655D01*
X165395650Y-87999907D01*
X165421662Y-87980615D01*
X165449439Y-87963966D01*
X165478714Y-87950120D01*
X165509206Y-87939210D01*
X165540620Y-87931341D01*
X165572654Y-87926589D01*
X165605000Y-87925000D01*
X166595000Y-87925000D01*
X166627346Y-87926589D01*
X166627346Y-87926589D01*
G37*
D11*
X166100000Y-89000000D03*
G04 #@! TD*
D10*
G04 #@! TO.C,C2*
G36*
X166627346Y-83426589D02*
X166659380Y-83431341D01*
X166690794Y-83439210D01*
X166721286Y-83450120D01*
X166750561Y-83463966D01*
X166778338Y-83480615D01*
X166804350Y-83499907D01*
X166828345Y-83521655D01*
X166850093Y-83545650D01*
X166869385Y-83571662D01*
X166886034Y-83599439D01*
X166899880Y-83628714D01*
X166910790Y-83659206D01*
X166918659Y-83690620D01*
X166923411Y-83722654D01*
X166925000Y-83755000D01*
X166925000Y-85245000D01*
X166923411Y-85277346D01*
X166918659Y-85309380D01*
X166910790Y-85340794D01*
X166899880Y-85371286D01*
X166886034Y-85400561D01*
X166869385Y-85428338D01*
X166850093Y-85454350D01*
X166828345Y-85478345D01*
X166804350Y-85500093D01*
X166778338Y-85519385D01*
X166750561Y-85536034D01*
X166721286Y-85549880D01*
X166690794Y-85560790D01*
X166659380Y-85568659D01*
X166627346Y-85573411D01*
X166595000Y-85575000D01*
X165605000Y-85575000D01*
X165572654Y-85573411D01*
X165540620Y-85568659D01*
X165509206Y-85560790D01*
X165478714Y-85549880D01*
X165449439Y-85536034D01*
X165421662Y-85519385D01*
X165395650Y-85500093D01*
X165371655Y-85478345D01*
X165349907Y-85454350D01*
X165330615Y-85428338D01*
X165313966Y-85400561D01*
X165300120Y-85371286D01*
X165289210Y-85340794D01*
X165281341Y-85309380D01*
X165276589Y-85277346D01*
X165275000Y-85245000D01*
X165275000Y-83755000D01*
X165276589Y-83722654D01*
X165281341Y-83690620D01*
X165289210Y-83659206D01*
X165300120Y-83628714D01*
X165313966Y-83599439D01*
X165330615Y-83571662D01*
X165349907Y-83545650D01*
X165371655Y-83521655D01*
X165395650Y-83499907D01*
X165421662Y-83480615D01*
X165449439Y-83463966D01*
X165478714Y-83450120D01*
X165509206Y-83439210D01*
X165540620Y-83431341D01*
X165572654Y-83426589D01*
X165605000Y-83425000D01*
X166595000Y-83425000D01*
X166627346Y-83426589D01*
X166627346Y-83426589D01*
G37*
D11*
X166100000Y-84500000D03*
D10*
G36*
X169427346Y-83426589D02*
X169459380Y-83431341D01*
X169490794Y-83439210D01*
X169521286Y-83450120D01*
X169550561Y-83463966D01*
X169578338Y-83480615D01*
X169604350Y-83499907D01*
X169628345Y-83521655D01*
X169650093Y-83545650D01*
X169669385Y-83571662D01*
X169686034Y-83599439D01*
X169699880Y-83628714D01*
X169710790Y-83659206D01*
X169718659Y-83690620D01*
X169723411Y-83722654D01*
X169725000Y-83755000D01*
X169725000Y-85245000D01*
X169723411Y-85277346D01*
X169718659Y-85309380D01*
X169710790Y-85340794D01*
X169699880Y-85371286D01*
X169686034Y-85400561D01*
X169669385Y-85428338D01*
X169650093Y-85454350D01*
X169628345Y-85478345D01*
X169604350Y-85500093D01*
X169578338Y-85519385D01*
X169550561Y-85536034D01*
X169521286Y-85549880D01*
X169490794Y-85560790D01*
X169459380Y-85568659D01*
X169427346Y-85573411D01*
X169395000Y-85575000D01*
X168405000Y-85575000D01*
X168372654Y-85573411D01*
X168340620Y-85568659D01*
X168309206Y-85560790D01*
X168278714Y-85549880D01*
X168249439Y-85536034D01*
X168221662Y-85519385D01*
X168195650Y-85500093D01*
X168171655Y-85478345D01*
X168149907Y-85454350D01*
X168130615Y-85428338D01*
X168113966Y-85400561D01*
X168100120Y-85371286D01*
X168089210Y-85340794D01*
X168081341Y-85309380D01*
X168076589Y-85277346D01*
X168075000Y-85245000D01*
X168075000Y-83755000D01*
X168076589Y-83722654D01*
X168081341Y-83690620D01*
X168089210Y-83659206D01*
X168100120Y-83628714D01*
X168113966Y-83599439D01*
X168130615Y-83571662D01*
X168149907Y-83545650D01*
X168171655Y-83521655D01*
X168195650Y-83499907D01*
X168221662Y-83480615D01*
X168249439Y-83463966D01*
X168278714Y-83450120D01*
X168309206Y-83439210D01*
X168340620Y-83431341D01*
X168372654Y-83426589D01*
X168405000Y-83425000D01*
X169395000Y-83425000D01*
X169427346Y-83426589D01*
X169427346Y-83426589D01*
G37*
D11*
X168900000Y-84500000D03*
G04 #@! TD*
D10*
G04 #@! TO.C,C3*
G36*
X193127346Y-84426589D02*
X193159380Y-84431341D01*
X193190794Y-84439210D01*
X193221286Y-84450120D01*
X193250561Y-84463966D01*
X193278338Y-84480615D01*
X193304350Y-84499907D01*
X193328345Y-84521655D01*
X193350093Y-84545650D01*
X193369385Y-84571662D01*
X193386034Y-84599439D01*
X193399880Y-84628714D01*
X193410790Y-84659206D01*
X193418659Y-84690620D01*
X193423411Y-84722654D01*
X193425000Y-84755000D01*
X193425000Y-86245000D01*
X193423411Y-86277346D01*
X193418659Y-86309380D01*
X193410790Y-86340794D01*
X193399880Y-86371286D01*
X193386034Y-86400561D01*
X193369385Y-86428338D01*
X193350093Y-86454350D01*
X193328345Y-86478345D01*
X193304350Y-86500093D01*
X193278338Y-86519385D01*
X193250561Y-86536034D01*
X193221286Y-86549880D01*
X193190794Y-86560790D01*
X193159380Y-86568659D01*
X193127346Y-86573411D01*
X193095000Y-86575000D01*
X192105000Y-86575000D01*
X192072654Y-86573411D01*
X192040620Y-86568659D01*
X192009206Y-86560790D01*
X191978714Y-86549880D01*
X191949439Y-86536034D01*
X191921662Y-86519385D01*
X191895650Y-86500093D01*
X191871655Y-86478345D01*
X191849907Y-86454350D01*
X191830615Y-86428338D01*
X191813966Y-86400561D01*
X191800120Y-86371286D01*
X191789210Y-86340794D01*
X191781341Y-86309380D01*
X191776589Y-86277346D01*
X191775000Y-86245000D01*
X191775000Y-84755000D01*
X191776589Y-84722654D01*
X191781341Y-84690620D01*
X191789210Y-84659206D01*
X191800120Y-84628714D01*
X191813966Y-84599439D01*
X191830615Y-84571662D01*
X191849907Y-84545650D01*
X191871655Y-84521655D01*
X191895650Y-84499907D01*
X191921662Y-84480615D01*
X191949439Y-84463966D01*
X191978714Y-84450120D01*
X192009206Y-84439210D01*
X192040620Y-84431341D01*
X192072654Y-84426589D01*
X192105000Y-84425000D01*
X193095000Y-84425000D01*
X193127346Y-84426589D01*
X193127346Y-84426589D01*
G37*
D11*
X192600000Y-85500000D03*
D10*
G36*
X195927346Y-84426589D02*
X195959380Y-84431341D01*
X195990794Y-84439210D01*
X196021286Y-84450120D01*
X196050561Y-84463966D01*
X196078338Y-84480615D01*
X196104350Y-84499907D01*
X196128345Y-84521655D01*
X196150093Y-84545650D01*
X196169385Y-84571662D01*
X196186034Y-84599439D01*
X196199880Y-84628714D01*
X196210790Y-84659206D01*
X196218659Y-84690620D01*
X196223411Y-84722654D01*
X196225000Y-84755000D01*
X196225000Y-86245000D01*
X196223411Y-86277346D01*
X196218659Y-86309380D01*
X196210790Y-86340794D01*
X196199880Y-86371286D01*
X196186034Y-86400561D01*
X196169385Y-86428338D01*
X196150093Y-86454350D01*
X196128345Y-86478345D01*
X196104350Y-86500093D01*
X196078338Y-86519385D01*
X196050561Y-86536034D01*
X196021286Y-86549880D01*
X195990794Y-86560790D01*
X195959380Y-86568659D01*
X195927346Y-86573411D01*
X195895000Y-86575000D01*
X194905000Y-86575000D01*
X194872654Y-86573411D01*
X194840620Y-86568659D01*
X194809206Y-86560790D01*
X194778714Y-86549880D01*
X194749439Y-86536034D01*
X194721662Y-86519385D01*
X194695650Y-86500093D01*
X194671655Y-86478345D01*
X194649907Y-86454350D01*
X194630615Y-86428338D01*
X194613966Y-86400561D01*
X194600120Y-86371286D01*
X194589210Y-86340794D01*
X194581341Y-86309380D01*
X194576589Y-86277346D01*
X194575000Y-86245000D01*
X194575000Y-84755000D01*
X194576589Y-84722654D01*
X194581341Y-84690620D01*
X194589210Y-84659206D01*
X194600120Y-84628714D01*
X194613966Y-84599439D01*
X194630615Y-84571662D01*
X194649907Y-84545650D01*
X194671655Y-84521655D01*
X194695650Y-84499907D01*
X194721662Y-84480615D01*
X194749439Y-84463966D01*
X194778714Y-84450120D01*
X194809206Y-84439210D01*
X194840620Y-84431341D01*
X194872654Y-84426589D01*
X194905000Y-84425000D01*
X195895000Y-84425000D01*
X195927346Y-84426589D01*
X195927346Y-84426589D01*
G37*
D11*
X195400000Y-85500000D03*
G04 #@! TD*
D10*
G04 #@! TO.C,C4*
G36*
X195927346Y-72426589D02*
X195959380Y-72431341D01*
X195990794Y-72439210D01*
X196021286Y-72450120D01*
X196050561Y-72463966D01*
X196078338Y-72480615D01*
X196104350Y-72499907D01*
X196128345Y-72521655D01*
X196150093Y-72545650D01*
X196169385Y-72571662D01*
X196186034Y-72599439D01*
X196199880Y-72628714D01*
X196210790Y-72659206D01*
X196218659Y-72690620D01*
X196223411Y-72722654D01*
X196225000Y-72755000D01*
X196225000Y-74245000D01*
X196223411Y-74277346D01*
X196218659Y-74309380D01*
X196210790Y-74340794D01*
X196199880Y-74371286D01*
X196186034Y-74400561D01*
X196169385Y-74428338D01*
X196150093Y-74454350D01*
X196128345Y-74478345D01*
X196104350Y-74500093D01*
X196078338Y-74519385D01*
X196050561Y-74536034D01*
X196021286Y-74549880D01*
X195990794Y-74560790D01*
X195959380Y-74568659D01*
X195927346Y-74573411D01*
X195895000Y-74575000D01*
X194905000Y-74575000D01*
X194872654Y-74573411D01*
X194840620Y-74568659D01*
X194809206Y-74560790D01*
X194778714Y-74549880D01*
X194749439Y-74536034D01*
X194721662Y-74519385D01*
X194695650Y-74500093D01*
X194671655Y-74478345D01*
X194649907Y-74454350D01*
X194630615Y-74428338D01*
X194613966Y-74400561D01*
X194600120Y-74371286D01*
X194589210Y-74340794D01*
X194581341Y-74309380D01*
X194576589Y-74277346D01*
X194575000Y-74245000D01*
X194575000Y-72755000D01*
X194576589Y-72722654D01*
X194581341Y-72690620D01*
X194589210Y-72659206D01*
X194600120Y-72628714D01*
X194613966Y-72599439D01*
X194630615Y-72571662D01*
X194649907Y-72545650D01*
X194671655Y-72521655D01*
X194695650Y-72499907D01*
X194721662Y-72480615D01*
X194749439Y-72463966D01*
X194778714Y-72450120D01*
X194809206Y-72439210D01*
X194840620Y-72431341D01*
X194872654Y-72426589D01*
X194905000Y-72425000D01*
X195895000Y-72425000D01*
X195927346Y-72426589D01*
X195927346Y-72426589D01*
G37*
D11*
X195400000Y-73500000D03*
D10*
G36*
X193127346Y-72426589D02*
X193159380Y-72431341D01*
X193190794Y-72439210D01*
X193221286Y-72450120D01*
X193250561Y-72463966D01*
X193278338Y-72480615D01*
X193304350Y-72499907D01*
X193328345Y-72521655D01*
X193350093Y-72545650D01*
X193369385Y-72571662D01*
X193386034Y-72599439D01*
X193399880Y-72628714D01*
X193410790Y-72659206D01*
X193418659Y-72690620D01*
X193423411Y-72722654D01*
X193425000Y-72755000D01*
X193425000Y-74245000D01*
X193423411Y-74277346D01*
X193418659Y-74309380D01*
X193410790Y-74340794D01*
X193399880Y-74371286D01*
X193386034Y-74400561D01*
X193369385Y-74428338D01*
X193350093Y-74454350D01*
X193328345Y-74478345D01*
X193304350Y-74500093D01*
X193278338Y-74519385D01*
X193250561Y-74536034D01*
X193221286Y-74549880D01*
X193190794Y-74560790D01*
X193159380Y-74568659D01*
X193127346Y-74573411D01*
X193095000Y-74575000D01*
X192105000Y-74575000D01*
X192072654Y-74573411D01*
X192040620Y-74568659D01*
X192009206Y-74560790D01*
X191978714Y-74549880D01*
X191949439Y-74536034D01*
X191921662Y-74519385D01*
X191895650Y-74500093D01*
X191871655Y-74478345D01*
X191849907Y-74454350D01*
X191830615Y-74428338D01*
X191813966Y-74400561D01*
X191800120Y-74371286D01*
X191789210Y-74340794D01*
X191781341Y-74309380D01*
X191776589Y-74277346D01*
X191775000Y-74245000D01*
X191775000Y-72755000D01*
X191776589Y-72722654D01*
X191781341Y-72690620D01*
X191789210Y-72659206D01*
X191800120Y-72628714D01*
X191813966Y-72599439D01*
X191830615Y-72571662D01*
X191849907Y-72545650D01*
X191871655Y-72521655D01*
X191895650Y-72499907D01*
X191921662Y-72480615D01*
X191949439Y-72463966D01*
X191978714Y-72450120D01*
X192009206Y-72439210D01*
X192040620Y-72431341D01*
X192072654Y-72426589D01*
X192105000Y-72425000D01*
X193095000Y-72425000D01*
X193127346Y-72426589D01*
X193127346Y-72426589D01*
G37*
D11*
X192600000Y-73500000D03*
G04 #@! TD*
D10*
G04 #@! TO.C,C5*
G36*
X185927346Y-86426589D02*
X185959380Y-86431341D01*
X185990794Y-86439210D01*
X186021286Y-86450120D01*
X186050561Y-86463966D01*
X186078338Y-86480615D01*
X186104350Y-86499907D01*
X186128345Y-86521655D01*
X186150093Y-86545650D01*
X186169385Y-86571662D01*
X186186034Y-86599439D01*
X186199880Y-86628714D01*
X186210790Y-86659206D01*
X186218659Y-86690620D01*
X186223411Y-86722654D01*
X186225000Y-86755000D01*
X186225000Y-88245000D01*
X186223411Y-88277346D01*
X186218659Y-88309380D01*
X186210790Y-88340794D01*
X186199880Y-88371286D01*
X186186034Y-88400561D01*
X186169385Y-88428338D01*
X186150093Y-88454350D01*
X186128345Y-88478345D01*
X186104350Y-88500093D01*
X186078338Y-88519385D01*
X186050561Y-88536034D01*
X186021286Y-88549880D01*
X185990794Y-88560790D01*
X185959380Y-88568659D01*
X185927346Y-88573411D01*
X185895000Y-88575000D01*
X184905000Y-88575000D01*
X184872654Y-88573411D01*
X184840620Y-88568659D01*
X184809206Y-88560790D01*
X184778714Y-88549880D01*
X184749439Y-88536034D01*
X184721662Y-88519385D01*
X184695650Y-88500093D01*
X184671655Y-88478345D01*
X184649907Y-88454350D01*
X184630615Y-88428338D01*
X184613966Y-88400561D01*
X184600120Y-88371286D01*
X184589210Y-88340794D01*
X184581341Y-88309380D01*
X184576589Y-88277346D01*
X184575000Y-88245000D01*
X184575000Y-86755000D01*
X184576589Y-86722654D01*
X184581341Y-86690620D01*
X184589210Y-86659206D01*
X184600120Y-86628714D01*
X184613966Y-86599439D01*
X184630615Y-86571662D01*
X184649907Y-86545650D01*
X184671655Y-86521655D01*
X184695650Y-86499907D01*
X184721662Y-86480615D01*
X184749439Y-86463966D01*
X184778714Y-86450120D01*
X184809206Y-86439210D01*
X184840620Y-86431341D01*
X184872654Y-86426589D01*
X184905000Y-86425000D01*
X185895000Y-86425000D01*
X185927346Y-86426589D01*
X185927346Y-86426589D01*
G37*
D11*
X185400000Y-87500000D03*
D10*
G36*
X183127346Y-86426589D02*
X183159380Y-86431341D01*
X183190794Y-86439210D01*
X183221286Y-86450120D01*
X183250561Y-86463966D01*
X183278338Y-86480615D01*
X183304350Y-86499907D01*
X183328345Y-86521655D01*
X183350093Y-86545650D01*
X183369385Y-86571662D01*
X183386034Y-86599439D01*
X183399880Y-86628714D01*
X183410790Y-86659206D01*
X183418659Y-86690620D01*
X183423411Y-86722654D01*
X183425000Y-86755000D01*
X183425000Y-88245000D01*
X183423411Y-88277346D01*
X183418659Y-88309380D01*
X183410790Y-88340794D01*
X183399880Y-88371286D01*
X183386034Y-88400561D01*
X183369385Y-88428338D01*
X183350093Y-88454350D01*
X183328345Y-88478345D01*
X183304350Y-88500093D01*
X183278338Y-88519385D01*
X183250561Y-88536034D01*
X183221286Y-88549880D01*
X183190794Y-88560790D01*
X183159380Y-88568659D01*
X183127346Y-88573411D01*
X183095000Y-88575000D01*
X182105000Y-88575000D01*
X182072654Y-88573411D01*
X182040620Y-88568659D01*
X182009206Y-88560790D01*
X181978714Y-88549880D01*
X181949439Y-88536034D01*
X181921662Y-88519385D01*
X181895650Y-88500093D01*
X181871655Y-88478345D01*
X181849907Y-88454350D01*
X181830615Y-88428338D01*
X181813966Y-88400561D01*
X181800120Y-88371286D01*
X181789210Y-88340794D01*
X181781341Y-88309380D01*
X181776589Y-88277346D01*
X181775000Y-88245000D01*
X181775000Y-86755000D01*
X181776589Y-86722654D01*
X181781341Y-86690620D01*
X181789210Y-86659206D01*
X181800120Y-86628714D01*
X181813966Y-86599439D01*
X181830615Y-86571662D01*
X181849907Y-86545650D01*
X181871655Y-86521655D01*
X181895650Y-86499907D01*
X181921662Y-86480615D01*
X181949439Y-86463966D01*
X181978714Y-86450120D01*
X182009206Y-86439210D01*
X182040620Y-86431341D01*
X182072654Y-86426589D01*
X182105000Y-86425000D01*
X183095000Y-86425000D01*
X183127346Y-86426589D01*
X183127346Y-86426589D01*
G37*
D11*
X182600000Y-87500000D03*
G04 #@! TD*
D10*
G04 #@! TO.C,C6*
G36*
X179627346Y-92926589D02*
X179659380Y-92931341D01*
X179690794Y-92939210D01*
X179721286Y-92950120D01*
X179750561Y-92963966D01*
X179778338Y-92980615D01*
X179804350Y-92999907D01*
X179828345Y-93021655D01*
X179850093Y-93045650D01*
X179869385Y-93071662D01*
X179886034Y-93099439D01*
X179899880Y-93128714D01*
X179910790Y-93159206D01*
X179918659Y-93190620D01*
X179923411Y-93222654D01*
X179925000Y-93255000D01*
X179925000Y-94745000D01*
X179923411Y-94777346D01*
X179918659Y-94809380D01*
X179910790Y-94840794D01*
X179899880Y-94871286D01*
X179886034Y-94900561D01*
X179869385Y-94928338D01*
X179850093Y-94954350D01*
X179828345Y-94978345D01*
X179804350Y-95000093D01*
X179778338Y-95019385D01*
X179750561Y-95036034D01*
X179721286Y-95049880D01*
X179690794Y-95060790D01*
X179659380Y-95068659D01*
X179627346Y-95073411D01*
X179595000Y-95075000D01*
X178605000Y-95075000D01*
X178572654Y-95073411D01*
X178540620Y-95068659D01*
X178509206Y-95060790D01*
X178478714Y-95049880D01*
X178449439Y-95036034D01*
X178421662Y-95019385D01*
X178395650Y-95000093D01*
X178371655Y-94978345D01*
X178349907Y-94954350D01*
X178330615Y-94928338D01*
X178313966Y-94900561D01*
X178300120Y-94871286D01*
X178289210Y-94840794D01*
X178281341Y-94809380D01*
X178276589Y-94777346D01*
X178275000Y-94745000D01*
X178275000Y-93255000D01*
X178276589Y-93222654D01*
X178281341Y-93190620D01*
X178289210Y-93159206D01*
X178300120Y-93128714D01*
X178313966Y-93099439D01*
X178330615Y-93071662D01*
X178349907Y-93045650D01*
X178371655Y-93021655D01*
X178395650Y-92999907D01*
X178421662Y-92980615D01*
X178449439Y-92963966D01*
X178478714Y-92950120D01*
X178509206Y-92939210D01*
X178540620Y-92931341D01*
X178572654Y-92926589D01*
X178605000Y-92925000D01*
X179595000Y-92925000D01*
X179627346Y-92926589D01*
X179627346Y-92926589D01*
G37*
D11*
X179100000Y-94000000D03*
D10*
G36*
X182427346Y-92926589D02*
X182459380Y-92931341D01*
X182490794Y-92939210D01*
X182521286Y-92950120D01*
X182550561Y-92963966D01*
X182578338Y-92980615D01*
X182604350Y-92999907D01*
X182628345Y-93021655D01*
X182650093Y-93045650D01*
X182669385Y-93071662D01*
X182686034Y-93099439D01*
X182699880Y-93128714D01*
X182710790Y-93159206D01*
X182718659Y-93190620D01*
X182723411Y-93222654D01*
X182725000Y-93255000D01*
X182725000Y-94745000D01*
X182723411Y-94777346D01*
X182718659Y-94809380D01*
X182710790Y-94840794D01*
X182699880Y-94871286D01*
X182686034Y-94900561D01*
X182669385Y-94928338D01*
X182650093Y-94954350D01*
X182628345Y-94978345D01*
X182604350Y-95000093D01*
X182578338Y-95019385D01*
X182550561Y-95036034D01*
X182521286Y-95049880D01*
X182490794Y-95060790D01*
X182459380Y-95068659D01*
X182427346Y-95073411D01*
X182395000Y-95075000D01*
X181405000Y-95075000D01*
X181372654Y-95073411D01*
X181340620Y-95068659D01*
X181309206Y-95060790D01*
X181278714Y-95049880D01*
X181249439Y-95036034D01*
X181221662Y-95019385D01*
X181195650Y-95000093D01*
X181171655Y-94978345D01*
X181149907Y-94954350D01*
X181130615Y-94928338D01*
X181113966Y-94900561D01*
X181100120Y-94871286D01*
X181089210Y-94840794D01*
X181081341Y-94809380D01*
X181076589Y-94777346D01*
X181075000Y-94745000D01*
X181075000Y-93255000D01*
X181076589Y-93222654D01*
X181081341Y-93190620D01*
X181089210Y-93159206D01*
X181100120Y-93128714D01*
X181113966Y-93099439D01*
X181130615Y-93071662D01*
X181149907Y-93045650D01*
X181171655Y-93021655D01*
X181195650Y-92999907D01*
X181221662Y-92980615D01*
X181249439Y-92963966D01*
X181278714Y-92950120D01*
X181309206Y-92939210D01*
X181340620Y-92931341D01*
X181372654Y-92926589D01*
X181405000Y-92925000D01*
X182395000Y-92925000D01*
X182427346Y-92926589D01*
X182427346Y-92926589D01*
G37*
D11*
X181900000Y-94000000D03*
G04 #@! TD*
D12*
G04 #@! TO.C,J1*
X200500000Y-71500000D03*
D13*
X200500000Y-74040000D03*
X200500000Y-76580000D03*
X200500000Y-79120000D03*
X200500000Y-81660000D03*
X200500000Y-84200000D03*
X200500000Y-86740000D03*
G04 #@! TD*
D12*
G04 #@! TO.C,J2*
X207500000Y-106000000D03*
D13*
X207500000Y-103460000D03*
X207500000Y-100920000D03*
X207500000Y-98380000D03*
X207500000Y-95840000D03*
X207500000Y-93300000D03*
X207500000Y-90760000D03*
X207500000Y-88220000D03*
X207500000Y-85680000D03*
X207500000Y-83140000D03*
G04 #@! TD*
G04 #@! TO.C,J3*
X172500000Y-121860000D03*
X172500000Y-119320000D03*
X172500000Y-116780000D03*
X172500000Y-114240000D03*
X172500000Y-111700000D03*
X172500000Y-109160000D03*
X172500000Y-106620000D03*
X172500000Y-104080000D03*
X172500000Y-101540000D03*
D12*
X172500000Y-99000000D03*
G04 #@! TD*
D10*
G04 #@! TO.C,R1*
G36*
X188277346Y-80576589D02*
X188309380Y-80581341D01*
X188340794Y-80589210D01*
X188371286Y-80600120D01*
X188400561Y-80613966D01*
X188428338Y-80630615D01*
X188454350Y-80649907D01*
X188478345Y-80671655D01*
X188500093Y-80695650D01*
X188519385Y-80721662D01*
X188536034Y-80749439D01*
X188549880Y-80778714D01*
X188560790Y-80809206D01*
X188568659Y-80840620D01*
X188573411Y-80872654D01*
X188575000Y-80905000D01*
X188575000Y-81895000D01*
X188573411Y-81927346D01*
X188568659Y-81959380D01*
X188560790Y-81990794D01*
X188549880Y-82021286D01*
X188536034Y-82050561D01*
X188519385Y-82078338D01*
X188500093Y-82104350D01*
X188478345Y-82128345D01*
X188454350Y-82150093D01*
X188428338Y-82169385D01*
X188400561Y-82186034D01*
X188371286Y-82199880D01*
X188340794Y-82210790D01*
X188309380Y-82218659D01*
X188277346Y-82223411D01*
X188245000Y-82225000D01*
X186755000Y-82225000D01*
X186722654Y-82223411D01*
X186690620Y-82218659D01*
X186659206Y-82210790D01*
X186628714Y-82199880D01*
X186599439Y-82186034D01*
X186571662Y-82169385D01*
X186545650Y-82150093D01*
X186521655Y-82128345D01*
X186499907Y-82104350D01*
X186480615Y-82078338D01*
X186463966Y-82050561D01*
X186450120Y-82021286D01*
X186439210Y-81990794D01*
X186431341Y-81959380D01*
X186426589Y-81927346D01*
X186425000Y-81895000D01*
X186425000Y-80905000D01*
X186426589Y-80872654D01*
X186431341Y-80840620D01*
X186439210Y-80809206D01*
X186450120Y-80778714D01*
X186463966Y-80749439D01*
X186480615Y-80721662D01*
X186499907Y-80695650D01*
X186521655Y-80671655D01*
X186545650Y-80649907D01*
X186571662Y-80630615D01*
X186599439Y-80613966D01*
X186628714Y-80600120D01*
X186659206Y-80589210D01*
X186690620Y-80581341D01*
X186722654Y-80576589D01*
X186755000Y-80575000D01*
X188245000Y-80575000D01*
X188277346Y-80576589D01*
X188277346Y-80576589D01*
G37*
D11*
X187500000Y-81400000D03*
D10*
G36*
X188277346Y-77776589D02*
X188309380Y-77781341D01*
X188340794Y-77789210D01*
X188371286Y-77800120D01*
X188400561Y-77813966D01*
X188428338Y-77830615D01*
X188454350Y-77849907D01*
X188478345Y-77871655D01*
X188500093Y-77895650D01*
X188519385Y-77921662D01*
X188536034Y-77949439D01*
X188549880Y-77978714D01*
X188560790Y-78009206D01*
X188568659Y-78040620D01*
X188573411Y-78072654D01*
X188575000Y-78105000D01*
X188575000Y-79095000D01*
X188573411Y-79127346D01*
X188568659Y-79159380D01*
X188560790Y-79190794D01*
X188549880Y-79221286D01*
X188536034Y-79250561D01*
X188519385Y-79278338D01*
X188500093Y-79304350D01*
X188478345Y-79328345D01*
X188454350Y-79350093D01*
X188428338Y-79369385D01*
X188400561Y-79386034D01*
X188371286Y-79399880D01*
X188340794Y-79410790D01*
X188309380Y-79418659D01*
X188277346Y-79423411D01*
X188245000Y-79425000D01*
X186755000Y-79425000D01*
X186722654Y-79423411D01*
X186690620Y-79418659D01*
X186659206Y-79410790D01*
X186628714Y-79399880D01*
X186599439Y-79386034D01*
X186571662Y-79369385D01*
X186545650Y-79350093D01*
X186521655Y-79328345D01*
X186499907Y-79304350D01*
X186480615Y-79278338D01*
X186463966Y-79250561D01*
X186450120Y-79221286D01*
X186439210Y-79190794D01*
X186431341Y-79159380D01*
X186426589Y-79127346D01*
X186425000Y-79095000D01*
X186425000Y-78105000D01*
X186426589Y-78072654D01*
X186431341Y-78040620D01*
X186439210Y-78009206D01*
X186450120Y-77978714D01*
X186463966Y-77949439D01*
X186480615Y-77921662D01*
X186499907Y-77895650D01*
X186521655Y-77871655D01*
X186545650Y-77849907D01*
X186571662Y-77830615D01*
X186599439Y-77813966D01*
X186628714Y-77800120D01*
X186659206Y-77789210D01*
X186690620Y-77781341D01*
X186722654Y-77776589D01*
X186755000Y-77775000D01*
X188245000Y-77775000D01*
X188277346Y-77776589D01*
X188277346Y-77776589D01*
G37*
D11*
X187500000Y-78600000D03*
G04 #@! TD*
D10*
G04 #@! TO.C,R2*
G36*
X191777346Y-77776589D02*
X191809380Y-77781341D01*
X191840794Y-77789210D01*
X191871286Y-77800120D01*
X191900561Y-77813966D01*
X191928338Y-77830615D01*
X191954350Y-77849907D01*
X191978345Y-77871655D01*
X192000093Y-77895650D01*
X192019385Y-77921662D01*
X192036034Y-77949439D01*
X192049880Y-77978714D01*
X192060790Y-78009206D01*
X192068659Y-78040620D01*
X192073411Y-78072654D01*
X192075000Y-78105000D01*
X192075000Y-79095000D01*
X192073411Y-79127346D01*
X192068659Y-79159380D01*
X192060790Y-79190794D01*
X192049880Y-79221286D01*
X192036034Y-79250561D01*
X192019385Y-79278338D01*
X192000093Y-79304350D01*
X191978345Y-79328345D01*
X191954350Y-79350093D01*
X191928338Y-79369385D01*
X191900561Y-79386034D01*
X191871286Y-79399880D01*
X191840794Y-79410790D01*
X191809380Y-79418659D01*
X191777346Y-79423411D01*
X191745000Y-79425000D01*
X190255000Y-79425000D01*
X190222654Y-79423411D01*
X190190620Y-79418659D01*
X190159206Y-79410790D01*
X190128714Y-79399880D01*
X190099439Y-79386034D01*
X190071662Y-79369385D01*
X190045650Y-79350093D01*
X190021655Y-79328345D01*
X189999907Y-79304350D01*
X189980615Y-79278338D01*
X189963966Y-79250561D01*
X189950120Y-79221286D01*
X189939210Y-79190794D01*
X189931341Y-79159380D01*
X189926589Y-79127346D01*
X189925000Y-79095000D01*
X189925000Y-78105000D01*
X189926589Y-78072654D01*
X189931341Y-78040620D01*
X189939210Y-78009206D01*
X189950120Y-77978714D01*
X189963966Y-77949439D01*
X189980615Y-77921662D01*
X189999907Y-77895650D01*
X190021655Y-77871655D01*
X190045650Y-77849907D01*
X190071662Y-77830615D01*
X190099439Y-77813966D01*
X190128714Y-77800120D01*
X190159206Y-77789210D01*
X190190620Y-77781341D01*
X190222654Y-77776589D01*
X190255000Y-77775000D01*
X191745000Y-77775000D01*
X191777346Y-77776589D01*
X191777346Y-77776589D01*
G37*
D11*
X191000000Y-78600000D03*
D10*
G36*
X191777346Y-80576589D02*
X191809380Y-80581341D01*
X191840794Y-80589210D01*
X191871286Y-80600120D01*
X191900561Y-80613966D01*
X191928338Y-80630615D01*
X191954350Y-80649907D01*
X191978345Y-80671655D01*
X192000093Y-80695650D01*
X192019385Y-80721662D01*
X192036034Y-80749439D01*
X192049880Y-80778714D01*
X192060790Y-80809206D01*
X192068659Y-80840620D01*
X192073411Y-80872654D01*
X192075000Y-80905000D01*
X192075000Y-81895000D01*
X192073411Y-81927346D01*
X192068659Y-81959380D01*
X192060790Y-81990794D01*
X192049880Y-82021286D01*
X192036034Y-82050561D01*
X192019385Y-82078338D01*
X192000093Y-82104350D01*
X191978345Y-82128345D01*
X191954350Y-82150093D01*
X191928338Y-82169385D01*
X191900561Y-82186034D01*
X191871286Y-82199880D01*
X191840794Y-82210790D01*
X191809380Y-82218659D01*
X191777346Y-82223411D01*
X191745000Y-82225000D01*
X190255000Y-82225000D01*
X190222654Y-82223411D01*
X190190620Y-82218659D01*
X190159206Y-82210790D01*
X190128714Y-82199880D01*
X190099439Y-82186034D01*
X190071662Y-82169385D01*
X190045650Y-82150093D01*
X190021655Y-82128345D01*
X189999907Y-82104350D01*
X189980615Y-82078338D01*
X189963966Y-82050561D01*
X189950120Y-82021286D01*
X189939210Y-81990794D01*
X189931341Y-81959380D01*
X189926589Y-81927346D01*
X189925000Y-81895000D01*
X189925000Y-80905000D01*
X189926589Y-80872654D01*
X189931341Y-80840620D01*
X189939210Y-80809206D01*
X189950120Y-80778714D01*
X189963966Y-80749439D01*
X189980615Y-80721662D01*
X189999907Y-80695650D01*
X190021655Y-80671655D01*
X190045650Y-80649907D01*
X190071662Y-80630615D01*
X190099439Y-80613966D01*
X190128714Y-80600120D01*
X190159206Y-80589210D01*
X190190620Y-80581341D01*
X190222654Y-80576589D01*
X190255000Y-80575000D01*
X191745000Y-80575000D01*
X191777346Y-80576589D01*
X191777346Y-80576589D01*
G37*
D11*
X191000000Y-81400000D03*
G04 #@! TD*
D10*
G04 #@! TO.C,R3*
G36*
X201427346Y-89426589D02*
X201459380Y-89431341D01*
X201490794Y-89439210D01*
X201521286Y-89450120D01*
X201550561Y-89463966D01*
X201578338Y-89480615D01*
X201604350Y-89499907D01*
X201628345Y-89521655D01*
X201650093Y-89545650D01*
X201669385Y-89571662D01*
X201686034Y-89599439D01*
X201699880Y-89628714D01*
X201710790Y-89659206D01*
X201718659Y-89690620D01*
X201723411Y-89722654D01*
X201725000Y-89755000D01*
X201725000Y-91245000D01*
X201723411Y-91277346D01*
X201718659Y-91309380D01*
X201710790Y-91340794D01*
X201699880Y-91371286D01*
X201686034Y-91400561D01*
X201669385Y-91428338D01*
X201650093Y-91454350D01*
X201628345Y-91478345D01*
X201604350Y-91500093D01*
X201578338Y-91519385D01*
X201550561Y-91536034D01*
X201521286Y-91549880D01*
X201490794Y-91560790D01*
X201459380Y-91568659D01*
X201427346Y-91573411D01*
X201395000Y-91575000D01*
X200405000Y-91575000D01*
X200372654Y-91573411D01*
X200340620Y-91568659D01*
X200309206Y-91560790D01*
X200278714Y-91549880D01*
X200249439Y-91536034D01*
X200221662Y-91519385D01*
X200195650Y-91500093D01*
X200171655Y-91478345D01*
X200149907Y-91454350D01*
X200130615Y-91428338D01*
X200113966Y-91400561D01*
X200100120Y-91371286D01*
X200089210Y-91340794D01*
X200081341Y-91309380D01*
X200076589Y-91277346D01*
X200075000Y-91245000D01*
X200075000Y-89755000D01*
X200076589Y-89722654D01*
X200081341Y-89690620D01*
X200089210Y-89659206D01*
X200100120Y-89628714D01*
X200113966Y-89599439D01*
X200130615Y-89571662D01*
X200149907Y-89545650D01*
X200171655Y-89521655D01*
X200195650Y-89499907D01*
X200221662Y-89480615D01*
X200249439Y-89463966D01*
X200278714Y-89450120D01*
X200309206Y-89439210D01*
X200340620Y-89431341D01*
X200372654Y-89426589D01*
X200405000Y-89425000D01*
X201395000Y-89425000D01*
X201427346Y-89426589D01*
X201427346Y-89426589D01*
G37*
D11*
X200900000Y-90500000D03*
D10*
G36*
X198627346Y-89426589D02*
X198659380Y-89431341D01*
X198690794Y-89439210D01*
X198721286Y-89450120D01*
X198750561Y-89463966D01*
X198778338Y-89480615D01*
X198804350Y-89499907D01*
X198828345Y-89521655D01*
X198850093Y-89545650D01*
X198869385Y-89571662D01*
X198886034Y-89599439D01*
X198899880Y-89628714D01*
X198910790Y-89659206D01*
X198918659Y-89690620D01*
X198923411Y-89722654D01*
X198925000Y-89755000D01*
X198925000Y-91245000D01*
X198923411Y-91277346D01*
X198918659Y-91309380D01*
X198910790Y-91340794D01*
X198899880Y-91371286D01*
X198886034Y-91400561D01*
X198869385Y-91428338D01*
X198850093Y-91454350D01*
X198828345Y-91478345D01*
X198804350Y-91500093D01*
X198778338Y-91519385D01*
X198750561Y-91536034D01*
X198721286Y-91549880D01*
X198690794Y-91560790D01*
X198659380Y-91568659D01*
X198627346Y-91573411D01*
X198595000Y-91575000D01*
X197605000Y-91575000D01*
X197572654Y-91573411D01*
X197540620Y-91568659D01*
X197509206Y-91560790D01*
X197478714Y-91549880D01*
X197449439Y-91536034D01*
X197421662Y-91519385D01*
X197395650Y-91500093D01*
X197371655Y-91478345D01*
X197349907Y-91454350D01*
X197330615Y-91428338D01*
X197313966Y-91400561D01*
X197300120Y-91371286D01*
X197289210Y-91340794D01*
X197281341Y-91309380D01*
X197276589Y-91277346D01*
X197275000Y-91245000D01*
X197275000Y-89755000D01*
X197276589Y-89722654D01*
X197281341Y-89690620D01*
X197289210Y-89659206D01*
X197300120Y-89628714D01*
X197313966Y-89599439D01*
X197330615Y-89571662D01*
X197349907Y-89545650D01*
X197371655Y-89521655D01*
X197395650Y-89499907D01*
X197421662Y-89480615D01*
X197449439Y-89463966D01*
X197478714Y-89450120D01*
X197509206Y-89439210D01*
X197540620Y-89431341D01*
X197572654Y-89426589D01*
X197605000Y-89425000D01*
X198595000Y-89425000D01*
X198627346Y-89426589D01*
X198627346Y-89426589D01*
G37*
D11*
X198100000Y-90500000D03*
G04 #@! TD*
D14*
G04 #@! TO.C,U1*
X185750000Y-91700000D03*
X185750000Y-92500000D03*
X185750000Y-93300000D03*
X185750000Y-94100000D03*
X185750000Y-94900000D03*
X185750000Y-95700000D03*
X185750000Y-96500000D03*
X185750000Y-97300000D03*
D15*
X187200000Y-98750000D03*
X188000000Y-98750000D03*
X188800000Y-98750000D03*
X189600000Y-98750000D03*
X190400000Y-98750000D03*
X191200000Y-98750000D03*
X192000000Y-98750000D03*
X192800000Y-98750000D03*
D14*
X194250000Y-97300000D03*
X194250000Y-96500000D03*
X194250000Y-95700000D03*
X194250000Y-94900000D03*
X194250000Y-94100000D03*
X194250000Y-93300000D03*
X194250000Y-92500000D03*
X194250000Y-91700000D03*
D15*
X192800000Y-90250000D03*
X192000000Y-90250000D03*
X191200000Y-90250000D03*
X190400000Y-90250000D03*
X189600000Y-90250000D03*
X188800000Y-90250000D03*
X188000000Y-90250000D03*
X187200000Y-90250000D03*
G04 #@! TD*
D16*
G04 #@! TO.C,X1*
X187537500Y-67950000D03*
X189462500Y-67950000D03*
D17*
X188500000Y-71025000D03*
X187849988Y-71025000D03*
X189150012Y-71025000D03*
X187200000Y-71025000D03*
X189800000Y-71025000D03*
D18*
X191274950Y-68200021D03*
X185725050Y-68200021D03*
X190925700Y-71229987D03*
X186074300Y-71229987D03*
G04 #@! TD*
D19*
G04 #@! TO.C,Y1*
X176000000Y-89000000D03*
X176000000Y-84120000D03*
G04 #@! TD*
M02*
